<?xml version="1.0" encoding="UTF-8" standalone="no"?>
<!-- Created with Inkscape (http://www.inkscape.org/) -->

<svg
   width="250"
   height="280.26343"
   viewBox="0 0 66.145833 74.153032"
   version="1.1"
   id="svg1"
   xml:space="preserve"
   xmlns="http://www.w3.org/2000/svg"
   xmlns:svg="http://www.w3.org/2000/svg"
   xmlns:rdf="http://www.w3.org/1999/02/22-rdf-syntax-ns#"
   xmlns:cc="http://creativecommons.org/ns#"
   xmlns:dc="http://purl.org/dc/elements/1.1/"><title
     id="title1">Dhaka College - ঢাকা কলেজ</title><defs
     id="defs1" /><g
     id="layer1"
     transform="translate(-45.993761,-21.804869)"><g
       id="g23"
       transform="matrix(0.3283789,0,0,0.3283789,31.154964,14.941222)"><g
         id="g9"
         style="opacity:1"><path
           id="path1"
           style="color:#000000;fill:#ffffff;fill-opacity:1;stroke:#000000;stroke-width:2.91042;stroke-dasharray:none;stroke-opacity:1"
           d="m 145.90376,23.260079 c -10.63802,0 -17.13749,6.838653 -22.71335,14.572237 l -6.04769,-5.619812 C 108.62974,48.845488 93.567545,56.936565 65.374304,60.810242 L 47.877698,81.903528 c 23.795614,29.196312 10.20993,56.925802 3.77548,66.907032 5.652254,54.07133 46.392854,76.22245 75.148382,81.82084 11.60319,2.25901 17.44507,10.65887 19.1022,12.80284 1.65712,-2.14397 7.499,-10.54383 19.10219,-12.80284 28.75549,-5.59838 69.49614,-27.7495 75.14838,-81.82084 -6.43444,-9.98123 -20.02012,-37.71072 3.77548,-66.907032 L 226.43321,60.810242 C 198.23997,56.936565 183.17777,48.845488 174.66479,32.212504 l -6.04769,5.619812 C 163.04124,30.098732 156.54178,23.260079 145.90376,23.260079 Z" /><g
           id="g8"><path
             id="path5"
             style="color:#000000;fill:#20bcee;fill-opacity:1;stroke:#000000;stroke-width:2.91042;stroke-dasharray:none;stroke-opacity:1"
             d="m 145.90376,53.406559 c -13.38307,0 -11.28139,34.963365 -59.718323,40.239921 6.948317,23.23552 5.61504,44.29572 -3.06958,61.33579 6.007088,28.70096 31.631533,46.86947 62.787903,46.86949 31.15636,-2e-5 56.78081,-18.16853 62.78789,-46.86949 C 200.00703,137.9422 198.67376,116.882 205.62207,93.64648 157.18514,88.369924 159.28682,53.406559 145.90376,53.406559 Z" /><g
             id="g6"><path
               id="path3"
               style="display:inline;opacity:1;vector-effect:none;fill:#bb2726;fill-rule:evenodd;stroke-width:0.285997;stop-color:#000000;stop-opacity:1"
               d="m 168.17666,132.99834 a 22.272915,22.272915 0 0 1 -22.27291,22.27291 22.272915,22.272915 0 0 1 -22.27292,-22.27291 22.272915,22.272915 0 0 1 22.27292,-22.27292 22.272915,22.272915 0 0 1 22.27291,22.27292 z" /><path
               style="opacity:1;fill:none;fill-opacity:1;stroke:#ffffff;stroke-width:3.01625;stroke-linecap:round;stroke-linejoin:miter;stroke-miterlimit:4;stroke-dasharray:none;stroke-dashoffset:0;stroke-opacity:1;stop-color:#000000;stop-opacity:1"
               d="m 145.90372,98.194753 v 10.187817 m -11.3783,-8.28911 3.30798,9.63582 m -13.45326,-4.14546 6.25749,8.03962 m -14.07035,0.44743 8.5289,5.57221 m -13.1627,4.99181 9.87608,2.50096 m -10.82867,8.99527 10.15302,-0.8413 m -7.32118,12.02394 9.32973,-4.0924 m -3.02034,13.74963 7.49543,-6.90002 m 1.60781,13.98535 4.84887,-8.95992 m 6.06173,12.70552 1.67686,-10.04887 m 9.85877,10.04886 -1.67686,-10.04887 m 12.58745,6.30325 -4.84886,-8.95992 m 13.95209,1.87458 -7.49543,-6.90002 m 13.80481,-2.75723 -9.32973,-4.0924 m 12.16155,-7.09024 -10.15302,-0.8413 m 9.2004,-10.65493 -9.87607,2.50097 m 5.24226,-13.06498 -8.5289,5.57221 m 0.71602,-14.05924 -6.25749,8.03962 m -3.8878,-13.52997 -3.30798,9.63582"
               id="path4" /></g><path
             style="opacity:1;fill:#f6ed17;fill-opacity:1;stroke:#000000;stroke-width:1.05833;stroke-linecap:butt;stroke-linejoin:miter;stroke-miterlimit:4;stroke-dasharray:none;stroke-dashoffset:0;stroke-opacity:1;stop-color:#000000;stop-opacity:1"
             d="m 145.57837,153.52963 c -16.15142,-13.8584 4.22057,-22.52896 3.95225,-32.53003 9.18525,13.36323 7.37616,22.78402 -3.95225,32.53003 z"
             id="path8" /><path
             id="rect8"
             style="opacity:1;vector-effect:none;fill:#ffffff;fill-opacity:1;fill-rule:evenodd;stroke-width:0.324802;stop-color:#000000;stop-opacity:1"
             d="m 138.12961,156.69948 c 4.9271,-4.61843 11.72217,-3.16431 15.54828,0 v 50.53541 h -15.54828 z" /></g></g><path
         id="path23"
         style="font-weight:bold;font-size:14.2627px;line-height:1.25;font-family:Arial;-inkscape-font-specification:'Arial Bold';letter-spacing:2.84162px;fill:#000000;fill-opacity:1;stroke-width:0.356569"
         d="m 165.94801,44.468087 c -0.83768,0.02054 -1.73571,0.259718 -2.69389,0.717785 -1.44931,0.692858 -2.40469,1.633551 -2.86598,2.821534 -0.45709,1.185979 -0.393,2.390616 0.19172,3.613733 0.47259,0.988547 1.10477,1.686887 1.89704,2.095479 0.79848,0.410778 1.76676,0.514196 2.90422,0.310058 l -0.29042,-2.076359 c -0.74848,0.167412 -1.36462,0.147981 -1.84898,-0.05788 -0.48437,-0.205859 -0.84478,-0.555792 -1.08108,-1.050065 -0.32042,-0.670201 -0.33381,-1.332825 -0.0398,-1.987993 0.29403,-0.655168 1.02351,-1.261288 2.18798,-1.817977 1.09746,-0.524649 1.99226,-0.692619 2.68459,-0.503845 0.69434,0.192963 1.20478,0.630848 1.53118,1.313615 0.23629,0.494274 0.29829,0.97905 0.18603,1.454692 -0.11025,0.47983 -0.37811,0.888574 -0.80357,1.225765 l 1.31982,1.630391 c 0.6371,-0.561874 1.05243,-1.146273 1.24592,-1.753381 0.32959,-1.022105 0.22499,-2.096284 -0.31368,-3.223059 -0.61676,-1.290138 -1.53952,-2.127854 -2.7683,-2.513025 -0.45923,-0.145191 -0.9402,-0.211792 -1.44281,-0.199471 z m -47.94178,4.919079 -1.24281,1.791105 6.12159,9.087301 1.24643,-1.796789 -1.42523,-2.014348 2.32698,-3.352767 2.41329,0.589628 1.27848,-1.842264 z m 1.32189,2.273247 3.91449,1.004073 -1.58802,2.288749 z m 53.32801,2.384867 c -0.57386,-0.02921 -1.13298,0.03977 -1.67742,0.206706 -0.73626,0.229555 -1.49631,0.686226 -2.27996,1.369942 -1.22446,1.068306 -1.89187,2.245392 -2.00247,3.531051 -0.10709,1.282606 0.33825,2.496099 1.33636,3.640087 0.98589,1.129993 2.12341,1.727399 3.41219,1.792139 1.29229,0.06168 2.55938,-0.449671 3.80132,-1.53324 1.25245,-1.092724 1.93272,-2.287019 2.0407,-3.582727 0.11104,-1.292209 -0.32777,-2.505044 -1.31671,-3.638537 -0.54636,-0.62622 -1.13024,-1.090428 -1.75132,-1.39268 -0.46482,-0.229092 -0.98579,-0.360034 -1.56269,-0.392741 z m -58.72613,0.842326 -2.07016,1.843298 -0.0956,6.15518 -3.01481,-3.38584 -1.53944,1.370459 6.78874,7.625374 1.53944,-1.370459 -2.05156,-2.304252 0.11421,-2.385901 5.28185,1.712557 1.99264,-1.773535 -7.17217,-1.960604 z m 58.71424,1.146183 c 0.78266,0.0072 1.45319,0.330787 2.01177,0.971 0.55857,0.640214 0.78896,1.341985 0.69091,2.105298 -0.095,0.766812 -0.58342,1.535072 -1.46503,2.304252 -0.8921,0.778337 -1.73586,1.163612 -2.53163,1.155485 -0.78921,-0.0077 -1.45394,-0.321287 -1.99419,-0.940511 -0.54026,-0.619223 -0.76238,-1.325202 -0.66559,-2.118217 0.10028,-0.796067 0.58616,-1.574201 1.45727,-2.334224 0.8851,-0.772233 1.71733,-1.15337 2.49649,-1.143083 z m 8.31422,5.153691 -6.042,8.125602 5.76708,4.288627 1.02682,-1.380278 -4.11345,-3.058728 5.01572,-6.745324 z m -78.90319,3.057694 -1.86862,1.122412 1.84743,10.799858 1.87431,-1.12603 -0.47129,-2.422074 3.49849,-2.101164 1.95802,1.529106 1.92236,-1.154452 z m 0.27078,2.615861 3.1564,2.52336 -2.38797,1.434021 z m 86.78334,0.0057 -4.6483,8.99635 6.38514,3.299023 0.78962,-1.528589 -4.55373,-2.352828 3.85868,-7.467761 z m -94.385456,1.454691 -1.919263,0.751892 1.465027,3.741374 -3.761527,1.472778 -1.465027,-3.74189 -1.919263,0.751892 3.722253,9.506913 1.919263,-0.751892 -1.627291,-4.156852 3.761011,-1.472262 1.627808,4.156336 1.919262,-0.751376 z m 103.392656,2.838587 -3.25975,9.675378 7.35872,2.478918 0.54932,-1.629874 -5.40535,-1.821078 0.88728,-2.633431 4.85759,1.636593 0.54932,-1.630392 -4.85759,-1.636075 0.72244,-2.145089 5.22035,1.758549 0.55139,-1.636593 z M 81.353174,72.851884 c -0.416442,0.0061 -0.937595,0.06961 -1.563212,0.190686 l -3.698999,0.715719 1.939933,10.023677 3.808036,-0.736906 c 0.74755,-0.14467 1.331438,-0.330868 1.750798,-0.558622 0.560078,-0.307006 0.982282,-0.665595 1.267106,-1.075387 0.377608,-0.541242 0.621144,-1.200856 0.730705,-1.97869 0.08956,-0.636824 0.05476,-1.367592 -0.104903,-2.192631 -0.181721,-0.938995 -0.443705,-1.706376 -0.785999,-2.302185 -0.343176,-0.600368 -0.76735,-1.081298 -1.272274,-1.442289 -0.504924,-0.360989 -1.068286,-0.571033 -1.689819,-0.630453 -0.115572,-0.01074 -0.242558,-0.01496 -0.381372,-0.01292 z m -0.320911,1.808675 c 0.394211,0.0088 0.736711,0.105588 1.027844,0.290422 0.291133,0.184834 0.545207,0.471561 0.762228,0.859895 0.217021,0.388335 0.400907,0.969698 0.550871,1.744597 0.149961,0.774898 0.200308,1.401226 0.150895,1.878955 -0.0503,0.47317 -0.165886,0.829289 -0.346749,1.067635 -0.176305,0.237464 -0.420974,0.42908 -0.733289,0.574642 -0.238352,0.112332 -0.639874,0.222894 -1.205094,0.332279 l -1.511019,0.292489 -1.285193,-6.638871 0.909505,-0.176217 c 0.82504,-0.159664 1.385041,-0.234946 1.680001,-0.225826 z m 130.520717,0.180868 c -0.41547,0.02336 -0.79736,0.09439 -1.14618,0.213423 -0.91484,0.308788 -1.65408,0.838916 -2.21744,1.590084 -0.56336,0.751167 -0.92389,1.65227 -1.08159,2.703711 -0.1453,0.968795 -0.0823,1.896059 0.18862,2.781742 0.2716,0.881093 0.76633,1.603148 1.48466,2.166276 0.71903,0.558537 1.60686,0.916998 2.66289,1.075387 0.83105,0.124644 1.67361,0.0918 2.52853,-0.09922 0.8602,-0.19492 1.53519,-0.467301 2.02416,-0.816487 l 0.60307,-4.021977 -4.39405,-0.658875 -0.25528,1.701189 2.33474,0.349849 -0.19172,1.281059 c -0.34343,0.192616 -0.74388,0.341334 -1.20096,0.446484 -0.45179,0.101253 -0.89126,0.119857 -1.31826,0.05581 -0.8632,-0.129466 -1.51649,-0.532458 -1.95957,-1.209229 -0.4424,-0.681362 -0.57352,-1.621099 -0.39378,-2.819466 0.16665,-1.11113 0.55408,-1.909993 1.1622,-2.396236 0.61272,-0.485554 1.36442,-0.661213 2.25516,-0.527617 0.58771,0.08815 1.0551,0.305912 1.40199,0.653707 0.35217,0.343894 0.56197,0.774688 0.62993,1.291911 l 2.08204,-0.07545 c -0.0629,-0.957773 -0.40909,-1.751258 -1.03766,-2.380734 -0.6233,-0.633378 -1.56135,-1.043966 -2.81481,-1.231966 -0.48211,-0.07231 -0.93123,-0.09675 -1.34669,-0.07338 z m 15.40836,0.216007 -7.52202,0.851111 1.14722,10.1446 7.71632,-0.872815 -0.19379,-1.708939 -5.66735,0.640788 -0.31213,-2.761072 5.09272,-0.576192 -0.19327,-1.70894 -5.09323,0.576192 -0.25425,-2.248958 5.47408,-0.619601 z m -122.7739,125.341186 -5.173845,8.80101 6.694165,3.93516 0.87126,-1.48259 -4.91701,-2.89078 1.40818,-2.3952 4.41886,2.59725 0.87178,-1.48259 -4.41885,-2.59778 1.14721,-1.9513 4.74907,2.79208 0.8754,-1.48932 z m 83.10449,0.0646 -1.34566,0.84232 c 0.14126,0.64557 0.0826,1.32595 -0.17621,2.04122 -0.26127,0.71134 -0.5643,1.27352 -0.90848,1.6862 l 0.94258,1.50534 c 0.65246,-0.78645 1.10424,-1.65273 1.35548,-2.59881 l 3.91397,6.25078 1.6583,-1.03818 z m -8.07341,4.54752 -1.50637,0.65836 -1.46348,7.71426 0.68627,1.56993 3.8287,-1.67277 0.82269,1.88257 1.73581,-0.75809 -0.82269,-1.88257 1.16169,-0.50746 -0.68833,-1.57614 -1.16169,0.50747 z m -63.57958,1.59732 c -0.60076,0.02 -1.12218,0.18779 -1.56425,0.50385 -0.43605,0.31342 -0.74809,0.71232 -0.93689,1.19682 -0.29332,0.75272 -0.25033,1.50467 0.1297,2.25568 0.27032,0.53386 0.87081,1.12899 1.80093,1.78542 0.72276,0.51085 1.18154,0.84888 1.37614,1.01441 0.28325,0.24492 0.45814,0.47305 0.52555,0.68368 0.0734,0.20799 0.0665,0.4241 -0.0212,0.64905 -0.13654,0.3504 -0.41388,0.59608 -0.8325,0.73691 -0.41262,0.13819 -0.92858,0.0871 -1.5472,-0.154 -0.584,-0.22757 -0.99173,-0.55593 -1.22318,-0.98495 -0.22712,-0.42734 -0.27458,-0.97687 -0.14262,-1.64796 l -1.93942,-0.54622 c -0.28924,1.11307 -0.22041,2.07432 0.20671,2.88354 0.42879,0.8049 1.24426,1.44134 2.44687,1.90996 0.82626,0.32201 1.56094,0.47656 2.204,0.46303 0.64476,-0.0178 1.2114,-0.20594 1.69964,-0.56379 0.48825,-0.35786 0.83869,-0.80937 1.0511,-1.35444 0.23431,-0.60131 0.30296,-1.15478 0.20619,-1.66088 -0.0908,-0.50874 -0.31551,-0.96774 -0.67438,-1.37666 -0.35286,-0.41156 -0.95352,-0.90975 -1.80195,-1.49449 -0.84844,-0.58474 -1.3542,-1.0257 -1.51722,-1.32343 -0.128,-0.23423 -0.14813,-0.46389 -0.0605,-0.68885 0.0961,-0.24658 0.27422,-0.40395 0.53485,-0.4718 0.40514,-0.10622 0.88683,-0.0506 1.44488,0.16691 0.54074,0.21072 0.90334,0.47656 1.08727,0.79737 0.18993,0.31817 0.23077,0.73745 0.12247,1.25832 l 1.95337,0.66404 c 0.31024,-0.88564 0.26472,-1.70811 -0.13694,-2.46755 -0.39734,-0.75776 -1.19297,-1.36925 -2.38693,-1.83451 -0.73109,-0.28488 -1.39945,-0.41779 -2.00453,-0.39946 z m 63.03956,1.89911 1.39681,3.19722 -2.15077,0.93948 z m -10.0273,0.78703 c -0.39586,-0.0119 -0.82581,0.0509 -1.29087,0.18914 -0.93904,0.2791 -1.59396,0.73285 -1.96422,1.36115 -0.36581,0.62699 -0.44017,1.30567 -0.22325,2.03554 0.12699,0.42723 0.35279,0.7885 0.678,1.08417 0.32834,0.2899 0.76561,0.46502 1.31155,0.52555 -0.49378,0.40831 -0.80609,0.87425 -0.93638,1.39733 -0.13161,0.51863 -0.11865,1.04292 0.0388,1.57251 0.28571,0.96129 0.86016,1.61385 1.72289,1.95802 0.73079,0.29136 1.54078,0.30487 2.43086,0.0403 0.95683,-0.28439 1.63873,-0.79482 2.04483,-1.53065 0.41056,-0.73716 0.48143,-1.55741 0.21291,-2.46084 -0.1627,-0.54739 -0.44867,-0.98768 -0.85783,-1.32136 -0.40471,-0.33503 -0.911,-0.5309 -1.51877,-0.58756 0.37169,-0.31391 0.62311,-0.68161 0.75448,-1.10329 0.13025,-0.42614 0.1282,-0.8664 -0.007,-1.32034 -0.21693,-0.72986 -0.65428,-1.25597 -1.31206,-1.57871 -0.32667,-0.16203 -0.68831,-0.24907 -1.08418,-0.26097 z m -44.06966,0.36845 -0.40824,1.67846 2.94349,0.71571 -2.00453,8.24239 2.00298,0.48731 2.00453,-8.24239 2.93677,0.71417 0.40824,-1.67793 z m 43.73377,1.24437 c 0.15494,0.0121 0.30033,0.056 0.43666,0.13178 0.2758,0.14568 0.46602,0.39411 0.57051,0.74569 0.11113,0.37383 0.0917,0.69958 -0.0584,0.97668 -0.15145,0.27266 -0.40516,0.46159 -0.7612,0.56741 -0.35158,0.10447 -0.66524,0.0842 -0.94102,-0.0615 -0.27134,-0.147 -0.4625,-0.40752 -0.57361,-0.78135 -0.10452,-0.35158 -0.0819,-0.66598 0.0682,-0.9431 0.15013,-0.2771 0.40536,-0.46904 0.76584,-0.57619 0.17357,-0.0516 0.33805,-0.0715 0.493,-0.0594 z m -9.24078,0.6041 -1.5658,0.262 c -0.11708,0.65039 -0.4324,1.2566 -0.94568,1.81798 -0.51404,0.55679 -1.00907,0.95954 -1.48518,1.20871 l 0.29301,1.75131 c 0.90414,-0.47616 1.65364,-1.10255 2.24844,-1.87999 l 1.21801,7.27346 1.93012,-0.32298 z m -23.26008,0.66404 -0.92656,10.16734 3.86281,0.35243 c 0.75828,0.0691 1.3704,0.0524 1.83658,-0.0496 0.6234,-0.13898 1.12907,-0.36574 1.51671,-0.68006 0.51333,-0.41475 0.9309,-0.98045 1.25263,-1.69705 0.26328,-0.58673 0.43325,-1.29839 0.50953,-2.13527 0.0868,-0.95247 0.0487,-1.76229 -0.1142,-2.42983 -0.16251,-0.67216 -0.43613,-1.25216 -0.82062,-1.73943 -0.3845,-0.48726 -0.86702,-0.84583 -1.44746,-1.0759 -0.43207,-0.16992 -1.07107,-0.29339 -1.9172,-0.37052 z m 1.89601,1.90738 0.92242,0.0842 c 0.83688,0.0763 1.39562,0.15977 1.67639,0.25063 0.37617,0.11821 0.67874,0.30626 0.90692,0.56483 0.22818,0.25856 0.39212,0.60478 0.49247,1.03818 0.10038,0.43339 0.11506,1.04281 0.0434,1.82883 -0.0717,0.78601 -0.19784,1.40181 -0.37827,1.84691 -0.18001,0.44047 -0.38988,0.75004 -0.62994,0.92863 -0.23543,0.17902 -0.52354,0.29491 -0.86403,0.34778 -0.2602,0.0415 -0.67723,0.0363 -1.25057,-0.016 l -1.53272,-0.13953 z m 31.55776,0.68213 c 0.28682,-0.028 0.55833,0.0343 0.81442,0.18707 0.34013,0.1992 0.57792,0.52811 0.71417,0.9865 0.15607,0.52515 0.14915,0.96559 -0.0212,1.32137 -0.17166,0.35132 -0.451,0.5841 -0.83819,0.69918 -0.39608,0.11772 -0.77096,0.0719 -1.12396,-0.13798 -0.34855,-0.21123 -0.59949,-0.57516 -0.75293,-1.0914 -0.1098,-0.36938 -0.10018,-0.74495 0.0284,-1.12707 0.13306,-0.38344 0.4289,-0.64355 0.88729,-0.77979 0.099,-0.0294 0.19636,-0.0485 0.29197,-0.0579 z" /></g></g><metadata
     id="metadata1"><rdf:RDF><cc:Work
         rdf:about=""><dc:title>Dhaka College - ঢাকা কলেজ</dc:title></cc:Work></rdf:RDF></metadata></svg>
