<svg version="1.1" id="Layer_1" xmlns="http://www.w3.org/2000/svg" xmlns:xlink="http://www.w3.org/1999/xlink" x="0px" y="0px"
	 width="100%" viewBox="0 0 1080 1080" enable-background="new 0 0 1080 1080" xml:space="preserve">
<path fill="#FFFFFF" opacity="1.000000" stroke="none" 
	d="
M601.000000,1081.000000 
	C400.689728,1081.000000 200.879456,1081.000000 1.034590,1081.000000 
	C1.034590,721.064575 1.034590,361.129211 1.034590,1.096903 
	C360.893829,1.096903 720.787659,1.096903 1080.840820,1.096903 
	C1080.840820,360.999939 1080.840820,720.999939 1080.840820,1081.000000 
	C921.128723,1081.000000 761.314392,1081.000000 601.000000,1081.000000 
M505.188843,651.155457 
	C505.046509,651.012573 504.904175,650.869751 504.789032,649.864685 
	C507.830688,623.329712 509.826019,596.821045 504.086456,570.334839 
	C503.640442,568.276550 504.727570,565.452881 505.959442,563.535767 
	C513.051086,552.499817 520.401062,541.629822 528.029053,530.153687 
	C519.565979,522.948914 511.200623,516.106567 503.164459,508.897217 
	C496.811432,503.197784 490.264313,501.389648 482.208405,505.209137 
	C478.878174,506.788025 474.941620,507.087982 471.280823,507.969635 
	C470.766632,507.174133 470.252441,506.378662 469.738251,505.583160 
	C472.212402,504.280121 474.686523,502.977081 477.160645,501.674042 
	C462.144958,498.275574 425.489624,525.277771 425.079163,542.889587 
	C432.888916,540.003357 436.849792,532.814880 443.121796,527.850952 
	C445.047638,532.293457 446.659485,536.276611 448.480103,540.161987 
	C454.047607,552.044006 453.989838,563.788574 448.563080,575.793213 
	C445.697815,582.131531 443.393646,588.792053 441.571411,595.506592 
	C440.544281,599.291321 441.010834,603.481445 440.752869,608.492249 
	C437.118011,611.382568 432.902222,634.496704 435.595215,640.189270 
	C433.467987,638.986938 431.024750,637.611145 430.253571,635.595520 
	C428.126465,630.035828 425.925446,624.313904 425.129120,618.468750 
	C421.805542,594.073181 418.606995,569.646606 416.161896,545.151672 
	C415.112335,534.637024 415.433502,523.883545 416.237488,513.322815 
	C416.747040,506.629486 419.637604,500.153229 420.844940,493.468475 
	C422.469177,484.475433 423.409668,475.361176 424.815826,466.325745 
	C425.854187,459.653900 427.167664,453.024872 428.386292,446.221893 
	C414.417358,450.800568 401.104767,454.906830 387.969421,459.518158 
	C349.712311,472.948883 311.748657,487.266357 273.201508,499.794952 
	C257.986298,504.740234 250.629059,513.513428 247.789597,528.583801 
	C242.986542,554.075989 238.028015,579.590088 231.641373,604.715393 
	C227.025803,622.873230 223.461197,640.917664 222.689636,659.680542 
	C221.627029,685.521240 220.903610,711.188538 212.446198,736.454529 
	C205.586533,756.947327 203.443161,779.008728 199.060944,800.344299 
	C195.950500,815.487915 192.141739,830.502075 189.484344,845.720642 
	C187.117706,859.274109 185.988266,873.040283 184.144547,886.689880 
	C183.305450,892.901794 181.520233,899.025146 181.130737,905.249146 
	C180.590546,913.881470 181.491501,922.611328 180.832626,931.227417 
	C179.363205,950.443054 187.111465,967.347900 193.093552,984.794373 
	C412.179657,984.794373 631.060852,984.794373 850.054321,984.794373 
	C850.115845,983.448853 850.201050,982.463013 850.200439,981.477173 
	C850.137512,870.989441 850.136841,760.501587 849.878113,650.014343 
	C849.855713,640.433655 848.748352,630.745178 847.046631,621.304810 
	C844.544128,607.421753 840.785522,593.769775 838.050171,579.922974 
	C834.764648,563.290955 832.194458,546.517700 828.911316,529.885132 
	C827.257385,521.506775 822.671631,514.686279 814.627258,511.118073 
	C798.520508,503.973541 782.625122,496.120300 766.006226,490.412292 
	C734.264160,479.509888 702.217712,469.426910 670.028320,459.915161 
	C645.129272,452.557617 622.182739,442.617432 605.664124,421.520752 
	C604.086365,419.505737 602.342346,417.620941 600.675537,415.675690 
	C599.494812,424.058685 600.588440,431.842896 599.262390,439.190369 
	C596.668640,453.561859 593.054810,467.779419 589.220337,481.885956 
	C586.750732,490.971222 584.017334,500.180756 579.867432,508.576019 
	C568.005310,532.573364 555.380981,556.194458 543.015625,579.942383 
	C530.574036,603.836609 518.083496,627.705383 505.188843,651.155457 
M621.109802,298.226501 
	C621.111023,302.170471 619.888245,303.185883 615.927551,301.318909 
	C613.412048,300.133179 610.164429,300.185150 607.258423,300.253021 
	C605.277527,300.299286 603.319702,301.332306 601.046082,302.015991 
	C601.046082,297.965912 600.911438,294.480194 601.086121,291.010071 
	C601.242004,287.913879 602.459106,286.266571 606.139465,285.555420 
	C609.093445,284.984589 612.464233,282.458130 614.020752,279.833282 
	C615.869324,276.716064 616.274475,272.605072 616.779724,268.853912 
	C618.511841,255.994034 619.926025,243.091568 621.627258,230.227264 
	C623.501343,216.055740 626.674927,201.964462 624.000916,187.553452 
	C621.907532,176.272522 619.980591,164.949722 617.413635,153.775558 
	C616.789124,151.056763 614.334412,148.357666 612.031372,146.508713 
	C607.254028,142.673279 601.863953,139.609680 596.997803,135.874283 
	C588.612366,129.437332 582.770813,121.975914 588.835815,110.751297 
	C588.912598,110.609215 588.922546,110.430702 588.961914,110.268761 
	C589.780518,106.900520 588.458008,104.987411 584.995972,105.065865 
	C583.049011,105.109985 580.826294,105.287361 579.233154,106.245186 
	C575.103027,108.728256 571.306702,107.929375 567.381104,106.027504 
	C564.088379,104.432289 560.805481,102.804985 557.442871,101.368134 
	C548.583557,97.582520 539.354248,95.261971 529.749817,97.103409 
	C524.600708,98.090637 519.670654,100.313637 514.708191,102.157814 
	C508.217224,104.570045 506.522400,103.801613 504.511627,97.332634 
	C503.974976,95.605988 503.382812,93.804398 502.381134,92.333412 
	C500.215149,89.152512 498.790375,89.519745 496.865265,92.765213 
	C496.015015,94.198616 494.060272,95.693535 492.495636,95.823868 
	C489.947205,96.036140 486.976837,95.773201 484.774323,94.601799 
	C480.035675,92.081543 475.758850,92.806541 471.519653,95.252068 
	C466.766388,97.994141 462.128265,100.938187 457.472412,103.846214 
	C448.390076,109.519051 447.785767,109.451012 441.130981,101.302200 
	C440.621368,100.678154 440.444183,99.782661 440.112488,99.013336 
	C440.229370,99.722847 440.346283,100.432358 440.463165,101.141861 
	C435.657806,104.845833 430.852448,108.549805 426.047089,112.253777 
	C426.356903,112.801407 426.666687,113.349045 426.976471,113.896675 
	C429.058533,114.409241 431.140594,114.921814 433.285706,115.449898 
	C433.024689,116.255920 433.004913,116.831856 432.709106,117.155579 
	C424.873444,125.730667 416.726349,134.040756 409.237610,142.907272 
	C403.010345,150.280334 391.698059,153.184814 390.105408,164.605240 
	C390.085724,164.746323 389.920807,164.882385 389.797791,164.991623 
	C386.141479,168.239090 386.802673,172.112946 389.230103,175.316650 
	C392.104919,179.110886 395.554047,182.582809 399.229523,185.619141 
	C401.820587,187.759613 402.340240,189.821396 401.783173,192.903839 
	C400.511597,199.940598 399.112396,206.996750 398.532013,214.107635 
	C397.063141,232.104202 396.186798,250.442581 402.548157,267.504883 
	C407.378601,280.461060 406.648560,293.212677 406.672333,306.303375 
	C406.700684,321.928894 406.026123,337.693207 407.824066,353.145081 
	C410.384857,375.153107 418.564514,395.544006 429.848999,414.734192 
	C434.722656,423.022247 439.894135,431.733917 441.872681,440.912262 
	C443.162659,446.896454 444.226776,452.724365 447.883484,457.216583 
	C455.946564,467.122009 464.799286,476.383911 473.310120,485.925934 
	C479.517578,492.885529 486.957520,493.751709 495.037842,489.984039 
	C522.699890,477.085815 547.772217,460.290466 570.084229,439.444519 
	C572.153137,437.511597 573.686768,435.005829 575.468994,432.766052 
	C575.179871,432.502045 574.890686,432.238007 574.601562,431.973969 
	C572.006958,433.786987 569.412354,435.599976 566.817749,437.412994 
	C566.354065,437.198029 565.890381,436.983093 565.426636,436.768158 
	C565.736267,434.697876 565.501526,432.305115 566.489807,430.636841 
	C567.802246,428.421265 569.852112,426.475037 571.963074,424.929260 
	C580.593933,418.609283 586.564026,410.405609 589.658752,400.224823 
	C592.317017,391.479950 595.164978,382.734955 596.940857,373.793732 
	C599.397644,361.424347 600.921631,348.869965 602.858765,336.396942 
	C603.444641,332.625183 604.553040,328.747559 608.836670,328.269409 
	C610.529907,328.080444 612.527832,330.621765 614.887817,332.269623 
	C615.815552,331.245209 617.671570,329.891083 618.588989,328.065338 
	C623.199280,318.890656 627.824646,309.704315 631.865723,300.273895 
	C633.171814,297.225922 633.078247,293.408752 632.937744,289.971497 
	C632.848206,287.781036 632.082703,284.951660 630.559448,283.656494 
	C628.689880,282.066895 625.725952,281.295013 623.208252,281.231354 
	C622.479614,281.212952 621.167297,284.798126 620.989563,286.807983 
	C620.683350,290.269257 621.057251,293.790680 621.109802,298.226501 
M390.835602,284.873566 
	C391.486725,283.513092 392.137878,282.152618 392.959015,280.436920 
	C388.403625,279.744080 385.855377,281.160431 385.489929,284.994171 
	C384.590729,294.427185 386.568665,303.276123 390.636719,310.543335 
	C390.567657,302.765808 390.491394,294.175354 390.835602,284.873566 
z"/>
<path fill="#7800FF" opacity="1.000000" stroke="none" 
	d="
M505.614441,651.585327 
	C518.083496,627.705383 530.574036,603.836609 543.015625,579.942383 
	C555.380981,556.194458 568.005310,532.573364 579.867432,508.576019 
	C584.017334,500.180756 586.750732,490.971222 589.220337,481.885956 
	C593.054810,467.779419 596.668640,453.561859 599.262390,439.190369 
	C600.588440,431.842896 599.494812,424.058685 600.675537,415.675690 
	C602.342346,417.620941 604.086365,419.505737 605.664124,421.520752 
	C622.182739,442.617432 645.129272,452.557617 670.028320,459.915161 
	C702.217712,469.426910 734.264160,479.509888 766.006226,490.412292 
	C782.625122,496.120300 798.520508,503.973541 814.627258,511.118073 
	C822.671631,514.686279 827.257385,521.506775 828.911316,529.885132 
	C832.194458,546.517700 834.764648,563.290955 838.050171,579.922974 
	C840.785522,593.769775 844.544128,607.421753 847.046631,621.304810 
	C848.748352,630.745178 849.855713,640.433655 849.878113,650.014343 
	C850.136841,760.501587 850.137512,870.989441 850.200439,981.477173 
	C850.201050,982.463013 850.115845,983.448853 850.054321,984.794373 
	C631.060852,984.794373 412.179657,984.794373 193.093552,984.794373 
	C187.111465,967.347900 179.363205,950.443054 180.832626,931.227417 
	C181.491501,922.611328 180.590546,913.881470 181.130737,905.249146 
	C181.520233,899.025146 183.305450,892.901794 184.144547,886.689880 
	C185.988266,873.040283 187.117706,859.274109 189.484344,845.720642 
	C192.141739,830.502075 195.950500,815.487915 199.060944,800.344299 
	C203.443161,779.008728 205.586533,756.947327 212.446198,736.454529 
	C220.903610,711.188538 221.627029,685.521240 222.689636,659.680542 
	C223.461197,640.917664 227.025803,622.873230 231.641373,604.715393 
	C238.028015,579.590088 242.986542,554.075989 247.789597,528.583801 
	C250.629059,513.513428 257.986298,504.740234 273.201508,499.794952 
	C311.748657,487.266357 349.712311,472.948883 387.969421,459.518158 
	C401.104767,454.906830 414.417358,450.800568 428.386292,446.221893 
	C427.167664,453.024872 425.854187,459.653900 424.815826,466.325745 
	C423.409668,475.361176 422.469177,484.475433 420.844940,493.468475 
	C419.637604,500.153229 416.747040,506.629486 416.237488,513.322815 
	C415.433502,523.883545 415.112335,534.637024 416.161896,545.151672 
	C418.606995,569.646606 421.805542,594.073181 425.129120,618.468750 
	C425.925446,624.313904 428.126465,630.035828 430.253571,635.595520 
	C431.024750,637.611145 433.467987,638.986938 435.595215,640.189270 
	C432.902222,634.496704 437.118011,611.382568 440.752869,608.492249 
	C441.010834,603.481445 440.544281,599.291321 441.571411,595.506592 
	C443.393646,588.792053 445.697815,582.131531 448.563080,575.793213 
	C453.989838,563.788574 454.047607,552.044006 448.480103,540.161987 
	C446.659485,536.276611 445.047638,532.293457 443.121796,527.850952 
	C436.849792,532.814880 432.888916,540.003357 425.079163,542.889587 
	C425.489624,525.277771 462.144958,498.275574 477.160645,501.674042 
	C474.686523,502.977081 472.212402,504.280121 469.738251,505.583160 
	C470.252441,506.378662 470.766632,507.174133 471.280823,507.969635 
	C474.941620,507.087982 478.878174,506.788025 482.208405,505.209137 
	C490.264313,501.389648 496.811432,503.197784 503.164459,508.897217 
	C511.200623,516.106567 519.565979,522.948914 528.029053,530.153687 
	C520.401062,541.629822 513.051086,552.499817 505.959442,563.535767 
	C504.727570,565.452881 503.640442,568.276550 504.086456,570.334839 
	C509.826019,596.821045 507.830688,623.329712 504.357178,650.316467 
	C493.679718,650.125793 483.438721,649.393860 473.187103,648.869812 
	C465.287445,648.465942 465.565277,648.480408 462.839020,640.873352 
	C460.718414,634.956299 459.254211,628.446411 453.137939,624.530884 
	C452.734314,624.389526 452.456848,624.459778 452.179382,624.530029 
	C452.397919,624.740295 452.616455,624.950562 452.882507,625.504944 
	C460.557587,636.444031 462.176727,642.280945 458.538452,647.405579 
	C456.611298,645.927307 454.694489,644.456970 452.318909,642.634766 
	C452.537354,644.395813 452.685425,645.589661 452.872009,647.093933 
	C447.752716,646.508545 442.942810,645.958496 438.132935,645.408447 
	C437.997498,644.998657 437.862061,644.588928 437.726654,644.179138 
	C440.831146,643.186462 443.935608,642.193787 446.969574,641.223694 
	C441.097931,639.294189 436.401611,642.835510 431.472046,644.964661 
	C429.802521,645.685608 428.637848,647.575500 427.242432,648.931152 
	C428.909790,649.998718 430.495575,651.820312 432.257751,652.010925 
	C443.335876,653.209167 454.459747,653.975464 465.555298,655.024292 
	C472.799316,655.709106 480.084930,656.268616 487.236847,657.534485 
	C496.662750,659.202881 501.475555,657.925659 505.614441,651.585327 
M499.062439,536.615784 
	C498.873474,536.913635 498.684509,537.211548 498.006287,538.021484 
	C495.964020,541.122253 495.077942,544.217224 498.233429,547.832764 
	C499.551056,546.672058 500.702881,545.657410 501.854706,544.642761 
	C501.299744,544.576050 500.744781,544.509277 500.189850,544.442566 
	C499.843079,542.343689 499.496307,540.244751 499.634949,537.994507 
	C499.810394,537.714905 499.985809,537.435364 500.638947,536.994995 
	C500.811340,536.716919 500.983734,536.438904 501.827484,535.951721 
	C504.444061,534.433105 507.060608,532.914490 510.485657,530.926636 
	C505.608917,529.076050 501.643616,527.571350 499.289978,526.678223 
	C495.685089,531.650879 493.202850,535.074951 490.720612,538.499023 
	C491.252899,538.890442 491.785187,539.281921 492.317474,539.673401 
	C493.747833,537.907959 495.022064,535.979004 496.652435,534.423218 
	C498.278992,532.870972 500.262451,531.692688 502.089478,530.350464 
	C502.397552,530.730957 502.705627,531.111389 503.013702,531.491882 
	C502.102631,532.814453 501.191559,534.137024 499.975189,535.692688 
	C499.779907,535.863342 499.611328,536.057190 499.062439,536.615784 
M495.780334,583.861023 
	C497.005432,583.014954 498.230560,582.168884 499.156494,581.529419 
	C498.802948,579.782410 498.451263,578.044556 498.099579,576.306641 
	C496.837067,580.898071 488.273193,578.293152 488.839539,585.051208 
	C491.377350,585.756104 493.498596,586.345276 495.753326,586.971558 
	C495.753326,586.260864 495.753326,585.474426 495.780334,583.861023 
M472.930786,670.572510 
	C470.707184,674.072693 468.483612,677.572815 466.260040,681.072937 
	C466.776489,681.394226 467.292908,681.715515 467.809326,682.036865 
	C470.069153,678.478088 472.345428,674.929321 474.527313,671.323425 
	C474.612396,671.182922 473.794220,670.495789 472.930786,670.572510 
M497.085205,591.465515 
	C495.560974,591.189270 494.036743,590.912964 492.511169,590.636475 
	C493.326538,592.486328 493.984222,593.978455 494.954681,596.180237 
	C496.182861,595.733154 498.167419,595.010803 500.867676,594.027893 
	C499.273376,592.894531 498.501282,592.345703 497.085205,591.465515 
M493.062439,567.557861 
	C493.414032,566.583618 493.765594,565.609436 494.536835,563.472412 
	C490.691406,565.729614 487.932190,567.349304 485.172943,568.968933 
	C485.404541,569.453796 485.636139,569.938660 485.867737,570.423523 
	C488.089447,569.646179 490.311127,568.868896 493.062439,567.557861 
z"/>
<path fill="#7902FF" opacity="1.000000" stroke="none" 
	d="
M621.127808,297.756683 
	C621.057251,293.790680 620.683350,290.269257 620.989563,286.807983 
	C621.167297,284.798126 622.479614,281.212952 623.208252,281.231354 
	C625.725952,281.295013 628.689880,282.066895 630.559448,283.656494 
	C632.082703,284.951660 632.848206,287.781036 632.937744,289.971497 
	C633.078247,293.408752 633.171814,297.225922 631.865723,300.273895 
	C627.824646,309.704315 623.199280,318.890656 618.588989,328.065338 
	C617.671570,329.891083 615.815552,331.245209 614.887817,332.269623 
	C612.527832,330.621765 610.529907,328.080444 608.836670,328.269409 
	C604.553040,328.747559 603.444641,332.625183 602.858765,336.396942 
	C600.921631,348.869965 599.397644,361.424347 596.940857,373.793732 
	C595.164978,382.734955 592.317017,391.479950 589.658752,400.224823 
	C586.564026,410.405609 580.593933,418.609283 571.963074,424.929260 
	C569.852112,426.475037 567.802246,428.421265 566.489807,430.636841 
	C565.501526,432.305115 565.736267,434.697876 565.426636,436.768158 
	C565.890381,436.983093 566.354065,437.198029 566.817749,437.412994 
	C569.412354,435.599976 572.006958,433.786987 574.601562,431.973969 
	C574.890686,432.238007 575.179871,432.502045 575.468994,432.766052 
	C573.686768,435.005829 572.153137,437.511597 570.084229,439.444519 
	C547.772217,460.290466 522.699890,477.085815 495.037842,489.984039 
	C486.957520,493.751709 479.517578,492.885529 473.310120,485.925934 
	C464.799286,476.383911 455.946564,467.122009 447.883484,457.216583 
	C444.226776,452.724365 443.162659,446.896454 441.872681,440.912262 
	C439.894135,431.733917 434.722656,423.022247 429.848999,414.734192 
	C418.564514,395.544006 410.384857,375.153107 407.824066,353.145081 
	C406.026123,337.693207 406.700684,321.928894 406.672333,306.303375 
	C406.648560,293.212677 407.378601,280.461060 402.548157,267.504883 
	C396.186798,250.442581 397.063141,232.104202 398.532013,214.107635 
	C399.112396,206.996750 400.511597,199.940598 401.783173,192.903839 
	C402.340240,189.821396 401.820587,187.759613 399.229523,185.619141 
	C395.554047,182.582809 392.104919,179.110886 389.230103,175.316650 
	C386.802673,172.112946 386.141479,168.239090 389.797791,164.991623 
	C389.920807,164.882385 390.085724,164.746323 390.105408,164.605240 
	C391.698059,153.184814 403.010345,150.280334 409.237610,142.907272 
	C416.726349,134.040756 424.873444,125.730667 432.709106,117.155579 
	C433.004913,116.831856 433.024689,116.255920 433.285706,115.449898 
	C431.140594,114.921814 429.058533,114.409241 426.976471,113.896675 
	C426.666687,113.349045 426.356903,112.801407 426.047089,112.253777 
	C430.852448,108.549805 435.657806,104.845833 440.463165,101.141861 
	C440.346283,100.432358 440.229370,99.722847 440.112488,99.013336 
	C440.444183,99.782661 440.621368,100.678154 441.130981,101.302200 
	C447.785767,109.451012 448.390076,109.519051 457.472412,103.846214 
	C462.128265,100.938187 466.766388,97.994141 471.519653,95.252068 
	C475.758850,92.806541 480.035675,92.081543 484.774323,94.601799 
	C486.976837,95.773201 489.947205,96.036140 492.495636,95.823868 
	C494.060272,95.693535 496.015015,94.198616 496.865265,92.765213 
	C498.790375,89.519745 500.215149,89.152512 502.381134,92.333412 
	C503.382812,93.804398 503.974976,95.605988 504.511627,97.332634 
	C506.522400,103.801613 508.217224,104.570045 514.708191,102.157814 
	C519.670654,100.313637 524.600708,98.090637 529.749817,97.103409 
	C539.354248,95.261971 548.583557,97.582520 557.442871,101.368134 
	C560.805481,102.804985 564.088379,104.432289 567.381104,106.027504 
	C571.306702,107.929375 575.103027,108.728256 579.233154,106.245186 
	C580.826294,105.287361 583.049011,105.109985 584.995972,105.065865 
	C588.458008,104.987411 589.780518,106.900520 588.961914,110.268761 
	C588.922546,110.430702 588.912598,110.609215 588.835815,110.751297 
	C582.770813,121.975914 588.612366,129.437332 596.997803,135.874283 
	C601.863953,139.609680 607.254028,142.673279 612.031372,146.508713 
	C614.334412,148.357666 616.789124,151.056763 617.413635,153.775558 
	C619.980591,164.949722 621.907532,176.272522 624.000916,187.553452 
	C626.674927,201.964462 623.501343,216.055740 621.627258,230.227264 
	C619.926025,243.091568 618.511841,255.994034 616.779724,268.853912 
	C616.274475,272.605072 615.869324,276.716064 614.020752,279.833282 
	C612.464233,282.458130 609.093445,284.984589 606.139465,285.555420 
	C602.459106,286.266571 601.242004,287.913879 601.086121,291.010071 
	C600.911438,294.480194 601.046082,297.965912 601.046082,302.015991 
	C603.319702,301.332306 605.277527,300.299286 607.258423,300.253021 
	C610.164429,300.185150 613.412048,300.133179 615.927551,301.318909 
	C619.888245,303.185883 621.111023,302.170471 621.127808,297.756683 
M550.843506,392.808014 
	C550.171936,392.388641 549.380554,392.082581 548.853943,391.526031 
	C547.788391,390.399811 546.841980,389.156647 545.891724,387.926697 
	C544.857239,386.587738 543.172974,385.289246 543.006470,383.832062 
	C542.587280,380.163879 540.758118,378.502106 537.294373,378.114807 
	C535.646118,377.930511 533.990417,377.681793 532.383240,377.281250 
	C515.229675,373.006348 497.806915,372.460419 480.339508,374.114105 
	C475.425079,374.579346 470.951904,376.000031 466.071472,373.314575 
	C461.035217,370.543365 458.596527,372.067047 457.098053,377.754303 
	C456.202454,381.153534 455.403870,384.578308 454.561646,387.991608 
	C453.104584,387.068237 452.853149,386.345093 452.662231,385.606293 
	C450.678864,377.932587 448.521271,370.296356 446.837646,362.557129 
	C446.311768,360.139709 446.267517,357.003052 447.387238,354.951080 
	C451.677521,347.088593 456.430450,339.469269 461.250977,331.912476 
	C462.332123,330.217621 464.385040,329.142700 465.990601,327.782410 
	C466.382111,328.137573 466.773590,328.492767 467.165070,328.847961 
	C465.812653,331.612061 464.737823,334.561890 463.042145,337.096344 
	C460.552521,340.817474 457.433594,344.118683 454.960175,347.849030 
	C453.868744,349.495148 453.703796,351.755524 453.118256,353.737061 
	C455.007294,353.775726 456.968353,354.165283 458.773438,353.794922 
	C468.849335,351.727417 478.895752,349.512329 488.924408,347.225677 
	C489.823425,347.020660 490.790741,346.096191 491.269257,345.247986 
	C493.033813,342.120239 497.185577,341.123322 499.895599,343.311066 
	C512.802490,353.730652 528.503662,357.283508 544.097229,360.813416 
	C547.730042,361.635712 548.648071,362.815826 547.963989,365.958679 
	C547.292603,369.042816 545.990906,372.071075 545.851562,375.163788 
	C545.741516,377.606812 546.367676,380.630615 547.860962,382.373108 
	C548.636780,383.278259 552.071289,382.208832 554.171753,381.584076 
	C556.054077,381.024231 557.667847,379.530457 559.554626,379.023590 
	C562.464294,378.241882 565.505798,377.950958 568.768616,377.405518 
	C568.693970,377.047394 568.412964,375.699402 568.216797,374.758301 
	C570.563904,373.806549 572.515381,373.015228 573.229675,372.725586 
	C575.890564,374.637115 578.045410,376.185150 579.040833,376.900238 
	C581.757874,373.302887 583.620850,370.798828 585.535400,368.334869 
	C585.892151,367.875824 586.732056,367.666107 586.883606,367.192444 
	C589.633606,358.598816 593.463196,350.153107 594.771179,341.335907 
	C597.671692,321.783783 595.859863,302.086548 593.419617,282.589874 
	C592.021790,271.421387 588.432129,260.529114 587.001770,249.362305 
	C585.189209,235.211548 584.747864,220.890533 583.352539,206.678558 
	C582.707153,200.105316 580.221191,193.592850 580.377014,187.096176 
	C580.519470,181.158722 578.216736,178.755188 573.208557,177.867279 
	C559.982422,175.522415 546.789795,172.756180 533.458435,171.329865 
	C526.176575,170.550766 518.154480,170.683228 511.308075,172.948730 
	C489.280731,180.237686 466.799927,183.482742 443.735107,183.515518 
	C442.462494,183.517334 440.859711,183.319244 439.978119,182.557419 
	C437.396088,180.326096 435.399628,181.617493 433.312256,183.152344 
	C425.302643,189.041870 421.080200,197.322205 420.016998,206.850723 
	C417.991241,225.005844 416.026276,243.207260 415.161041,261.442810 
	C413.954285,286.876556 414.381989,312.394684 412.887085,337.804779 
	C412.225922,349.043060 415.464417,357.070770 424.508514,363.045044 
	C428.877136,365.930817 433.224365,369.265778 438.085449,370.860901 
	C442.164764,372.199463 443.654022,373.863586 444.027222,377.933411 
	C444.463959,382.696014 445.540833,387.428284 446.688324,392.087921 
	C447.523499,395.479340 449.400909,397.147797 452.652588,394.039520 
	C453.177063,393.538208 453.978882,393.326904 455.231171,392.684814 
	C455.501312,395.654541 455.475494,398.155945 455.988922,400.541229 
	C458.439514,411.925537 463.088318,418.117126 474.906799,415.310547 
	C479.911469,414.122040 484.996918,413.231445 490.083862,412.456299 
	C491.693726,412.210968 493.897247,412.184479 495.024567,413.075623 
	C500.378540,417.307800 506.510986,417.788727 512.906372,417.634308 
	C515.026794,417.583099 517.555298,417.112488 519.198425,418.053680 
	C523.184143,420.336578 526.672668,419.369690 529.986938,417.271240 
	C534.953369,414.126831 539.744934,410.696503 544.516602,407.256927 
	C549.302307,403.807159 550.927795,398.558990 552.651550,392.905304 
	C552.642212,392.647644 552.632874,392.390015 552.623535,392.132324 
	C552.261475,392.263794 551.899414,392.395233 550.843506,392.808014 
M482.770813,482.713684 
	C484.552399,483.091705 486.594604,484.204468 488.058014,483.685425 
	C490.618347,482.777344 493.927795,481.337067 494.825806,479.227081 
	C495.537842,477.553986 493.706085,473.879272 491.930817,472.298126 
	C489.688141,470.300781 486.453186,469.215424 483.474762,468.286835 
	C476.505615,466.114014 469.441071,464.243988 462.396240,462.320618 
	C461.390717,462.046082 460.279968,462.156769 459.217926,462.089203 
	C458.933441,462.482452 458.648987,462.875732 458.364502,463.269012 
	C463.369659,468.232788 468.172729,473.428162 473.472961,478.053864 
	C475.806335,480.090302 479.150940,480.968048 482.770813,482.713684 
M501.866669,360.949127 
	C492.809021,360.554108 483.659668,358.166321 473.796448,361.722778 
	C481.211456,362.268433 487.573792,362.934906 493.950165,363.120636 
	C497.052551,363.210999 500.182617,362.413422 503.292816,361.966644 
	C503.429840,361.946960 503.493530,361.416382 503.591370,361.123779 
	C503.266602,361.071381 502.941864,361.018982 501.866669,360.949127 
M606.031555,316.410950 
	C604.555725,314.082703 603.079895,311.754425 601.604065,309.426178 
	C600.335022,314.654968 599.736206,319.315247 605.112671,324.006561 
	C605.632263,320.855988 605.942261,318.976257 606.031555,316.410950 
z"/>
<path fill="#861BFF" opacity="1.000000" stroke="none" 
	d="
M390.625366,285.229248 
	C390.491394,294.175354 390.567657,302.765808 390.636719,310.543335 
	C386.568665,303.276123 384.590729,294.427185 385.489929,284.994171 
	C385.855377,281.160431 388.403625,279.744080 392.959015,280.436920 
	C392.137878,282.152618 391.486725,283.513092 390.625366,285.229248 
z"/>
<path fill="#FFFFFF" opacity="1.000000" stroke="none" 
	d="
M505.401642,651.370361 
	C501.475555,657.925659 496.662750,659.202881 487.236847,657.534485 
	C480.084930,656.268616 472.799316,655.709106 465.555298,655.024292 
	C454.459747,653.975464 443.335876,653.209167 432.257751,652.010925 
	C430.495575,651.820312 428.909790,649.998718 427.242432,648.931152 
	C428.637848,647.575500 429.802521,645.685608 431.472046,644.964661 
	C436.401611,642.835510 441.097931,639.294189 446.969574,641.223694 
	C443.935608,642.193787 440.831146,643.186462 437.726654,644.179138 
	C437.862061,644.588928 437.997498,644.998657 438.132935,645.408447 
	C442.942810,645.958496 447.752716,646.508545 452.872009,647.093933 
	C452.685425,645.589661 452.537354,644.395813 452.318909,642.634766 
	C454.694489,644.456970 456.611298,645.927307 458.538452,647.405579 
	C462.176727,642.280945 460.557587,636.444031 452.989502,625.400085 
	C453.048981,624.951111 453.264038,624.742432 453.264038,624.742432 
	C459.254211,628.446411 460.718414,634.956299 462.839020,640.873352 
	C465.565277,648.480408 465.287445,648.465942 473.187103,648.869812 
	C483.438721,649.393860 493.679718,650.125793 504.343567,650.747559 
	C504.904175,650.869751 505.046509,651.012573 505.401642,651.370361 
z"/>
<path fill="#F1E5FF" opacity="1.000000" stroke="none" 
	d="
M500.280518,535.459595 
	C501.191559,534.137024 502.102631,532.814453 503.013702,531.491882 
	C502.705627,531.111389 502.397552,530.730957 502.089478,530.350464 
	C500.262451,531.692688 498.278992,532.870972 496.652435,534.423218 
	C495.022064,535.979004 493.747833,537.907959 492.317474,539.673401 
	C491.785187,539.281921 491.252899,538.890442 490.720612,538.499023 
	C493.202850,535.074951 495.685089,531.650879 499.289978,526.678223 
	C501.643616,527.571350 505.608917,529.076050 510.485657,530.926636 
	C507.060608,532.914490 504.444061,534.433105 501.283295,535.867981 
	C500.586273,535.676086 500.433411,535.567871 500.280518,535.459595 
z"/>
<path fill="#F4EBFF" opacity="1.000000" stroke="none" 
	d="
M495.766846,584.274475 
	C495.753326,585.474426 495.753326,586.260864 495.753326,586.971558 
	C493.498596,586.345276 491.377350,585.756104 488.839539,585.051208 
	C488.273193,578.293152 496.837067,580.898071 498.099579,576.306641 
	C498.451263,578.044556 498.802948,579.782410 499.156494,581.529419 
	C498.230560,582.168884 497.005432,583.014954 495.766846,584.274475 
z"/>
<path fill="#F1E5FF" opacity="1.000000" stroke="none" 
	d="
M499.149536,538.145874 
	C499.496307,540.244751 499.843079,542.343689 500.189850,544.442566 
	C500.744781,544.509277 501.299744,544.576050 501.854706,544.642761 
	C500.702881,545.657410 499.551056,546.672058 498.233429,547.832764 
	C495.077942,544.217224 495.964020,541.122253 498.413788,537.926636 
	C498.821289,537.831848 499.149536,538.145874 499.149536,538.145874 
z"/>
<path fill="#E6CFFF" opacity="1.000000" stroke="none" 
	d="
M473.163849,670.317932 
	C473.794220,670.495789 474.612396,671.182922 474.527313,671.323425 
	C472.345428,674.929321 470.069153,678.478088 467.809326,682.036865 
	C467.292908,681.715515 466.776489,681.394226 466.260040,681.072937 
	C468.483612,677.572815 470.707184,674.072693 473.163849,670.317932 
z"/>
<path fill="#EEDFFF" opacity="1.000000" stroke="none" 
	d="
M497.407196,591.631165 
	C498.501282,592.345703 499.273376,592.894531 500.867676,594.027893 
	C498.167419,595.010803 496.182861,595.733154 494.954681,596.180237 
	C493.984222,593.978455 493.326538,592.486328 492.511169,590.636475 
	C494.036743,590.912964 495.560974,591.189270 497.407196,591.631165 
z"/>
<path fill="#EBD8FF" opacity="1.000000" stroke="none" 
	d="
M492.797638,567.824707 
	C490.311127,568.868896 488.089447,569.646179 485.867737,570.423523 
	C485.636139,569.938660 485.404541,569.453796 485.172943,568.968933 
	C487.932190,567.349304 490.691406,565.729614 494.536835,563.472412 
	C493.765594,565.609436 493.414032,566.583618 492.797638,567.824707 
z"/>
<path fill="#F1E5FF" opacity="1.000000" stroke="none" 
	d="
M500.161255,537.155762 
	C499.985809,537.435364 499.810394,537.714905 499.392242,538.070190 
	C499.149536,538.145874 498.821289,537.831848 498.658386,537.670654 
	C498.684509,537.211548 498.873474,536.913635 499.425385,536.677246 
	C499.912628,536.877686 500.036957,537.016724 500.161255,537.155762 
z"/>
<path fill="#F1E5FF" opacity="1.000000" stroke="none" 
	d="
M500.947632,535.972534 
	C500.983734,536.438904 500.811340,536.716919 500.400085,537.075378 
	C500.036957,537.016724 499.912628,536.877686 499.628906,536.506470 
	C499.611328,536.057190 499.779907,535.863342 500.127869,535.576172 
	C500.433411,535.567871 500.586273,535.676086 500.947632,535.972534 
z"/>
<path fill="#FFFFFF" opacity="1.000000" stroke="none" 
	d="
M452.941986,625.055969 
	C452.616455,624.950562 452.397919,624.740295 452.179382,624.530029 
	C452.456848,624.459778 452.734314,624.389526 453.137939,624.530884 
	C453.264038,624.742432 453.048981,624.951111 452.941986,625.055969 
z"/>
<path fill="#FEFDFF" opacity="1.000000" stroke="none" 
	d="
M552.140625,393.131866 
	C550.927795,398.558990 549.302307,403.807159 544.516602,407.256927 
	C539.744934,410.696503 534.953369,414.126831 529.986938,417.271240 
	C526.672668,419.369690 523.184143,420.336578 519.198425,418.053680 
	C517.555298,417.112488 515.026794,417.583099 512.906372,417.634308 
	C506.510986,417.788727 500.378540,417.307800 495.024567,413.075623 
	C493.897247,412.184479 491.693726,412.210968 490.083862,412.456299 
	C484.996918,413.231445 479.911469,414.122040 474.906799,415.310547 
	C463.088318,418.117126 458.439514,411.925537 455.988922,400.541229 
	C455.475494,398.155945 455.501312,395.654541 455.231171,392.684814 
	C453.978882,393.326904 453.177063,393.538208 452.652588,394.039520 
	C449.400909,397.147797 447.523499,395.479340 446.688324,392.087921 
	C445.540833,387.428284 444.463959,382.696014 444.027222,377.933411 
	C443.654022,373.863586 442.164764,372.199463 438.085449,370.860901 
	C433.224365,369.265778 428.877136,365.930817 424.508514,363.045044 
	C415.464417,357.070770 412.225922,349.043060 412.887085,337.804779 
	C414.381989,312.394684 413.954285,286.876556 415.161041,261.442810 
	C416.026276,243.207260 417.991241,225.005844 420.016998,206.850723 
	C421.080200,197.322205 425.302643,189.041870 433.312256,183.152344 
	C435.399628,181.617493 437.396088,180.326096 439.978119,182.557419 
	C440.859711,183.319244 442.462494,183.517334 443.735107,183.515518 
	C466.799927,183.482742 489.280731,180.237686 511.308075,172.948730 
	C518.154480,170.683228 526.176575,170.550766 533.458435,171.329865 
	C546.789795,172.756180 559.982422,175.522415 573.208557,177.867279 
	C578.216736,178.755188 580.519470,181.158722 580.377014,187.096176 
	C580.221191,193.592850 582.707153,200.105316 583.352539,206.678558 
	C584.747864,220.890533 585.189209,235.211548 587.001770,249.362305 
	C588.432129,260.529114 592.021790,271.421387 593.419617,282.589874 
	C595.859863,302.086548 597.671692,321.783783 594.771179,341.335907 
	C593.463196,350.153107 589.633606,358.598816 586.883606,367.192444 
	C586.732056,367.666107 585.892151,367.875824 585.535400,368.334869 
	C583.620850,370.798828 581.757874,373.302887 579.040833,376.900238 
	C578.045410,376.185150 575.890564,374.637115 573.229675,372.725586 
	C572.515381,373.015228 570.563904,373.806549 568.216797,374.758301 
	C568.412964,375.699402 568.693970,377.047394 568.768616,377.405518 
	C565.505798,377.950958 562.464294,378.241882 559.554626,379.023590 
	C557.667847,379.530457 556.054077,381.024231 554.171753,381.584076 
	C552.071289,382.208832 548.636780,383.278259 547.860962,382.373108 
	C546.367676,380.630615 545.741516,377.606812 545.851562,375.163788 
	C545.990906,372.071075 547.292603,369.042816 547.963989,365.958679 
	C548.648071,362.815826 547.730042,361.635712 544.097229,360.813416 
	C528.503662,357.283508 512.802490,353.730652 499.895599,343.311066 
	C497.185577,341.123322 493.033813,342.120239 491.269257,345.247986 
	C490.790741,346.096191 489.823425,347.020660 488.924408,347.225677 
	C478.895752,349.512329 468.849335,351.727417 458.773438,353.794922 
	C456.968353,354.165283 455.007294,353.775726 453.118256,353.737061 
	C453.703796,351.755524 453.868744,349.495148 454.960175,347.849030 
	C457.433594,344.118683 460.552521,340.817474 463.042145,337.096344 
	C464.737823,334.561890 465.812653,331.612061 467.165070,328.847961 
	C466.773590,328.492767 466.382111,328.137573 465.990601,327.782410 
	C464.385040,329.142700 462.332123,330.217621 461.250977,331.912476 
	C456.430450,339.469269 451.677521,347.088593 447.387238,354.951080 
	C446.267517,357.003052 446.311768,360.139709 446.837646,362.557129 
	C448.521271,370.296356 450.678864,377.932587 452.662231,385.606293 
	C452.853149,386.345093 453.104584,387.068237 454.561646,387.991608 
	C455.403870,384.578308 456.202454,381.153534 457.098053,377.754303 
	C458.596527,372.067047 461.035217,370.543365 466.071472,373.314575 
	C470.951904,376.000031 475.425079,374.579346 480.339508,374.114105 
	C497.806915,372.460419 515.229675,373.006348 532.383240,377.281250 
	C533.990417,377.681793 535.646118,377.930511 537.294373,378.114807 
	C540.758118,378.502106 542.587280,380.163879 543.006470,383.832062 
	C543.172974,385.289246 544.857239,386.587738 545.891724,387.926697 
	C546.841980,389.156647 547.788391,390.399811 548.853943,391.526031 
	C549.380554,392.082581 550.171936,392.388641 551.338745,392.821167 
	C551.833923,392.834351 552.140625,393.131866 552.140625,393.131866 
M440.146027,281.172028 
	C440.146027,281.172028 440.317505,281.386139 440.139404,282.041107 
	C439.060089,283.636780 437.980774,285.232452 436.182434,287.891174 
	C442.069366,289.652100 447.125885,291.164612 452.182404,292.677155 
	C452.309357,292.353912 452.436310,292.030640 452.563263,291.707367 
	C450.476654,289.506989 448.390045,287.306580 445.615417,284.380676 
	C451.437866,284.351807 455.909302,288.874023 456.679016,293.807434 
	C456.891937,295.172211 457.640961,296.453369 458.327545,298.254211 
	C457.879364,298.780640 456.803436,300.044525 454.802277,302.395172 
	C463.605133,302.392517 469.600098,299.087006 475.491272,295.451019 
	C478.039062,293.878510 480.611542,292.345917 483.763641,290.437469 
	C483.477875,290.121429 482.721954,288.564087 481.551544,288.133667 
	C478.666138,287.072449 479.229980,284.785400 480.816132,284.234924 
	C485.763611,282.517883 484.144287,279.059692 483.288177,276.138123 
	C482.136963,272.209442 479.853668,268.592255 478.869873,264.638885 
	C476.691132,255.883850 474.522369,253.446289 465.434296,252.014969 
	C459.861298,251.137268 453.923737,251.551620 448.690002,249.785355 
	C441.085144,247.218857 435.844849,250.696701 430.511169,254.731216 
	C429.042450,255.842194 428.160492,257.728882 427.009277,259.259613 
	C428.807678,260.207825 430.528992,261.752960 432.418335,261.996796 
	C439.160767,262.867188 446.024200,262.920471 452.709381,264.060028 
	C455.746643,264.577728 458.473724,266.915283 461.341492,268.427338 
	C461.148804,268.921906 460.956085,269.416504 460.763397,269.911072 
	C458.099304,271.003265 455.435211,272.095490 452.515472,273.292511 
	C454.291534,274.024841 455.533051,274.536774 456.774567,275.048676 
	C456.765259,275.550690 456.755951,276.052704 456.746643,276.554718 
	C454.640656,277.016937 452.415497,278.084564 450.475647,277.702728 
	C449.399750,277.490967 448.800568,274.857361 447.436279,272.273071 
	C443.980347,274.504608 440.196045,276.948181 436.411743,279.391724 
	C436.662354,279.915588 436.912933,280.439423 437.163544,280.963287 
	C438.098358,280.963287 439.033173,280.963287 440.146027,281.172028 
M559.327454,272.158234 
	C555.866211,269.735107 552.404968,267.311981 548.582214,264.635742 
	C557.439697,260.406464 557.787048,260.445343 564.866333,263.128235 
	C565.920959,263.527893 567.543335,263.347290 568.483032,262.761414 
	C568.983704,262.449280 569.061523,260.245819 568.513977,259.663971 
	C565.143250,256.081726 561.571228,252.684677 557.966003,249.333817 
	C557.596985,248.990829 556.560913,249.322998 555.841919,249.406799 
	C553.604431,249.667664 551.351807,250.303070 549.138428,250.182175 
	C537.650146,249.554703 526.190369,249.102066 515.102661,252.991852 
	C513.927979,253.403931 512.164001,254.602661 512.144470,255.469574 
	C511.871582,267.593201 511.146851,279.882080 516.515625,291.221558 
	C517.806091,293.947083 520.618958,296.826141 523.377197,297.792755 
	C528.462646,299.574982 533.997009,300.294556 539.406189,300.822083 
	C541.414673,301.018005 543.597107,299.430878 545.700195,298.656830 
	C544.718506,296.872986 543.736755,295.089111 543.201843,294.117096 
	C545.335754,291.195251 547.404236,288.363037 549.499390,285.494202 
	C552.587341,289.683044 556.389893,287.713104 561.884338,285.857361 
	C554.618286,281.750275 548.548645,278.319458 542.479065,274.888672 
	C542.752686,274.386932 543.026367,273.885223 543.299988,273.383484 
	C551.395569,272.647308 556.769226,279.374786 563.603821,282.096252 
	C563.935669,281.745148 564.267517,281.394043 564.599365,281.042969 
	C563.036560,278.227966 561.473816,275.412964 559.327454,272.158234 
M494.315002,382.171509 
	C489.849884,382.467316 485.371002,382.639771 480.927948,383.133911 
	C479.588623,383.282898 477.321686,384.266785 477.281281,384.971527 
	C477.202057,386.352356 478.048157,388.175018 479.115326,389.161011 
	C482.521057,392.307739 486.016449,395.424225 489.816589,398.063843 
	C498.789978,404.296814 508.979614,401.531799 514.061829,391.750916 
	C516.214539,387.607971 515.518005,385.428558 510.983215,384.478210 
	C505.809875,383.394012 500.494873,382.985687 494.315002,382.171509 
M533.854431,333.772308 
	C531.712280,331.259125 529.570129,328.745972 526.822510,325.522400 
	C525.082153,335.095734 529.902893,343.097839 537.750122,343.869049 
	C536.448608,340.419800 535.319946,337.428589 533.854431,333.772308 
M480.029541,334.285889 
	C478.098236,334.476501 476.166962,334.667084 473.815369,334.899170 
	C477.255219,341.270996 482.532227,342.648468 488.787048,338.842651 
	C485.799408,337.249573 483.279663,335.905975 480.029541,334.285889 
M508.337524,339.626587 
	C511.033173,340.150299 513.791626,341.241425 516.397400,340.953064 
	C517.658142,340.813538 518.632263,338.083923 519.736145,336.526978 
	C518.183411,335.782379 516.288330,334.081177 515.148010,334.489166 
	C512.653076,335.381897 510.541168,337.345062 508.337524,339.626587 
z"/>
<path fill="#FBF8FF" opacity="1.000000" stroke="none" 
	d="
M482.403625,482.542786 
	C479.150940,480.968048 475.806335,480.090302 473.472961,478.053864 
	C468.172729,473.428162 463.369659,468.232788 458.364502,463.269012 
	C458.648987,462.875732 458.933441,462.482452 459.217926,462.089203 
	C460.279968,462.156769 461.390717,462.046082 462.396240,462.320618 
	C469.441071,464.243988 476.505615,466.114014 483.474762,468.286835 
	C486.453186,469.215424 489.688141,470.300781 491.930817,472.298126 
	C493.706085,473.879272 495.537842,477.553986 494.825806,479.227081 
	C493.927795,481.337067 490.618347,482.777344 488.058014,483.685425 
	C486.594604,484.204468 484.552399,483.091705 482.403625,482.542786 
z"/>
<path fill="#F2E7FF" opacity="1.000000" stroke="none" 
	d="
M502.241882,360.957886 
	C502.941864,361.018982 503.266602,361.071381 503.591370,361.123779 
	C503.493530,361.416382 503.429840,361.946960 503.292816,361.966644 
	C500.182617,362.413422 497.052551,363.210999 493.950165,363.120636 
	C487.573792,362.934906 481.211456,362.268433 473.796448,361.722778 
	C483.659668,358.166321 492.809021,360.554108 502.241882,360.957886 
z"/>
<path fill="#EEDFFF" opacity="1.000000" stroke="none" 
	d="
M606.141907,316.753754 
	C605.942261,318.976257 605.632263,320.855988 605.112671,324.006561 
	C599.736206,319.315247 600.335022,314.654968 601.604065,309.426178 
	C603.079895,311.754425 604.555725,314.082703 606.141907,316.753754 
z"/>
<path fill="#FEFDFF" opacity="1.000000" stroke="none" 
	d="
M551.685669,392.680542 
	C551.899414,392.395233 552.261475,392.263794 552.623535,392.132324 
	C552.632874,392.390015 552.642212,392.647644 552.396118,393.018585 
	C552.140625,393.131866 551.833923,392.834351 551.685669,392.680542 
z"/>
<path fill="#7A05FF" opacity="1.000000" stroke="none" 
	d="
M559.619263,272.378113 
	C561.473816,275.412964 563.036560,278.227966 564.599365,281.042969 
	C564.267517,281.394043 563.935669,281.745148 563.603821,282.096252 
	C556.769226,279.374786 551.395569,272.647308 543.299988,273.383484 
	C543.026367,273.885223 542.752686,274.386932 542.479065,274.888672 
	C548.548645,278.319458 554.618286,281.750275 561.884338,285.857361 
	C556.389893,287.713104 552.587341,289.683044 549.499390,285.494202 
	C547.404236,288.363037 545.335754,291.195251 543.201843,294.117096 
	C543.736755,295.089111 544.718506,296.872986 545.700195,298.656860 
	C543.597107,299.430878 541.414673,301.018005 539.406189,300.822083 
	C533.997009,300.294556 528.462646,299.574982 523.377197,297.792755 
	C520.618958,296.826141 517.806091,293.947083 516.515625,291.221558 
	C511.146851,279.882080 511.871582,267.593201 512.144470,255.469574 
	C512.164001,254.602661 513.927979,253.403931 515.102661,252.991852 
	C526.190369,249.102066 537.650146,249.554703 549.138428,250.182175 
	C551.351807,250.303070 553.604431,249.667664 555.841919,249.406799 
	C556.560913,249.322998 557.596985,248.990829 557.966003,249.333817 
	C561.571228,252.684677 565.143250,256.081726 568.513977,259.663971 
	C569.061523,260.245819 568.983704,262.449280 568.483032,262.761414 
	C567.543335,263.347290 565.920959,263.527893 564.866333,263.128235 
	C557.787048,260.445343 557.439697,260.406464 548.582214,264.635742 
	C552.404968,267.311981 555.866211,269.735107 559.619263,272.378113 
M526.305969,284.008789 
	C525.468201,288.046906 528.162781,288.493195 530.989685,288.249725 
	C531.714172,288.187347 533.062500,286.164917 532.825684,285.688110 
	C531.595703,283.212158 529.925659,281.001160 526.305969,284.008789 
M530.083435,274.240295 
	C529.010559,274.931549 527.937683,275.622803 526.864807,276.314056 
	C527.079102,276.906158 527.293396,277.498260 527.507690,278.090363 
	C530.360413,277.552368 533.213196,277.014374 536.065918,276.476379 
	C536.007568,275.832153 535.949280,275.187958 535.890991,274.543762 
	C534.219116,274.387512 532.547302,274.231232 530.083435,274.240295 
z"/>
<path fill="#7B06FF" opacity="1.000000" stroke="none" 
	d="
M439.967987,280.963287 
	C439.033173,280.963287 438.098358,280.963287 437.163544,280.963287 
	C436.912933,280.439423 436.662354,279.915588 436.411743,279.391724 
	C440.196045,276.948181 443.980347,274.504608 447.436279,272.273071 
	C448.800568,274.857361 449.399750,277.490967 450.475647,277.702728 
	C452.415497,278.084564 454.640656,277.016937 456.746643,276.554718 
	C456.755951,276.052704 456.765259,275.550690 456.774567,275.048676 
	C455.533051,274.536774 454.291534,274.024841 452.515472,273.292511 
	C455.435211,272.095490 458.099304,271.003265 460.763397,269.911072 
	C460.956085,269.416504 461.148804,268.921906 461.341492,268.427338 
	C458.473724,266.915283 455.746643,264.577728 452.709381,264.060028 
	C446.024200,262.920471 439.160767,262.867188 432.418335,261.996796 
	C430.528992,261.752960 428.807678,260.207825 427.009277,259.259613 
	C428.160492,257.728882 429.042450,255.842194 430.511169,254.731216 
	C435.844849,250.696701 441.085144,247.218857 448.690002,249.785355 
	C453.923737,251.551620 459.861298,251.137268 465.434296,252.014969 
	C474.522369,253.446289 476.691132,255.883850 478.869873,264.638885 
	C479.853668,268.592255 482.136963,272.209442 483.288177,276.138123 
	C484.144287,279.059692 485.763611,282.517883 480.816132,284.234924 
	C479.229980,284.785400 478.666138,287.072449 481.551544,288.133667 
	C482.721954,288.564087 483.477875,290.121429 483.763641,290.437469 
	C480.611542,292.345917 478.039062,293.878510 475.491272,295.451019 
	C469.600098,299.087006 463.605133,302.392517 454.802277,302.395172 
	C456.803436,300.044525 457.879364,298.780640 458.327545,298.254211 
	C457.640961,296.453369 456.891937,295.172211 456.679016,293.807434 
	C455.909302,288.874023 451.437866,284.351807 445.615417,284.380676 
	C448.390045,287.306580 450.476654,289.506989 452.563263,291.707367 
	C452.436310,292.030640 452.309357,292.353912 452.182404,292.677155 
	C447.125885,291.164612 442.069366,289.652100 436.182434,287.891174 
	C437.980774,285.232452 439.060089,283.636780 440.444061,281.583130 
	C440.744812,280.893463 440.740906,280.661804 440.737000,280.430115 
	C440.480652,280.607849 440.224335,280.785583 439.967987,280.963287 
z"/>
<path fill="#7B06FF" opacity="1.000000" stroke="none" 
	d="
M494.778229,382.227539 
	C500.494873,382.985687 505.809875,383.394012 510.983215,384.478210 
	C515.518005,385.428558 516.214539,387.607971 514.061829,391.750916 
	C508.979614,401.531799 498.789978,404.296814 489.816589,398.063843 
	C486.016449,395.424225 482.521057,392.307739 479.115326,389.161011 
	C478.048157,388.175018 477.202057,386.352356 477.281281,384.971527 
	C477.321686,384.266785 479.588623,383.282898 480.927948,383.133911 
	C485.371002,382.639771 489.849884,382.467316 494.778229,382.227539 
z"/>
<path fill="#7F0DFF" opacity="1.000000" stroke="none" 
	d="
M534.022827,334.104828 
	C535.319946,337.428589 536.448608,340.419800 537.750122,343.869049 
	C529.902893,343.097839 525.082153,335.095734 526.822510,325.522400 
	C529.570129,328.745972 531.712280,331.259125 534.022827,334.104828 
z"/>
<path fill="#8213FF" opacity="1.000000" stroke="none" 
	d="
M480.394714,334.424133 
	C483.279663,335.905975 485.799408,337.249573 488.787048,338.842651 
	C482.532227,342.648468 477.255219,341.270996 473.815369,334.899170 
	C476.166962,334.667084 478.098236,334.476501 480.394714,334.424133 
z"/>
<path fill="#8213FF" opacity="1.000000" stroke="none" 
	d="
M508.305176,339.248779 
	C510.541168,337.345062 512.653076,335.381897 515.148010,334.489166 
	C516.288330,334.081177 518.183411,335.782379 519.736145,336.526978 
	C518.632263,338.083923 517.658142,340.813538 516.397400,340.953064 
	C513.791626,341.241425 511.033173,340.150299 508.305176,339.248779 
z"/>
<path fill="#F4EBFF" opacity="1.000000" stroke="none" 
	d="
M526.521301,283.717438 
	C529.925659,281.001160 531.595703,283.212158 532.825684,285.688110 
	C533.062500,286.164917 531.714172,288.187347 530.989685,288.249725 
	C528.162781,288.493195 525.468201,288.046906 526.521301,283.717438 
z"/>
<path fill="#F1E5FF" opacity="1.000000" stroke="none" 
	d="
M530.479431,274.157654 
	C532.547302,274.231232 534.219116,274.387512 535.890991,274.543762 
	C535.949280,275.187958 536.007568,275.832153 536.065918,276.476379 
	C533.213196,277.014374 530.360413,277.552368 527.507690,278.090363 
	C527.293396,277.498260 527.079102,276.906158 526.864807,276.314056 
	C527.937683,275.622803 529.010559,274.931549 530.479431,274.157654 
z"/>
<path fill="#FEFDFF" opacity="1.000000" stroke="none" 
	d="
M440.057007,281.067657 
	C440.224335,280.785583 440.480652,280.607849 440.737000,280.430115 
	C440.740906,280.661804 440.744812,280.893463 440.533112,281.255646 
	C440.317505,281.386139 440.146027,281.172028 440.057007,281.067657 
z"/>
</svg>