<?xml version="1.0" encoding="UTF-8"?>
<svg xmlns="http://www.w3.org/2000/svg" xmlns:xlink="http://www.w3.org/1999/xlink" width="320px" height="359px" viewBox="0 0 320 359" version="1.1">
<defs>
<clipPath id="clip1">
  <path d="M 0.0195312 17 L 318.980469 17 L 318.980469 342 L 0.0195312 342 Z M 0.0195312 17 "/>
</clipPath>
<clipPath id="clip2">
  <path d="M 73.40625 175.644531 L 245.601562 175.644531 L 245.601562 238.417969 L 73.40625 238.417969 Z M 73.40625 175.644531 "/>
</clipPath>
<clipPath id="clip3">
  <path d="M 73.40625 247.574219 L 245.601562 247.574219 L 245.601562 268.640625 L 73.40625 268.640625 Z M 73.40625 247.574219 "/>
</clipPath>
<clipPath id="clip4">
  <path d="M 128 90.359375 L 197.816406 90.359375 L 197.816406 166.488281 L 128 166.488281 Z M 128 90.359375 "/>
</clipPath>
<clipPath id="clip5">
  <path d="M 121.191406 115 L 145 115 L 145 157.519531 L 121.191406 157.519531 Z M 121.191406 115 "/>
</clipPath>
</defs>
<g id="surface1">
<g clip-path="url(#clip1)" clip-rule="nonzero">
<path style=" stroke:none;fill-rule:nonzero;fill:rgb(83.529412%,47.45098%,100%);fill-opacity:1;" d="M 20.917969 226.265625 L 24.628906 230.882812 L 22.777344 224.878906 C 22.308594 222.113281 19.054688 225.347656 20.917969 226.265625 M 25.09375 223.496094 C 26.488281 225.804688 27.882812 228.113281 27.882812 230.421875 C 27.882812 233.648438 30.667969 235.03125 32.988281 235.957031 C 29.734375 232.265625 27.882812 222.113281 25.09375 223.496094 M 203.378906 27.894531 C 211.269531 27.894531 218.691406 26.96875 227.050781 28.820312 C 247.480469 33.886719 264.65625 44.035156 276.269531 58.34375 L 308.769531 110.011719 C 310.164062 122.929688 312.949219 137.230469 312.480469 152.914062 C 315.726562 152.914062 315.265625 148.304688 318.980469 147.378906 C 315.265625 156.605469 313.40625 168.136719 312.480469 181.523438 C 310.164062 174.136719 312.480469 163.0625 312.949219 157.0625 C 309.695312 162.136719 307.832031 158.457031 307.832031 156.148438 C 308.300781 152.453125 306.441406 152.914062 305.046875 151.53125 C 299.941406 146.921875 296.699219 141.847656 292.976562 134.003906 C 295.304688 128.003906 295.761719 119.238281 288.339844 114.621094 C 286.019531 113.238281 283.234375 110.9375 281.839844 107.246094 C 279.980469 102.171875 276.726562 96.171875 277.664062 88.328125 C 278.121094 86.019531 270.695312 93.402344 266.515625 90.167969 C 248.40625 77.71875 230.304688 63.410156 208.484375 51.417969 C 196.878906 51.417969 188.519531 47.269531 184.339844 42.195312 C 180.628906 37.578125 183.417969 31.585938 188.980469 31.117188 C 192.234375 31.117188 195.945312 30.203125 198.730469 32.042969 C 199.199219 30.203125 201.050781 27.894531 203.378906 27.894531 M 157.414062 17.285156 L 158.339844 17.742188 C 162.988281 18.667969 165.304688 25.128906 170.410156 22.820312 C 170.410156 26.042969 170.878906 29.277344 169.953125 31.585938 C 168.558594 35.277344 164.378906 35.277344 161.125 35.277344 C 130.019531 33.425781 111.917969 46.34375 92.882812 57.417969 C 87.765625 60.644531 82.203125 62.953125 78.023438 67.101562 C 58.054688 85.5625 36.242188 102.628906 31.125 136.769531 L 26.945312 174.597656 C 26.488281 178.746094 21.839844 182.90625 22.777344 187.980469 L 26.019531 210.582031 C 22.777344 207.355469 20.917969 211.507812 21.839844 213.347656 C 22.308594 214.730469 24.167969 219.347656 26.945312 215.199219 C 30.667969 222.113281 34.378906 235.5 39.484375 241.488281 C 55.265625 259.949219 75.695312 276.558594 92.414062 293.167969 C 96.59375 292.242188 99.835938 292.242188 100.773438 289.472656 C 102.167969 292.242188 99.378906 295.007812 97.0625 295.464844 C 104.484375 300.082031 112.84375 304.230469 123.988281 305.15625 C 138.378906 306.082031 151.839844 308.382812 164.378906 311.617188 C 170.878906 309.773438 177.375 308.847656 184.339844 308.382812 C 186.660156 308.382812 188.054688 304.699219 190.839844 303.773438 L 191.308594 299.15625 C 194.09375 303.316406 193.625 297.773438 191.765625 295.007812 C 195.019531 297.773438 195.945312 300.082031 197.335938 301.921875 C 197.335938 300.539062 201.050781 295.464844 201.050781 301.464844 L 201.984375 295.464844 C 203.378906 294.550781 203.835938 300.539062 205.230469 296.390625 C 206.621094 292.242188 209.410156 295.464844 212.195312 294.082031 C 211.269531 295.933594 211.738281 299.625 214.980469 297.316406 L 218.691406 294.082031 C 221.019531 299.625 224.734375 297.316406 226.59375 296.390625 C 247.011719 283.472656 267.441406 268.25 286.945312 253.023438 L 286.480469 259.023438 L 288.796875 251.640625 C 291.125 253.949219 292.976562 252.105469 293.914062 250.722656 C 296.699219 246.105469 300.410156 241.488281 306.441406 237.339844 C 299.015625 257.183594 290.191406 272.867188 279.054688 285.78125 L 274.410156 291.316406 C 274.410156 294.550781 273.484375 298.699219 269.769531 299.15625 C 267.910156 299.625 264.199219 298.242188 261.414062 301.007812 C 260.019531 302.847656 264.65625 306.539062 260.945312 303.773438 C 257.691406 301.464844 254.445312 303.773438 250.734375 304.699219 C 247.949219 305.617188 252.585938 308.382812 253.519531 310.234375 C 254.445312 312.074219 255.371094 313.925781 254.914062 316.234375 L 249.800781 310.691406 C 243.769531 313.925781 240.058594 319.914062 234.941406 324.53125 C 232.625 326.375 233.550781 329.609375 233.550781 332.375 C 230.304688 332.375 226.59375 331.449219 224.734375 333.300781 C 223.339844 335.140625 223.808594 337.90625 223.808594 340.683594 C 219.160156 340.214844 218.691406 333.300781 214.511719 334.683594 C 210.34375 335.609375 205.695312 336.066406 201.984375 338.375 C 204.769531 343.90625 197.335938 340.683594 198.273438 341.597656 C 191.308594 337.449219 185.265625 334.226562 177.84375 336.992188 C 162.050781 331.917969 142.558594 334.226562 128.160156 336.066406 C 128.160156 333.757812 128.625 331.449219 127.699219 330.992188 C 126.773438 333.300781 123.988281 332.375 124.445312 332.375 C 115.628906 326.375 106.804688 322.691406 97.519531 317.617188 C 89.160156 318.53125 81.269531 314.382812 78.949219 312.074219 C 72.453125 306.082031 65.019531 309.308594 58.988281 307.925781 C 45.984375 304.699219 41.34375 291.316406 39.953125 282.089844 C 39.027344 277.472656 35.304688 275.632812 33.914062 276.089844 C 27.882812 256.714844 18.597656 239.191406 11.164062 221.1875 C 9.3125 216.582031 9.769531 211.964844 9.769531 206.886719 C 12.089844 207.8125 14.417969 207.355469 13.949219 204.121094 C 11.632812 188.898438 6.058594 177.363281 0.0195312 166.296875 C 3.273438 150.605469 3.742188 132.152344 11.164062 118.3125 C 17.664062 105.863281 29.734375 99.402344 38.089844 88.785156 C 40.878906 85.09375 40.878906 80.019531 43.664062 76.796875 C 52.949219 67.570312 62.234375 57.878906 72.453125 49.578125 C 77.089844 45.886719 82.664062 49.578125 89.628906 48.195312 C 91.945312 39.886719 101.230469 32.5 110.058594 34.8125 C 113.769531 35.734375 121.203125 26.042969 123.519531 25.128906 C 127.234375 23.746094 125.382812 28.820312 125.382812 32.042969 C 134.199219 25.128906 146.269531 21.4375 157.414062 17.285156 "/>
</g>
<g clip-path="url(#clip2)" clip-rule="nonzero">
<path style=" stroke:none;fill-rule:nonzero;fill:rgb(83.529412%,47.45098%,100%);fill-opacity:1;" d="M 90.085938 213.699219 L 90.085938 237.195312 L 73.417969 237.195312 L 73.417969 177.097656 L 90.085938 177.097656 L 90.085938 205.734375 C 95.230469 201.8125 100.039062 197.453125 104.511719 192.675781 C 108.980469 187.886719 112.816406 182.6875 116.039062 177.066406 L 127.421875 177.066406 C 124.457031 182.105469 121.050781 186.796875 117.214844 191.167969 C 113.378906 195.527344 109.207031 199.582031 104.703125 203.320312 L 128.855469 237.195312 L 111.460938 237.195312 L 93.28125 211.660156 C 92.738281 212.03125 92.214844 212.375 91.699219 212.707031 C 91.183594 213.03125 90.640625 213.367188 90.085938 213.699219 Z M 152.234375 213.699219 L 152.234375 237.195312 L 135.5625 237.195312 L 135.5625 177.097656 L 152.234375 177.097656 L 152.234375 205.734375 C 157.386719 201.8125 162.195312 197.453125 166.667969 192.675781 C 171.125 187.886719 174.972656 182.6875 178.195312 177.066406 L 189.582031 177.066406 C 186.613281 182.105469 183.207031 186.796875 179.359375 191.167969 C 175.535156 195.527344 171.363281 199.582031 166.851562 203.320312 L 191.011719 237.195312 L 173.617188 237.195312 L 155.429688 211.660156 C 154.894531 212.03125 154.371094 212.375 153.855469 212.707031 C 153.332031 213.03125 152.796875 213.367188 152.234375 213.699219 Z M 245.589844 218.84375 C 245.589844 221.425781 245.265625 223.707031 244.609375 225.683594 C 243.941406 227.65625 243.023438 229.375 241.839844 230.804688 C 240.648438 232.253906 239.238281 233.464844 237.605469 234.449219 C 235.992188 235.414062 234.226562 236.195312 232.308594 236.785156 C 230.382812 237.367188 228.347656 237.789062 226.222656 238.035156 C 224.074219 238.285156 221.898438 238.417969 219.683594 238.417969 C 216.773438 238.417969 214.082031 238.199219 211.613281 237.757812 C 209.152344 237.328125 206.832031 236.644531 204.667969 235.707031 C 202.5 234.792969 200.410156 233.589844 198.40625 232.101562 C 196.414062 230.632812 194.417969 228.839844 192.414062 226.722656 L 200.984375 218.089844 C 201.773438 220.003906 202.851562 221.769531 204.21875 223.402344 C 205.589844 225.035156 207.097656 226.425781 208.742188 227.589844 C 210.382812 228.761719 212.089844 229.6875 213.855469 230.367188 C 215.609375 231.023438 217.269531 231.359375 218.84375 231.359375 C 220.6875 231.359375 222.421875 231.222656 224.054688 230.957031 C 225.667969 230.699219 227.082031 230.261719 228.28125 229.640625 C 229.484375 229.03125 230.4375 228.210938 231.125 227.199219 C 231.8125 226.1875 232.15625 224.917969 232.15625 223.390625 C 232.15625 222.210938 231.890625 221.207031 231.363281 220.378906 C 230.820312 219.546875 230.132812 218.832031 229.285156 218.222656 C 228.425781 217.628906 227.453125 217.125 226.355469 216.703125 C 225.265625 216.292969 224.160156 215.941406 223.023438 215.644531 C 221.890625 215.351562 220.773438 215.082031 219.683594 214.855469 C 218.597656 214.617188 217.625 214.378906 216.773438 214.121094 C 215.125 213.644531 213.40625 213.136719 211.613281 212.601562 C 209.828125 212.058594 208.0625 211.429688 206.335938 210.742188 C 204.589844 210.046875 202.949219 209.246094 201.394531 208.347656 C 199.835938 207.433594 198.472656 206.363281 197.300781 205.132812 C 196.125 203.894531 195.179688 202.453125 194.484375 200.820312 C 193.777344 199.191406 193.433594 197.328125 193.433594 195.222656 C 193.433594 192.683594 193.75 190.441406 194.378906 188.488281 C 195.007812 186.519531 195.898438 184.824219 197.042969 183.375 C 198.195312 181.921875 199.550781 180.703125 201.125 179.710938 C 202.679688 178.71875 204.398438 177.925781 206.277344 177.335938 C 208.167969 176.734375 210.164062 176.304688 212.269531 176.035156 C 214.378906 175.78125 216.546875 175.644531 218.757812 175.644531 C 221.785156 175.644531 224.53125 175.921875 227.011719 176.484375 C 229.484375 177.039062 231.773438 177.832031 233.875 178.859375 C 235.972656 179.882812 237.902344 181.113281 239.65625 182.550781 C 241.402344 183.984375 243.042969 185.585938 244.589844 187.339844 L 236.03125 195.964844 C 235.351562 193.960938 234.417969 192.160156 233.226562 190.546875 C 232.03125 188.933594 230.707031 187.550781 229.265625 186.398438 C 227.804688 185.234375 226.277344 184.335938 224.675781 183.714844 C 223.082031 183.085938 221.546875 182.773438 220.066406 182.773438 C 218.121094 182.773438 216.34375 182.90625 214.734375 183.183594 C 213.101562 183.449219 211.707031 183.871094 210.554688 184.46875 C 209.390625 185.070312 208.484375 185.882812 207.832031 186.894531 C 207.183594 187.90625 206.871094 189.164062 206.871094 190.671875 C 206.871094 191.863281 207.109375 192.882812 207.585938 193.714844 C 208.0625 194.542969 208.691406 195.257812 209.503906 195.851562 C 210.296875 196.433594 211.191406 196.910156 212.203125 197.28125 C 213.207031 197.664062 214.253906 197.988281 215.332031 198.265625 C 216.414062 198.542969 217.480469 198.789062 218.53125 199 C 219.570312 199.199219 220.535156 199.429688 221.402344 199.675781 C 223.082031 200.152344 224.847656 200.660156 226.699219 201.183594 C 228.550781 201.707031 230.363281 202.328125 232.15625 203.042969 C 233.941406 203.75 235.648438 204.570312 237.28125 205.484375 C 238.902344 206.402344 240.324219 207.488281 241.566406 208.757812 C 242.796875 210.019531 243.769531 211.488281 244.503906 213.148438 C 245.230469 214.796875 245.589844 216.695312 245.589844 218.84375 Z M 245.589844 218.84375 "/>
</g>
<g clip-path="url(#clip3)" clip-rule="nonzero">
<path style=" stroke:none;fill-rule:nonzero;fill:rgb(83.529412%,47.45098%,100%);fill-opacity:1;" d="M 79.617188 260.1875 C 78.167969 262.726562 77.167969 264.527344 76.601562 265.597656 C 76.039062 266.65625 75.113281 267.1875 73.828125 267.1875 C 73.550781 267.1875 73.417969 267.105469 73.417969 266.949219 L 73.511719 266.683594 C 74.082031 265.816406 74.695312 264.832031 75.324219 263.734375 C 75.953125 262.640625 76.441406 261.761719 76.792969 261.09375 L 77.300781 260.09375 C 77.804688 259.109375 78.246094 257.488281 78.585938 255.226562 C 78.941406 252.964844 79.121094 251.113281 79.121094 249.695312 L 79.046875 248.902344 C 79.015625 248.84375 79 248.769531 79 248.691406 C 79 248.519531 79.082031 248.378906 79.238281 248.261719 C 79.667969 247.976562 80.21875 247.832031 80.886719 247.832031 C 81.144531 247.832031 81.277344 248.050781 81.277344 248.472656 C 81.164062 251.097656 80.761719 254.175781 80.078125 257.714844 C 80.09375 257.839844 80.144531 257.90625 80.21875 257.90625 C 80.265625 257.90625 80.324219 257.867188 80.390625 257.8125 C 83.3125 253.804688 85.574219 251.027344 87.167969 249.472656 C 88.492188 248.207031 89.828125 247.574219 91.171875 247.574219 C 91.375 247.585938 91.480469 247.652344 91.480469 247.765625 C 91.480469 247.8125 91.414062 247.898438 91.289062 248.035156 C 91.164062 248.167969 90.964844 248.347656 90.707031 248.558594 C 90.4375 248.777344 90.191406 248.976562 89.941406 249.167969 C 89.703125 249.359375 89.398438 249.597656 89.027344 249.894531 C 88.65625 250.191406 88.359375 250.410156 88.148438 250.570312 C 88.003906 250.6875 87.824219 250.839844 87.585938 251.019531 C 87.355469 251.210938 86.890625 251.640625 86.183594 252.296875 C 85.488281 252.957031 84.800781 253.632812 84.140625 254.328125 C 83.472656 255.035156 82.71875 255.914062 81.871094 256.980469 C 81.03125 258.058594 80.277344 259.128906 79.617188 260.1875 Z M 90.210938 258.050781 C 90.351562 258.078125 90.429688 258.125 90.429688 258.195312 C 90.429688 258.289062 90.363281 258.394531 90.238281 258.519531 C 90.058594 258.699219 89.800781 258.929688 89.457031 259.214844 C 89.113281 259.5 88.914062 259.671875 88.84375 259.738281 L 88.511719 260.1875 C 88.175781 261.121094 87.664062 262.09375 86.964844 263.105469 C 86.269531 264.109375 85.417969 264.996094 84.425781 265.757812 C 83.425781 266.523438 82.472656 266.902344 81.566406 266.902344 C 80.429688 266.902344 79.867188 266.207031 79.867188 264.832031 C 79.867188 263.613281 80.257812 262.285156 81.058594 260.863281 C 81.859375 259.441406 82.890625 258.230469 84.160156 257.21875 C 85.429688 256.21875 86.679688 255.714844 87.910156 255.714844 C 88.808594 255.714844 89.253906 256.066406 89.253906 256.761719 C 89.253906 257.144531 89.066406 257.660156 88.671875 258.308594 C 88.664062 258.328125 88.65625 258.347656 88.65625 258.382812 C 88.65625 258.414062 88.671875 258.433594 88.703125 258.433594 C 89.292969 258.195312 89.800781 258.058594 90.210938 258.050781 Z M 87.9375 258.613281 C 88.0625 258.058594 88.128906 257.628906 88.128906 257.335938 C 88.128906 256.667969 87.902344 256.332031 87.453125 256.332031 C 86.832031 256.332031 86.058594 256.90625 85.132812 258.050781 C 84.207031 259.1875 83.40625 260.472656 82.75 261.90625 C 82.082031 263.335938 81.753906 264.460938 81.753906 265.28125 C 81.753906 265.882812 81.964844 266.1875 82.40625 266.1875 C 83.074219 266.1875 83.875 265.519531 84.808594 264.183594 C 85.746094 262.859375 86.308594 261.511719 86.5 260.167969 C 86.480469 260.128906 86.46875 260.082031 86.46875 260.023438 C 86.46875 259.558594 86.890625 259.148438 87.71875 258.785156 C 87.84375 258.738281 87.917969 258.679688 87.9375 258.613281 Z M 93.0625 263.257812 L 93.492188 262.449219 L 94.238281 261.1875 C 94.238281 261.140625 94.21875 261.113281 94.179688 261.113281 C 94.152344 261.113281 94.113281 261.140625 94.066406 261.1875 C 93.472656 261.867188 92.863281 262.535156 92.222656 263.171875 C 91.582031 263.820312 91.097656 264.289062 90.761719 264.59375 L 90.230469 265.042969 C 88.988281 266.214844 88.128906 266.808594 87.644531 266.808594 C 87.421875 266.808594 87.308594 266.664062 87.308594 266.378906 C 87.308594 266.0625 87.441406 265.578125 87.699219 264.929688 C 87.96875 264.28125 88.234375 263.699219 88.511719 263.191406 L 88.894531 262.449219 C 90.238281 259.957031 91.222656 258.289062 91.859375 257.449219 C 92.183594 257.039062 92.578125 256.695312 93.035156 256.410156 C 93.5 256.132812 93.863281 256 94.113281 256 C 94.273438 256 94.351562 256.054688 94.351562 256.160156 C 94.351562 256.226562 94.324219 256.3125 94.253906 256.429688 C 94.226562 256.496094 93.902344 257.019531 93.273438 258.011719 C 92.652344 259.003906 92.148438 259.851562 91.765625 260.570312 C 90.714844 262.484375 90.191406 263.59375 90.191406 263.878906 C 90.191406 263.992188 90.238281 264.042969 90.332031 264.042969 C 90.476562 264.042969 90.714844 263.898438 91.070312 263.613281 C 92.109375 262.726562 93.253906 261.53125 94.496094 260.023438 C 95.179688 259.289062 95.90625 258.335938 96.652344 257.164062 C 97.167969 256.390625 97.84375 256 98.691406 256 C 98.835938 256 98.902344 256.066406 98.902344 256.191406 L 98.710938 256.636719 C 98.492188 257.039062 97.988281 257.90625 97.214844 259.242188 C 96.441406 260.589844 96 261.351562 95.886719 261.542969 C 95.230469 262.6875 94.90625 263.441406 94.90625 263.804688 C 94.90625 263.945312 94.953125 264.023438 95.046875 264.023438 C 95.210938 264.023438 95.714844 263.621094 96.574219 262.828125 C 97.25 262.160156 98.140625 261.207031 99.246094 259.949219 C 99.292969 259.902344 99.332031 259.882812 99.359375 259.882812 C 99.390625 259.882812 99.410156 259.910156 99.410156 259.976562 C 99.410156 260.273438 99.292969 260.570312 99.054688 260.855469 C 97.871094 262.152344 96.824219 263.238281 95.917969 264.117188 C 95.285156 264.699219 94.589844 265.289062 93.816406 265.882812 C 93.042969 266.464844 92.480469 266.761719 92.128906 266.761719 C 91.890625 266.761719 91.765625 266.589844 91.765625 266.253906 C 91.765625 266.074219 91.910156 265.652344 92.195312 265.023438 C 92.480469 264.382812 92.765625 263.804688 93.0625 263.257812 Z M 102.976562 261.496094 C 102.84375 261.496094 102.785156 261.445312 102.785156 261.351562 C 102.785156 261.304688 102.804688 261.246094 102.851562 261.160156 C 103.796875 259.699219 104.265625 258.707031 104.265625 258.164062 C 104.265625 258.023438 104.207031 257.953125 104.101562 257.953125 C 103.625 257.953125 102.5 259.03125 100.726562 261.1875 C 100.199219 261.855469 99.703125 262.542969 99.253906 263.257812 C 98.796875 263.972656 98.484375 264.519531 98.300781 264.898438 L 98.015625 265.453125 C 97.824219 265.835938 97.527344 266.1875 97.128906 266.511719 C 96.726562 266.835938 96.316406 267 95.886719 267 C 95.660156 267 95.542969 266.941406 95.542969 266.828125 C 95.542969 266.730469 95.621094 266.539062 95.753906 266.234375 C 95.886719 265.929688 96.050781 265.597656 96.242188 265.234375 C 96.429688 264.871094 96.621094 264.507812 96.824219 264.164062 C 97.011719 263.8125 97.167969 263.527344 97.300781 263.289062 L 97.507812 262.925781 L 100.027344 258.566406 C 101 256.742188 102.023438 255.835938 103.089844 255.835938 C 103.234375 255.835938 103.3125 255.886719 103.3125 256 C 103.3125 256.140625 102.96875 256.734375 102.269531 257.773438 C 101.574219 258.8125 101.171875 259.472656 101.058594 259.757812 C 101.03125 259.851562 101.011719 259.910156 101.011719 259.929688 C 101.011719 259.957031 101.03125 259.976562 101.058594 259.976562 C 101.085938 259.976562 101.144531 259.9375 101.222656 259.851562 C 102.421875 258.507812 103.691406 257.304688 105.039062 256.257812 C 105.113281 256.179688 105.285156 256.066406 105.5625 255.914062 C 105.832031 255.761719 106.070312 255.695312 106.277344 255.695312 C 106.582031 255.695312 106.738281 255.953125 106.738281 256.476562 C 106.738281 257.046875 106.546875 257.726562 106.164062 258.519531 C 105.773438 259.320312 105.257812 260.015625 104.597656 260.617188 L 104.503906 260.710938 C 104.445312 260.757812 104.378906 260.808594 104.304688 260.863281 C 104.238281 260.921875 104.140625 260.988281 104.027344 261.066406 C 103.914062 261.152344 103.808594 261.21875 103.691406 261.265625 C 103.578125 261.324219 103.464844 261.378906 103.332031 261.425781 C 103.207031 261.476562 103.082031 261.496094 102.976562 261.496094 Z M 124.484375 248.597656 C 124.484375 248.957031 124.285156 249.484375 123.894531 250.171875 C 123.492188 250.847656 122.882812 251.695312 122.070312 252.71875 C 121.25 253.730469 120.496094 254.652344 119.789062 255.484375 C 119.09375 256.324219 118.175781 257.390625 117.042969 258.691406 C 115.925781 259.988281 115.09375 260.949219 114.570312 261.570312 C 113.53125 262.792969 112.546875 263.871094 111.621094 264.796875 C 110.695312 265.71875 110.027344 266.351562 109.609375 266.664062 L 109.007812 267.140625 C 108.863281 267.265625 108.722656 267.332031 108.578125 267.332031 C 108.386719 267.332031 108.292969 267.179688 108.292969 266.875 C 108.292969 265.703125 108.671875 263.632812 109.445312 260.664062 C 109.921875 258.804688 110.496094 256.960938 111.164062 255.132812 C 111.839844 253.300781 112.386719 251.933594 112.824219 251.046875 L 113.464844 249.695312 C 113.703125 249.214844 114.027344 248.835938 114.4375 248.546875 C 114.847656 248.261719 115.191406 248.121094 115.476562 248.121094 C 115.707031 248.121094 115.8125 248.195312 115.8125 248.359375 C 115.8125 248.386719 115.800781 248.453125 115.761719 248.546875 C 115.515625 249.179688 115.179688 250.027344 114.769531 251.097656 C 114.359375 252.15625 113.757812 253.996094 112.9375 256.601562 C 112.128906 259.214844 111.574219 261.425781 111.289062 263.238281 C 111.308594 263.488281 111.382812 263.613281 111.527344 263.613281 C 111.601562 263.613281 111.71875 263.546875 111.859375 263.402344 C 113.1875 262.152344 114.734375 260.386719 116.488281 258.117188 C 119.484375 254.214844 121.144531 251.304688 121.46875 249.40625 C 121.46875 248.957031 121.738281 248.625 122.269531 248.40625 C 122.804688 248.1875 123.3125 248.070312 123.789062 248.070312 C 124.253906 248.070312 124.484375 248.242188 124.484375 248.597656 Z M 119.914062 264.117188 C 118.042969 265.863281 116.839844 266.730469 116.316406 266.730469 C 116.050781 266.730469 115.90625 266.550781 115.90625 266.1875 C 115.90625 265.824219 116.058594 265.289062 116.34375 264.59375 C 116.632812 263.898438 116.917969 263.289062 117.203125 262.761719 L 117.632812 262 C 118.84375 259.890625 119.769531 258.375 120.390625 257.449219 C 120.660156 257.058594 121.011719 256.714844 121.429688 256.4375 C 121.851562 256.160156 122.25 256.019531 122.613281 256.019531 C 122.75 256.019531 122.816406 256.074219 122.816406 256.191406 C 122.816406 256.265625 122.757812 256.417969 122.644531 256.636719 C 122.453125 256.992188 121.976562 257.820312 121.230469 259.136719 C 120.476562 260.453125 120.027344 261.253906 119.886719 261.523438 C 119.238281 262.667969 118.902344 263.429688 118.902344 263.804688 C 118.902344 263.945312 118.949219 264.023438 119.046875 264.023438 C 119.207031 264.023438 119.722656 263.621094 120.582031 262.828125 C 121.25 262.160156 122.136719 261.207031 123.246094 259.949219 C 123.292969 259.902344 123.332031 259.882812 123.359375 259.882812 C 123.398438 259.882812 123.40625 259.910156 123.40625 259.976562 C 123.40625 260.273438 123.292969 260.570312 123.054688 260.855469 C 121.871094 262.152344 120.820312 263.238281 119.914062 264.117188 Z M 123.101562 254.664062 C 122.699219 254.664062 122.5 254.425781 122.5 253.949219 C 122.5 253.507812 122.664062 253.0625 123.003906 252.601562 C 123.339844 252.15625 123.703125 251.925781 124.101562 251.925781 C 124.582031 251.925781 124.820312 252.203125 124.820312 252.738281 C 124.820312 253.183594 124.636719 253.613281 124.273438 254.035156 C 123.902344 254.453125 123.511719 254.664062 123.101562 254.664062 Z M 126.613281 263.707031 C 126.328125 264.488281 125.867188 265.148438 125.25 265.671875 C 124.628906 266.207031 124.046875 266.570312 123.511719 266.761719 C 122.976562 266.949219 122.492188 267.046875 122.0625 267.046875 C 120.898438 267.046875 120.316406 266.589844 120.316406 265.691406 C 120.316406 264.765625 120.820312 263.9375 121.851562 263.191406 C 122.328125 262.839844 122.84375 262.609375 123.40625 262.496094 C 123.484375 262.496094 123.519531 262.535156 123.519531 262.589844 C 123.519531 262.628906 123.511719 262.65625 123.472656 262.6875 C 123.074219 262.992188 122.699219 263.460938 122.335938 264.089844 C 121.976562 264.726562 121.804688 265.28125 121.804688 265.757812 C 121.804688 266.234375 122.003906 266.472656 122.394531 266.472656 C 122.71875 266.472656 123.035156 266.339844 123.347656 266.082031 C 123.65625 265.816406 123.894531 265.546875 124.054688 265.28125 L 124.292969 264.898438 C 124.609375 264.394531 124.875 263.582031 125.09375 262.476562 C 125.304688 261.359375 125.449219 260.378906 125.515625 259.519531 L 125.582031 258.242188 C 125.582031 258.109375 125.5625 258.050781 125.515625 258.050781 L 125.417969 258.097656 L 123.042969 260.855469 C 122.871094 261.066406 122.75 261.160156 122.679688 261.160156 C 122.605469 261.160156 122.566406 261.113281 122.566406 261 C 122.566406 260.789062 122.625 260.636719 122.730469 260.519531 L 122.949219 260.261719 C 124.769531 258.230469 125.8125 257 126.058594 256.570312 C 126.308594 256.210938 126.652344 255.886719 127.117188 255.617188 C 127.566406 255.359375 128.089844 255.234375 128.703125 255.234375 C 128.855469 255.234375 128.941406 255.304688 128.941406 255.425781 C 128.941406 255.503906 128.875 255.578125 128.75 255.644531 C 128.703125 255.65625 128.636719 255.695312 128.570312 255.75 C 128.492188 255.808594 128.367188 255.933594 128.1875 256.140625 C 127.996094 256.351562 127.832031 256.589844 127.691406 256.859375 C 127.546875 257.125 127.421875 257.507812 127.308594 257.984375 C 127.195312 258.46875 127.136719 259.003906 127.136719 259.597656 C 127.136719 261.417969 126.964844 262.792969 126.613281 263.707031 Z M 130.8125 264.117188 C 128.941406 265.863281 127.738281 266.730469 127.214844 266.730469 C 126.945312 266.730469 126.804688 266.550781 126.804688 266.1875 C 126.804688 265.824219 126.945312 265.289062 127.234375 264.59375 C 127.527344 263.898438 127.816406 263.289062 128.101562 262.761719 L 128.53125 262 C 129.742188 259.890625 130.667969 258.375 131.289062 257.449219 C 131.554688 257.058594 131.910156 256.714844 132.328125 256.4375 C 132.75 256.160156 133.148438 256.019531 133.511719 256.019531 C 133.644531 256.019531 133.703125 256.074219 133.703125 256.191406 C 133.703125 256.265625 133.644531 256.417969 133.539062 256.636719 C 133.347656 256.992188 132.871094 257.820312 132.128906 259.136719 C 131.375 260.453125 130.925781 261.253906 130.78125 261.523438 C 130.125 262.667969 129.800781 263.429688 129.800781 263.804688 C 129.800781 263.945312 129.847656 264.023438 129.941406 264.023438 C 130.105469 264.023438 130.609375 263.621094 131.480469 262.828125 C 132.148438 262.160156 133.035156 261.207031 134.140625 259.949219 C 134.1875 259.902344 134.226562 259.882812 134.253906 259.882812 C 134.285156 259.882812 134.304688 259.910156 134.304688 259.976562 C 134.304688 260.273438 134.1875 260.570312 133.941406 260.855469 C 132.765625 262.152344 131.71875 263.238281 130.8125 264.117188 Z M 133.988281 254.664062 C 133.597656 254.664062 133.398438 254.425781 133.398438 253.949219 C 133.398438 253.507812 133.558594 253.0625 133.894531 252.601562 C 134.238281 252.15625 134.597656 251.925781 135 251.925781 C 135.476562 251.925781 135.714844 252.203125 135.714844 252.738281 C 135.714844 253.183594 135.535156 253.613281 135.164062 254.035156 C 134.800781 254.453125 134.410156 254.664062 133.988281 254.664062 Z M 142.328125 258.050781 C 142.472656 258.078125 142.546875 258.125 142.546875 258.195312 C 142.546875 258.289062 142.480469 258.394531 142.355469 258.519531 C 142.175781 258.699219 141.917969 258.929688 141.574219 259.214844 C 141.230469 259.5 141.03125 259.671875 140.964844 259.738281 L 140.628906 260.1875 C 140.296875 261.121094 139.78125 262.09375 139.082031 263.105469 C 138.386719 264.109375 137.539062 264.996094 136.546875 265.757812 C 135.542969 266.523438 134.589844 266.902344 133.683594 266.902344 C 132.546875 266.902344 131.984375 266.207031 131.984375 264.832031 C 131.984375 263.613281 132.375 262.285156 133.175781 260.863281 C 133.980469 259.441406 135.007812 258.230469 136.277344 257.21875 C 137.546875 256.21875 138.796875 255.714844 140.027344 255.714844 C 140.925781 255.714844 141.375 256.066406 141.375 256.761719 C 141.375 257.144531 141.183594 257.660156 140.792969 258.308594 C 140.78125 258.328125 140.773438 258.347656 140.773438 258.382812 C 140.773438 258.414062 140.792969 258.433594 140.820312 258.433594 C 141.414062 258.195312 141.917969 258.058594 142.328125 258.050781 Z M 140.058594 258.613281 C 140.179688 258.058594 140.25 257.628906 140.25 257.335938 C 140.25 256.667969 140.019531 256.332031 139.570312 256.332031 C 138.949219 256.332031 138.175781 256.90625 137.25 258.050781 C 136.328125 259.1875 135.523438 260.472656 134.867188 261.90625 C 134.207031 263.335938 133.875 264.460938 133.875 265.28125 C 133.875 265.882812 134.09375 266.1875 134.523438 266.1875 C 135.191406 266.1875 135.992188 265.519531 136.925781 264.183594 C 137.863281 262.859375 138.425781 261.511719 138.617188 260.167969 C 138.597656 260.128906 138.597656 260.082031 138.597656 260.023438 C 138.597656 259.558594 139.007812 259.148438 139.835938 258.785156 C 139.960938 258.738281 140.039062 258.679688 140.058594 258.613281 Z M 148.226562 264.117188 C 146.355469 265.863281 145.125 266.730469 144.53125 266.730469 C 144.265625 266.730469 144.121094 266.589844 144.121094 266.300781 C 144.121094 266.128906 144.167969 265.910156 144.246094 265.652344 C 144.324219 265.386719 144.425781 265.128906 144.542969 264.863281 C 144.667969 264.605469 144.78125 264.367188 144.894531 264.136719 C 145.007812 263.917969 145.113281 263.707031 145.230469 263.527344 C 145.34375 263.335938 145.402344 263.230469 145.402344 263.210938 C 145.640625 262.78125 145.992188 262.179688 146.480469 261.410156 C 146.957031 260.644531 147.335938 260.007812 147.625 259.511719 C 147.910156 259.015625 148.054688 258.707031 148.054688 258.59375 C 148.054688 258.519531 148.015625 258.480469 147.9375 258.480469 L 147.59375 258.59375 C 146.871094 259.117188 145.984375 259.929688 144.960938 261.027344 C 143.941406 262.132812 143.101562 263.105469 142.453125 263.945312 L 141.46875 265.1875 C 141.257812 265.492188 141.078125 265.738281 140.917969 265.929688 C 140.753906 266.113281 140.523438 266.300781 140.230469 266.484375 C 139.933594 266.664062 139.636719 266.761719 139.332031 266.761719 C 139.113281 266.761719 139 266.691406 139 266.570312 C 139 266.445312 139.152344 266.074219 139.457031 265.460938 C 139.761719 264.851562 140.058594 264.269531 140.363281 263.707031 L 140.820312 262.90625 L 143.167969 258.804688 C 143.40625 258.414062 143.605469 258.109375 143.75 257.886719 C 143.902344 257.679688 144.121094 257.410156 144.390625 257.078125 C 144.667969 256.753906 144.953125 256.515625 145.257812 256.351562 C 145.574219 256.199219 145.90625 256.105469 146.257812 256.066406 C 146.382812 256.066406 146.449219 256.125 146.449219 256.238281 C 146.449219 256.332031 146.421875 256.410156 146.375 256.476562 C 146.011719 257.046875 145.449219 257.992188 144.683594 259.308594 C 143.929688 260.625 143.445312 261.484375 143.246094 261.875 C 143.195312 261.972656 143.167969 262.046875 143.167969 262.09375 C 143.167969 262.125 143.1875 262.144531 143.214844 262.144531 C 143.246094 262.144531 143.332031 262.09375 143.453125 262 C 143.757812 261.648438 144.152344 261.207031 144.636719 260.691406 C 145.125 260.167969 145.953125 259.375 147.117188 258.316406 C 148.28125 257.269531 149.246094 256.550781 150 256.191406 C 150.171875 256.113281 150.34375 256.066406 150.496094 256.066406 C 150.726562 256.066406 150.832031 256.199219 150.832031 256.449219 C 150.707031 257.203125 150.09375 258.480469 148.988281 260.28125 C 147.777344 262.265625 147.167969 263.441406 147.167969 263.804688 C 147.167969 263.9375 147.222656 263.992188 147.335938 263.992188 C 147.414062 263.992188 147.507812 263.964844 147.613281 263.90625 C 147.71875 263.859375 147.832031 263.773438 147.957031 263.667969 C 148.089844 263.574219 148.195312 263.476562 148.28125 263.402344 C 148.367188 263.324219 148.484375 263.210938 148.625 263.078125 C 148.777344 262.945312 148.863281 262.859375 148.894531 262.828125 C 149.5625 262.160156 150.449219 261.207031 151.554688 259.949219 C 151.601562 259.902344 151.640625 259.882812 151.667969 259.882812 C 151.707031 259.882812 151.71875 259.910156 151.71875 259.976562 C 151.71875 260.273438 151.601562 260.570312 151.363281 260.855469 C 150.179688 262.152344 149.132812 263.238281 148.226562 264.117188 Z M 148.75 268.542969 C 148.644531 268.609375 148.558594 268.640625 148.484375 268.640625 C 148.386719 268.640625 148.339844 268.601562 148.339844 268.523438 C 148.339844 268.429688 148.378906 268.316406 148.453125 268.191406 C 148.472656 268.171875 148.558594 268.027344 148.722656 267.761719 C 148.882812 267.484375 148.988281 267.292969 149.054688 267.160156 C 149.121094 267.035156 149.199219 266.855469 149.285156 266.617188 C 149.371094 266.378906 149.425781 266.160156 149.464844 265.976562 C 149.464844 265.433594 149.628906 264.949219 149.972656 264.507812 C 150.304688 264.070312 150.6875 263.851562 151.117188 263.851562 C 151.632812 263.851562 151.878906 264.089844 151.878906 264.546875 C 151.878906 265.070312 151.507812 265.777344 150.753906 266.664062 C 150.007812 267.550781 149.332031 268.179688 148.75 268.542969 Z M 170.429688 250.570312 C 170.085938 250.570312 169.628906 250.808594 169.035156 251.285156 C 168.445312 251.761719 167.96875 252.203125 167.59375 252.601562 C 167.234375 253.011719 167.011719 253.261719 166.957031 253.355469 C 166.773438 253.59375 166.621094 253.710938 166.5 253.710938 C 166.382812 253.710938 166.328125 253.625 166.328125 253.453125 C 166.328125 253.40625 166.34375 253.320312 166.375 253.195312 C 166.746094 252.097656 167.507812 250.992188 168.683594 249.894531 C 169.867188 248.789062 170.972656 248.242188 172.003906 248.242188 C 172.929688 248.242188 173.398438 248.949219 173.398438 250.359375 C 173.398438 251.164062 173.226562 252.15625 172.871094 253.320312 C 172.519531 254.484375 172.222656 255.339844 171.984375 255.894531 C 171.746094 256.4375 171.546875 256.867188 171.382812 257.191406 C 170.953125 258.03125 170.476562 258.871094 169.941406 259.699219 C 169.417969 260.53125 168.777344 261.410156 168.015625 262.332031 C 167.261719 263.25 166.480469 264.058594 165.667969 264.746094 C 164.867188 265.433594 163.96875 266.007812 162.976562 266.464844 C 161.984375 266.914062 161.011719 267.140625 160.058594 267.140625 C 158.683594 267.140625 157.996094 266.179688 157.996094 264.261719 C 157.996094 262.6875 158.300781 261.082031 158.929688 259.433594 C 159.550781 257.792969 160.304688 256.371094 161.203125 255.148438 C 162.097656 253.9375 163.015625 252.910156 163.96875 252.050781 C 164.914062 251.191406 165.753906 250.648438 166.46875 250.429688 C 166.554688 250.398438 166.660156 250.378906 166.785156 250.378906 C 166.910156 250.378906 166.976562 250.417969 166.976562 250.503906 C 166.976562 250.601562 166.910156 250.714844 166.785156 250.855469 C 166.316406 251.304688 165.773438 251.933594 165.144531 252.773438 C 164.511719 253.605469 163.828125 254.617188 163.082031 255.808594 C 162.335938 257 161.71875 258.335938 161.203125 259.804688 C 160.6875 261.285156 160.4375 262.675781 160.4375 263.972656 C 160.4375 265.339844 160.886719 266.027344 161.804688 266.027344 C 163.730469 266.027344 165.847656 264.042969 168.148438 260.074219 C 170.039062 256.847656 170.972656 253.929688 170.972656 251.304688 C 170.972656 250.820312 170.792969 250.570312 170.429688 250.570312 Z M 174.378906 263.257812 L 174.808594 262.449219 L 175.554688 261.1875 C 175.554688 261.140625 175.535156 261.113281 175.503906 261.113281 C 175.476562 261.113281 175.429688 261.140625 175.382812 261.1875 C 174.789062 261.867188 174.179688 262.535156 173.539062 263.171875 C 172.902344 263.820312 172.414062 264.289062 172.082031 264.59375 L 171.554688 265.042969 C 170.304688 266.214844 169.445312 266.808594 168.960938 266.808594 C 168.742188 266.808594 168.625 266.664062 168.625 266.378906 C 168.625 266.0625 168.757812 265.578125 169.015625 264.929688 C 169.285156 264.28125 169.550781 263.699219 169.828125 263.191406 L 170.210938 262.449219 C 171.554688 259.957031 172.539062 258.289062 173.175781 257.449219 C 173.5 257.039062 173.894531 256.695312 174.351562 256.410156 C 174.820312 256.132812 175.179688 256 175.429688 256 C 175.589844 256 175.667969 256.054688 175.667969 256.160156 C 175.667969 256.226562 175.640625 256.3125 175.574219 256.429688 C 175.542969 256.496094 175.21875 257.019531 174.589844 258.011719 C 173.96875 259.003906 173.464844 259.851562 173.082031 260.570312 C 172.03125 262.484375 171.507812 263.59375 171.507812 263.878906 C 171.507812 263.992188 171.554688 264.042969 171.652344 264.042969 C 171.792969 264.042969 172.042969 263.898438 172.386719 263.613281 C 173.425781 262.726562 174.570312 261.53125 175.8125 260.023438 C 176.5 259.289062 177.222656 258.335938 177.96875 257.164062 C 178.484375 256.390625 179.160156 256 180.007812 256 C 180.152344 256 180.21875 256.066406 180.21875 256.191406 L 180.027344 256.636719 C 179.808594 257.039062 179.3125 257.90625 178.53125 259.242188 C 177.757812 260.589844 177.320312 261.351562 177.203125 261.542969 C 176.546875 262.6875 176.222656 263.441406 176.222656 263.804688 C 176.222656 263.945312 176.269531 264.023438 176.363281 264.023438 C 176.527344 264.023438 177.042969 263.621094 177.902344 262.828125 C 178.570312 262.160156 179.457031 261.207031 180.5625 259.949219 C 180.609375 259.902344 180.648438 259.882812 180.675781 259.882812 C 180.707031 259.882812 180.726562 259.910156 180.726562 259.976562 C 180.726562 260.273438 180.609375 260.570312 180.371094 260.855469 C 179.1875 262.152344 178.140625 263.238281 177.234375 264.117188 C 176.601562 264.699219 175.90625 265.289062 175.132812 265.882812 C 174.359375 266.464844 173.796875 266.761719 173.445312 266.761719 C 173.207031 266.761719 173.082031 266.589844 173.082031 266.253906 C 173.082031 266.074219 173.226562 265.652344 173.511719 265.023438 C 173.808594 264.382812 174.09375 263.804688 174.378906 263.257812 Z M 184.292969 261.496094 C 184.160156 261.496094 184.101562 261.445312 184.101562 261.351562 C 184.101562 261.304688 184.121094 261.246094 184.167969 261.160156 C 185.113281 259.699219 185.582031 258.707031 185.582031 258.164062 C 185.582031 258.023438 185.523438 257.953125 185.417969 257.953125 C 184.941406 257.953125 183.816406 259.03125 182.042969 261.1875 C 181.515625 261.855469 181.019531 262.542969 180.574219 263.257812 C 180.113281 263.972656 179.800781 264.519531 179.617188 264.898438 L 179.332031 265.453125 C 179.140625 265.835938 178.84375 266.1875 178.445312 266.511719 C 178.042969 266.835938 177.632812 267 177.203125 267 C 176.976562 267 176.859375 266.941406 176.859375 266.828125 C 176.859375 266.730469 176.9375 266.539062 177.070312 266.234375 C 177.203125 265.929688 177.367188 265.597656 177.558594 265.234375 C 177.75 264.871094 177.9375 264.507812 178.140625 264.164062 C 178.332031 263.8125 178.484375 263.527344 178.617188 263.289062 L 178.828125 262.925781 L 181.34375 258.566406 C 182.320312 256.742188 183.339844 255.835938 184.410156 255.835938 C 184.550781 255.835938 184.628906 255.886719 184.628906 256 C 184.628906 256.140625 184.285156 256.734375 183.585938 257.773438 C 182.890625 258.8125 182.492188 259.472656 182.375 259.757812 C 182.347656 259.851562 182.328125 259.910156 182.328125 259.929688 C 182.328125 259.957031 182.347656 259.976562 182.375 259.976562 C 182.40625 259.976562 182.460938 259.9375 182.539062 259.851562 C 183.742188 258.507812 185.007812 257.304688 186.355469 256.257812 C 186.429688 256.179688 186.601562 256.066406 186.878906 255.914062 C 187.148438 255.761719 187.386719 255.695312 187.59375 255.695312 C 187.902344 255.695312 188.054688 255.953125 188.054688 256.476562 C 188.054688 257.046875 187.863281 257.726562 187.480469 258.519531 C 187.089844 259.320312 186.574219 260.015625 185.917969 260.617188 L 185.820312 260.710938 C 185.761719 260.757812 185.695312 260.808594 185.621094 260.863281 C 185.554688 260.921875 185.457031 260.988281 185.34375 261.066406 C 185.230469 261.152344 185.125 261.21875 185.007812 261.265625 C 184.894531 261.324219 184.78125 261.378906 184.648438 261.425781 C 184.523438 261.476562 184.398438 261.496094 184.292969 261.496094 Z M 210.285156 248.757812 C 209.457031 249.949219 208.53125 251.457031 207.507812 253.289062 C 206.480469 255.113281 205.667969 256.636719 205.058594 257.878906 L 204.152344 259.738281 C 202.507812 263.136719 201.679688 265.566406 201.679688 267.046875 C 201.679688 267.074219 201.6875 267.140625 201.6875 267.238281 C 201.699219 267.332031 201.707031 267.410156 201.707031 267.476562 C 201.707031 267.722656 201.632812 267.855469 201.488281 267.855469 C 201.222656 267.855469 200.925781 267.617188 200.601562 267.152344 C 200.285156 266.683594 200.125 266.0625 200.125 265.28125 C 200.125 264.566406 200.296875 263.699219 200.640625 262.667969 C 200.984375 261.636719 201.488281 260.453125 202.167969 259.128906 C 202.832031 257.800781 203.398438 256.734375 203.84375 255.933594 C 204.304688 255.121094 204.914062 254.0625 205.660156 252.765625 C 205.707031 252.667969 205.734375 252.59375 205.734375 252.546875 C 205.695312 252.46875 205.660156 252.429688 205.609375 252.429688 C 205.515625 252.429688 205.417969 252.46875 205.324219 252.546875 C 204.378906 253.308594 203.148438 254.605469 201.613281 256.429688 C 200.078125 258.25 198.789062 259.890625 197.730469 261.332031 L 196.125 263.496094 C 195.867188 263.878906 195.660156 264.070312 195.503906 264.070312 C 195.457031 264.070312 195.410156 264.050781 195.382812 264.023438 C 195.351562 263.992188 195.324219 263.945312 195.316406 263.886719 C 195.296875 263.832031 195.285156 263.785156 195.277344 263.734375 C 195.265625 263.6875 195.265625 263.648438 195.265625 263.613281 L 195.265625 263.5625 C 195.371094 262.582031 195.535156 261.207031 195.753906 259.453125 C 195.972656 257.6875 196.144531 256.210938 196.296875 254.996094 C 196.441406 253.796875 196.507812 253.175781 196.507812 253.148438 C 196.507812 252.984375 196.480469 252.910156 196.414062 252.910156 C 196.382812 252.910156 196.335938 252.925781 196.277344 252.976562 C 196.222656 253.023438 196.183594 253.070312 196.144531 253.117188 L 196.097656 253.195312 C 195.410156 254.207031 194.683594 255.523438 193.894531 257.125 C 193.109375 258.738281 192.480469 260.167969 192.003906 261.398438 C 191.652344 262.296875 191.296875 263.105469 190.925781 263.839844 C 190.5625 264.574219 190.238281 265.148438 189.953125 265.558594 C 189.675781 265.957031 189.417969 266.300781 189.1875 266.578125 C 188.960938 266.855469 188.777344 267.046875 188.65625 267.140625 L 188.464844 267.285156 C 188.28125 267.429688 188.148438 267.496094 188.054688 267.496094 C 187.957031 267.496094 187.910156 267.417969 187.910156 267.257812 L 187.929688 267.046875 C 188.089844 266.207031 188.789062 264.605469 190.027344 262.238281 C 191.269531 259.871094 192.472656 257.714844 193.636719 255.761719 L 195.382812 252.859375 L 196.699219 250.601562 C 197.355469 248.738281 197.863281 247.8125 198.207031 247.8125 C 198.453125 247.8125 198.570312 248.214844 198.570312 249.027344 C 198.074219 254.929688 197.824219 258.296875 197.824219 259.136719 C 197.824219 259.375 197.871094 259.5 197.96875 259.5 C 198.0625 259.5 198.175781 259.414062 198.300781 259.234375 C 198.511719 258.964844 198.796875 258.605469 199.167969 258.144531 C 199.53125 257.679688 200.238281 256.859375 201.277344 255.664062 C 202.320312 254.472656 203.292969 253.40625 204.207031 252.449219 C 205.125 251.496094 206.136719 250.589844 207.214844 249.710938 C 208.300781 248.84375 209.199219 248.308594 209.90625 248.121094 C 210.058594 248.089844 210.164062 248.070312 210.210938 248.070312 C 210.402344 248.070312 210.496094 248.148438 210.496094 248.292969 C 210.496094 248.414062 210.429688 248.566406 210.285156 248.757812 Z M 207.242188 264.117188 C 205.371094 265.863281 204.179688 266.730469 203.644531 266.730469 C 203.378906 266.730469 203.246094 266.550781 203.246094 266.1875 C 203.246094 265.824219 203.386719 265.289062 203.671875 264.59375 C 203.960938 263.898438 204.246094 263.289062 204.53125 262.761719 L 204.960938 262 C 206.183594 259.890625 207.097656 258.375 207.71875 257.449219 C 207.996094 257.058594 208.339844 256.714844 208.757812 256.4375 C 209.1875 256.160156 209.582031 256.019531 209.953125 256.019531 C 210.078125 256.019531 210.144531 256.074219 210.144531 256.191406 C 210.144531 256.265625 210.085938 256.417969 209.972656 256.636719 C 209.78125 256.992188 209.3125 257.820312 208.558594 259.136719 C 207.804688 260.453125 207.355469 261.253906 207.214844 261.523438 C 206.566406 262.667969 206.230469 263.429688 206.230469 263.804688 C 206.230469 263.945312 206.277344 264.023438 206.382812 264.023438 C 206.535156 264.023438 207.050781 263.621094 207.910156 262.828125 C 208.578125 262.160156 209.464844 261.207031 210.574219 259.949219 C 210.621094 259.902344 210.660156 259.882812 210.6875 259.882812 C 210.726562 259.882812 210.734375 259.910156 210.734375 259.976562 C 210.734375 260.273438 210.621094 260.570312 210.382812 260.855469 C 209.199219 262.152344 208.148438 263.238281 207.242188 264.117188 Z M 210.429688 254.664062 C 210.027344 254.664062 209.828125 254.425781 209.828125 253.949219 C 209.828125 253.507812 210 253.0625 210.332031 252.601562 C 210.667969 252.15625 211.03125 251.925781 211.429688 251.925781 C 211.910156 251.925781 212.15625 252.203125 212.15625 252.738281 C 212.15625 253.183594 211.964844 253.613281 211.601562 254.035156 C 211.230469 254.453125 210.839844 254.664062 210.429688 254.664062 Z M 213.941406 263.707031 C 213.65625 264.488281 213.207031 265.148438 212.578125 265.671875 C 211.957031 266.207031 211.375 266.570312 210.839844 266.761719 C 210.304688 266.949219 209.828125 267.046875 209.390625 267.046875 C 208.226562 267.046875 207.644531 266.589844 207.644531 265.691406 C 207.644531 264.765625 208.160156 263.9375 209.179688 263.191406 C 209.65625 262.839844 210.171875 262.609375 210.734375 262.496094 C 210.8125 262.496094 210.847656 262.535156 210.847656 262.589844 C 210.847656 262.628906 210.839844 262.65625 210.800781 262.6875 C 210.410156 262.992188 210.027344 263.460938 209.667969 264.089844 C 209.3125 264.726562 209.132812 265.28125 209.132812 265.757812 C 209.132812 266.234375 209.332031 266.472656 209.734375 266.472656 C 210.046875 266.472656 210.363281 266.339844 210.675781 266.082031 C 210.984375 265.816406 211.222656 265.546875 211.382812 265.28125 L 211.621094 264.898438 C 211.9375 264.394531 212.203125 263.582031 212.421875 262.476562 C 212.644531 261.359375 212.777344 260.378906 212.84375 259.519531 L 212.910156 258.242188 C 212.910156 258.109375 212.890625 258.050781 212.84375 258.050781 L 212.75 258.097656 L 210.371094 260.855469 C 210.199219 261.066406 210.078125 261.160156 210.019531 261.160156 C 209.933594 261.160156 209.894531 261.113281 209.894531 261 C 209.894531 260.789062 209.953125 260.636719 210.066406 260.519531 L 210.277344 260.261719 C 212.097656 258.230469 213.140625 257 213.398438 256.570312 C 213.636719 256.210938 213.988281 255.886719 214.445312 255.617188 C 214.894531 255.359375 215.417969 255.234375 216.03125 255.234375 C 216.191406 255.234375 216.269531 255.304688 216.269531 255.425781 C 216.269531 255.503906 216.203125 255.578125 216.078125 255.644531 C 216.03125 255.65625 215.972656 255.695312 215.898438 255.75 C 215.832031 255.808594 215.695312 255.933594 215.515625 256.140625 C 215.332031 256.351562 215.164062 256.589844 215.019531 256.859375 C 214.875 257.125 214.75 257.507812 214.636719 257.984375 C 214.523438 258.46875 214.476562 259.003906 214.476562 259.597656 C 214.476562 261.417969 214.292969 262.792969 213.941406 263.707031 Z M 220.488281 263.707031 C 220.199219 264.488281 219.742188 265.148438 219.121094 265.671875 C 218.492188 266.207031 217.917969 266.570312 217.386719 266.761719 C 216.851562 266.949219 216.363281 267.046875 215.933594 267.046875 C 214.769531 267.046875 214.179688 266.589844 214.179688 265.691406 C 214.179688 264.765625 214.695312 263.9375 215.714844 263.191406 C 216.191406 262.839844 216.71875 262.609375 217.269531 262.496094 C 217.355469 262.496094 217.394531 262.535156 217.394531 262.589844 C 217.394531 262.628906 217.375 262.65625 217.347656 262.6875 C 216.945312 262.992188 216.566406 263.460938 216.210938 264.089844 C 215.847656 264.726562 215.667969 265.28125 215.667969 265.757812 C 215.667969 266.234375 215.867188 266.472656 216.269531 266.472656 C 216.582031 266.472656 216.910156 266.339844 217.214844 266.082031 C 217.527344 265.816406 217.757812 265.546875 217.917969 265.28125 L 218.160156 264.898438 C 218.484375 264.394531 218.75 263.582031 218.96875 262.476562 C 219.179688 261.359375 219.324219 260.378906 219.378906 259.519531 L 219.457031 258.242188 C 219.457031 258.109375 219.425781 258.050781 219.378906 258.050781 L 219.285156 258.097656 L 216.917969 260.855469 C 216.738281 261.066406 216.621094 261.160156 216.554688 261.160156 C 216.480469 261.160156 216.429688 261.113281 216.429688 261 C 216.429688 260.789062 216.488281 260.636719 216.601562 260.519531 L 216.824219 260.261719 C 218.636719 258.230469 219.675781 257 219.933594 256.570312 C 220.171875 256.210938 220.523438 255.886719 220.984375 255.617188 C 221.429688 255.359375 221.964844 255.234375 222.566406 255.234375 C 222.730469 255.234375 222.804688 255.304688 222.804688 255.425781 C 222.804688 255.503906 222.75 255.578125 222.613281 255.644531 C 222.566406 255.65625 222.507812 255.695312 222.441406 255.75 C 222.367188 255.808594 222.242188 255.933594 222.050781 256.140625 C 221.871094 256.351562 221.707031 256.589844 221.566406 256.859375 C 221.421875 257.125 221.289062 257.507812 221.183594 257.984375 C 221.070312 258.46875 221.011719 259.003906 221.011719 259.597656 C 221.011719 261.417969 220.839844 262.792969 220.488281 263.707031 Z M 224.675781 264.117188 C 222.804688 265.863281 221.613281 266.730469 221.085938 266.730469 C 220.8125 266.730469 220.675781 266.550781 220.675781 266.1875 C 220.675781 265.824219 220.820312 265.289062 221.105469 264.59375 C 221.394531 263.898438 221.679688 263.289062 221.964844 262.761719 L 222.40625 262 C 223.617188 259.890625 224.53125 258.375 225.152344 257.449219 C 225.429688 257.058594 225.773438 256.714844 226.191406 256.4375 C 226.621094 256.160156 227.011719 256.019531 227.386719 256.019531 C 227.507812 256.019531 227.578125 256.074219 227.578125 256.191406 C 227.578125 256.265625 227.519531 256.417969 227.40625 256.636719 C 227.214844 256.992188 226.746094 257.820312 225.992188 259.136719 C 225.25 260.453125 224.800781 261.253906 224.65625 261.523438 C 224 262.667969 223.671875 263.429688 223.671875 263.804688 C 223.671875 263.945312 223.722656 264.023438 223.816406 264.023438 C 223.96875 264.023438 224.484375 263.621094 225.34375 262.828125 C 226.019531 262.160156 226.910156 261.207031 228.003906 259.949219 C 228.054688 259.902344 228.089844 259.882812 228.128906 259.882812 C 228.160156 259.882812 228.175781 259.910156 228.175781 259.976562 C 228.175781 260.273438 228.054688 260.570312 227.816406 260.855469 C 226.632812 262.152344 225.589844 263.238281 224.675781 264.117188 Z M 227.863281 254.664062 C 227.460938 254.664062 227.261719 254.425781 227.261719 253.949219 C 227.261719 253.507812 227.433594 253.0625 227.765625 252.601562 C 228.101562 252.15625 228.472656 251.925781 228.863281 251.925781 C 229.351562 251.925781 229.589844 252.203125 229.589844 252.738281 C 229.589844 253.183594 229.410156 253.613281 229.035156 254.035156 C 228.671875 254.453125 228.28125 254.664062 227.863281 254.664062 Z M 236.203125 258.050781 C 236.34375 258.078125 236.414062 258.125 236.414062 258.195312 C 236.414062 258.289062 236.355469 258.394531 236.222656 258.519531 C 236.050781 258.699219 235.792969 258.929688 235.4375 259.214844 C 235.105469 259.5 234.894531 259.671875 234.835938 259.738281 L 234.496094 260.1875 C 234.160156 261.121094 233.644531 262.09375 232.949219 263.105469 C 232.261719 264.109375 231.414062 264.996094 230.410156 265.757812 C 229.417969 266.523438 228.464844 266.902344 227.546875 266.902344 C 226.421875 266.902344 225.847656 266.207031 225.847656 264.832031 C 225.847656 263.613281 226.25 262.285156 227.050781 260.863281 C 227.84375 259.441406 228.882812 258.230469 230.152344 257.21875 C 231.421875 256.21875 232.671875 255.714844 233.902344 255.714844 C 234.789062 255.714844 235.238281 256.066406 235.238281 256.761719 C 235.238281 257.144531 235.046875 257.660156 234.667969 258.308594 C 234.648438 258.328125 234.648438 258.347656 234.648438 258.382812 C 234.648438 258.414062 234.65625 258.433594 234.695312 258.433594 C 235.277344 258.195312 235.78125 258.058594 236.203125 258.050781 Z M 233.921875 258.613281 C 234.054688 258.058594 234.113281 257.628906 234.113281 257.335938 C 234.113281 256.667969 233.894531 256.332031 233.445312 256.332031 C 232.824219 256.332031 232.050781 256.90625 231.117188 258.050781 C 230.191406 259.1875 229.398438 260.472656 228.730469 261.90625 C 228.074219 263.335938 227.738281 264.460938 227.738281 265.28125 C 227.738281 265.882812 227.957031 266.1875 228.386719 266.1875 C 229.066406 266.1875 229.867188 265.519531 230.792969 264.183594 C 231.726562 262.859375 232.289062 261.511719 232.492188 260.167969 C 232.472656 260.128906 232.460938 260.082031 232.460938 260.023438 C 232.460938 259.558594 232.882812 259.148438 233.710938 258.785156 C 233.835938 258.738281 233.914062 258.679688 233.921875 258.613281 Z M 242.089844 264.117188 C 240.21875 265.863281 238.988281 266.730469 238.398438 266.730469 C 238.128906 266.730469 237.996094 266.589844 237.996094 266.300781 C 237.996094 266.128906 238.035156 265.910156 238.109375 265.652344 C 238.1875 265.386719 238.292969 265.128906 238.417969 264.863281 C 238.53125 264.605469 238.644531 264.367188 238.757812 264.136719 C 238.875 263.917969 238.980469 263.707031 239.09375 263.527344 C 239.207031 263.335938 239.265625 263.230469 239.265625 263.210938 C 239.503906 262.78125 239.855469 262.179688 240.34375 261.410156 C 240.820312 260.644531 241.203125 260.007812 241.488281 259.511719 C 241.773438 259.015625 241.917969 258.707031 241.917969 258.59375 C 241.917969 258.519531 241.878906 258.480469 241.804688 258.480469 L 241.46875 258.59375 C 240.734375 259.117188 239.855469 259.929688 238.828125 261.027344 C 237.804688 262.132812 236.964844 263.105469 236.316406 263.945312 L 235.332031 265.1875 C 235.125 265.492188 234.941406 265.738281 234.78125 265.929688 C 234.617188 266.113281 234.398438 266.300781 234.101562 266.484375 C 233.808594 266.664062 233.5 266.761719 233.195312 266.761719 C 232.976562 266.761719 232.863281 266.691406 232.863281 266.570312 C 232.863281 266.445312 233.015625 266.074219 233.320312 265.460938 C 233.625 264.851562 233.929688 264.269531 234.226562 263.707031 L 234.683594 262.90625 L 237.03125 258.804688 C 237.269531 258.414062 237.472656 258.109375 237.625 257.886719 C 237.777344 257.679688 237.988281 257.410156 238.253906 257.078125 C 238.53125 256.753906 238.816406 256.515625 239.132812 256.351562 C 239.4375 256.199219 239.769531 256.105469 240.125 256.066406 C 240.25 256.066406 240.316406 256.125 240.316406 256.238281 C 240.316406 256.332031 240.296875 256.410156 240.25 256.476562 C 239.875 257.046875 239.3125 257.992188 238.558594 259.308594 C 237.796875 260.625 237.308594 261.484375 237.109375 261.875 C 237.0625 261.972656 237.03125 262.046875 237.03125 262.09375 C 237.03125 262.125 237.050781 262.144531 237.082031 262.144531 C 237.109375 262.144531 237.195312 262.09375 237.320312 262 C 237.625 261.648438 238.023438 261.207031 238.511719 260.691406 C 239 260.167969 239.820312 259.375 240.984375 258.316406 C 242.15625 257.269531 243.109375 256.550781 243.863281 256.191406 C 244.035156 256.113281 244.207031 256.066406 244.359375 256.066406 C 244.589844 256.066406 244.695312 256.199219 244.695312 256.449219 C 244.570312 257.203125 243.960938 258.480469 242.851562 260.28125 C 241.640625 262.265625 241.03125 263.441406 241.03125 263.804688 C 241.03125 263.9375 241.085938 263.992188 241.203125 263.992188 C 241.277344 263.992188 241.375 263.964844 241.480469 263.90625 C 241.582031 263.859375 241.699219 263.773438 241.824219 263.667969 C 241.957031 263.574219 242.0625 263.476562 242.148438 263.402344 C 242.234375 263.324219 242.347656 263.210938 242.5 263.078125 C 242.644531 262.945312 242.730469 262.859375 242.757812 262.828125 C 243.425781 262.160156 244.3125 261.207031 245.417969 259.949219 C 245.46875 259.902344 245.503906 259.882812 245.535156 259.882812 C 245.574219 259.882812 245.582031 259.910156 245.582031 259.976562 C 245.582031 260.273438 245.46875 260.570312 245.230469 260.855469 C 244.046875 262.152344 242.996094 263.238281 242.089844 264.117188 Z M 242.089844 264.117188 "/>
</g>
<g clip-path="url(#clip4)" clip-rule="nonzero">
<path style=" stroke:none;fill-rule:nonzero;fill:rgb(100%,100%,100%);fill-opacity:1;" d="M 197.679688 164.988281 L 182.367188 123.808594 C 182.25 123.347656 181.785156 123.003906 181.316406 123.003906 C 180.859375 123.003906 180.390625 123.347656 180.277344 123.691406 L 173.425781 141.683594 L 159.152344 114.238281 L 159.152344 110.546875 L 176.441406 110.546875 C 176.679688 110.546875 177.023438 110.433594 177.136719 110.316406 L 187.816406 101.320312 C 188.054688 101.082031 188.28125 100.738281 188.28125 100.394531 C 188.28125 100.054688 188.167969 99.699219 187.816406 99.472656 L 177.25 90.476562 C 177.023438 90.476562 176.792969 90.359375 176.554688 90.359375 L 157.988281 90.359375 C 157.289062 90.359375 156.824219 90.820312 156.824219 91.515625 L 156.824219 114.238281 L 146.726562 133.613281 C 146.382812 134.1875 146.613281 134.882812 147.195312 135.113281 C 147.777344 135.453125 148.472656 135.226562 148.703125 134.652344 L 152.527344 127.382812 C 156.25 129.109375 159.734375 128.996094 163.207031 127.269531 C 175.164062 150.109375 174.589844 148.953125 182.480469 164.179688 L 131.402344 164.179688 L 133.492188 160.945312 C 133.84375 160.371094 133.730469 159.6875 133.148438 159.332031 C 132.566406 158.988281 131.871094 159.105469 131.527344 159.6875 L 128.273438 164.75 C 127.804688 165.449219 128.386719 166.488281 129.199219 166.488281 L 196.640625 166.488281 C 196.984375 166.488281 197.335938 166.257812 197.566406 166.019531 C 197.804688 165.675781 197.917969 165.332031 197.679688 164.988281 M 181.316406 127.5 L 183.519531 133.5 C 182.011719 134.539062 180.503906 134.652344 179 133.613281 Z M 185.265625 100.511719 L 175.984375 108.351562 L 159.152344 108.351562 L 159.152344 92.667969 L 176.097656 92.667969 Z M 153.691406 125.304688 L 157.988281 117.003906 L 162.28125 125.191406 C 159.378906 126.699219 156.59375 126.699219 153.691406 125.304688 M 185.152344 164.179688 L 174.933594 144.460938 L 178.300781 135.695312 C 180.390625 136.847656 182.367188 136.847656 184.457031 135.578125 L 195.019531 164.179688 Z M 185.152344 164.179688 "/>
</g>
<g clip-path="url(#clip5)" clip-rule="nonzero">
<path style=" stroke:none;fill-rule:nonzero;fill:rgb(100%,100%,100%);fill-opacity:1;" d="M 137.089844 157.378906 C 138.835938 157.378906 140.34375 155.992188 140.34375 154.144531 L 140.34375 141.921875 L 143.710938 141.921875 C 144.410156 141.921875 144.867188 141.457031 144.867188 140.769531 L 144.867188 123.003906 C 144.867188 118.960938 141.964844 115.621094 138.253906 115.621094 L 127.804688 115.621094 C 124.207031 115.621094 121.191406 118.960938 121.191406 123.003906 L 121.191406 140.769531 C 121.191406 141.457031 121.660156 141.921875 122.347656 141.921875 L 125.714844 141.921875 L 125.714844 154.144531 C 125.714844 155.878906 127.109375 157.378906 128.96875 157.378906 Z M 128.042969 154.144531 L 128.042969 130.847656 C 128.042969 130.152344 127.578125 129.691406 126.878906 129.691406 C 126.183594 129.691406 125.714844 130.152344 125.714844 130.847656 L 125.714844 139.613281 L 123.511719 139.613281 L 123.511719 123.003906 C 123.511719 120.230469 125.371094 117.929688 127.804688 117.929688 L 138.253906 117.929688 C 140.574219 117.929688 142.546875 120.230469 142.546875 123.003906 L 142.546875 139.613281 L 140.34375 139.613281 L 140.34375 130.847656 C 140.34375 130.152344 139.875 129.691406 139.179688 129.691406 C 138.484375 129.691406 138.023438 130.152344 138.023438 130.847656 L 138.023438 154.144531 C 138.023438 154.609375 137.671875 155.070312 137.089844 155.070312 L 134.1875 155.070312 L 134.1875 141.339844 C 134.1875 140.652344 133.730469 140.1875 133.035156 140.1875 C 132.335938 140.1875 131.871094 140.652344 131.871094 141.339844 L 131.871094 155.070312 L 128.855469 155.070312 C 128.386719 155.070312 128.042969 154.609375 128.042969 154.144531 "/>
</g>
<path style=" stroke:none;fill-rule:nonzero;fill:rgb(100%,100%,100%);fill-opacity:1;" d="M 133.035156 115.039062 C 137.089844 115.039062 140.34375 111.816406 140.34375 107.78125 C 140.34375 103.746094 137.089844 100.511719 133.035156 100.511719 C 128.96875 100.511719 125.714844 103.746094 125.714844 107.78125 C 125.714844 111.699219 128.96875 115.039062 133.035156 115.039062 M 133.035156 102.703125 C 135.820312 102.703125 138.023438 104.890625 138.023438 107.664062 C 138.023438 110.433594 135.820312 112.625 133.035156 112.625 C 130.25 112.625 128.042969 110.433594 128.042969 107.664062 C 128.042969 104.890625 130.25 102.703125 133.035156 102.703125 "/>
<path style=" stroke:none;fill-rule:nonzero;fill:rgb(100%,100%,100%);fill-opacity:1;" d="M 165.535156 104.890625 C 165.648438 105.128906 165.992188 105.355469 166.34375 105.472656 C 166.6875 105.585938 167.042969 105.472656 167.269531 105.242188 L 177.136719 97.628906 C 177.605469 97.277344 177.71875 96.476562 177.375 96.007812 C 177.023438 95.550781 176.210938 95.4375 175.746094 95.777344 L 166.8125 102.589844 L 164.253906 98.667969 C 163.902344 98.085938 163.207031 97.972656 162.632812 98.316406 C 162.050781 98.667969 161.9375 99.355469 162.28125 99.9375 Z M 165.535156 104.890625 "/>
<path style=" stroke:none;fill-rule:nonzero;fill:rgb(100%,100%,100%);fill-opacity:1;" d="M 156.707031 159.800781 C 156.707031 160.488281 157.175781 160.945312 157.871094 160.945312 L 175.046875 160.945312 C 175.402344 160.945312 175.859375 160.714844 176.097656 160.371094 C 176.328125 160.03125 176.328125 159.5625 176.097656 159.21875 L 168.082031 143.535156 C 167.738281 142.953125 167.042969 142.722656 166.574219 143.066406 C 165.992188 143.421875 165.761719 144.109375 166.117188 144.574219 L 173.3125 158.53125 L 157.871094 158.53125 C 157.289062 158.644531 156.707031 159.105469 156.707031 159.800781 "/>
</g>
</svg>
