<?xml version="1.0" encoding="UTF-8"?>
<svg xmlns="http://www.w3.org/2000/svg" xmlns:xlink="http://www.w3.org/1999/xlink" width="2560px" height="2872px" viewBox="0 0 2560 2872" version="1.1">
<defs>
<clipPath id="clip1">
  <path d="M 0.15625 138 L 2551.84375 138 L 2551.84375 2734 L 0.15625 2734 Z M 0.15625 138 "/>
</clipPath>
<clipPath id="clip2">
  <path d="M 587.25 1405.15625 L 1964.8125 1405.15625 L 1964.8125 1907.34375 L 587.25 1907.34375 Z M 587.25 1405.15625 "/>
</clipPath>
<clipPath id="clip3">
  <path d="M 587.25 1980.59375 L 1964.8125 1980.59375 L 1964.8125 2149.125 L 587.25 2149.125 Z M 587.25 1980.59375 "/>
</clipPath>
<clipPath id="clip4">
  <path d="M 1024 722.875 L 1582.53125 722.875 L 1582.53125 1331.90625 L 1024 1331.90625 Z M 1024 722.875 "/>
</clipPath>
<clipPath id="clip5">
  <path d="M 969.53125 924 L 1159 924 L 1159 1260 L 969.53125 1260 Z M 969.53125 924 "/>
</clipPath>
</defs>
<g id="surface1">
<g clip-path="url(#clip1)" clip-rule="nonzero">
<path style=" stroke:none;fill-rule:nonzero;fill:rgb(83.529412%,47.45098%,100%);fill-opacity:1;" d="M 167.34375 1810.125 L 197.03125 1847.0625 L 182.21875 1799.03125 C 178.46875 1776.90625 152.4375 1802.78125 167.34375 1810.125 M 200.75 1787.96875 C 211.90625 1806.4375 223.0625 1824.90625 223.0625 1843.375 C 223.0625 1869.1875 245.34375 1880.25 263.90625 1887.65625 C 237.875 1858.125 223.0625 1776.90625 200.75 1787.96875 M 1627.03125 223.15625 C 1690.15625 223.15625 1749.53125 215.75 1816.40625 230.5625 C 1979.84375 271.09375 2117.25 352.28125 2210.15625 466.75 L 2470.15625 880.09375 C 2481.3125 983.4375 2503.59375 1097.84375 2499.84375 1223.3125 C 2525.8125 1223.3125 2522.125 1186.4375 2551.84375 1179.03125 C 2522.125 1252.84375 2507.25 1345.09375 2499.84375 1452.1875 C 2481.3125 1393.09375 2499.84375 1304.5 2503.59375 1256.5 C 2477.5625 1297.09375 2462.65625 1267.65625 2462.65625 1249.1875 C 2466.40625 1219.625 2451.53125 1223.3125 2440.375 1212.25 C 2399.53125 1175.375 2373.59375 1134.78125 2343.8125 1072.03125 C 2362.4375 1024.03125 2366.09375 953.90625 2306.71875 916.96875 C 2288.15625 905.90625 2265.875 887.5 2254.71875 857.96875 C 2239.84375 817.375 2213.8125 769.375 2221.3125 706.625 C 2224.96875 688.15625 2165.5625 747.21875 2132.125 721.34375 C 1987.25 621.75 1842.4375 507.28125 1667.875 411.34375 C 1575.03125 411.34375 1508.15625 378.15625 1474.71875 337.5625 C 1445.03125 300.625 1467.34375 252.6875 1511.84375 248.9375 C 1537.875 248.9375 1567.5625 241.625 1589.84375 256.34375 C 1593.59375 241.625 1608.40625 223.15625 1627.03125 223.15625 M 1259.3125 138.28125 L 1266.71875 141.9375 C 1303.90625 149.34375 1322.4375 201.03125 1363.28125 182.5625 C 1363.28125 208.34375 1367.03125 234.21875 1359.625 252.6875 C 1348.46875 282.21875 1315.03125 282.21875 1289 282.21875 C 1040.15625 267.40625 895.34375 370.75 743.0625 459.34375 C 702.125 485.15625 657.625 503.625 624.1875 536.8125 C 464.4375 684.5 289.9375 821.03125 249 1094.15625 L 215.5625 1396.78125 C 211.90625 1429.96875 174.71875 1463.25 182.21875 1503.84375 L 208.15625 1684.65625 C 182.21875 1658.84375 167.34375 1692.0625 174.71875 1706.78125 C 178.46875 1717.84375 193.34375 1754.78125 215.5625 1721.59375 C 245.34375 1776.90625 275.03125 1884 315.875 1931.90625 C 442.125 2079.59375 605.5625 2212.46875 739.3125 2345.34375 C 772.75 2337.9375 798.6875 2337.9375 806.1875 2315.78125 C 817.34375 2337.9375 795.03125 2360.0625 776.5 2363.71875 C 835.875 2400.65625 902.75 2433.84375 991.90625 2441.25 C 1107.03125 2448.65625 1214.71875 2467.0625 1315.03125 2492.9375 C 1367.03125 2478.1875 1419 2470.78125 1474.71875 2467.0625 C 1493.28125 2467.0625 1504.4375 2437.59375 1526.71875 2430.1875 L 1530.46875 2393.25 C 1552.75 2426.53125 1549 2382.1875 1534.125 2360.0625 C 1560.15625 2382.1875 1567.5625 2400.65625 1578.6875 2415.375 C 1578.6875 2404.3125 1608.40625 2363.71875 1608.40625 2411.71875 L 1615.875 2363.71875 C 1627.03125 2356.40625 1630.6875 2404.3125 1641.84375 2371.125 C 1652.96875 2337.9375 1675.28125 2363.71875 1697.5625 2352.65625 C 1690.15625 2367.46875 1693.90625 2397 1719.84375 2378.53125 L 1749.53125 2352.65625 C 1768.15625 2397 1797.875 2378.53125 1812.75 2371.125 C 1976.09375 2267.78125 2139.53125 2146 2295.5625 2024.1875 L 2291.84375 2072.1875 L 2310.375 2013.125 C 2329 2031.59375 2343.8125 2016.84375 2351.3125 2005.78125 C 2373.59375 1968.84375 2403.28125 1931.90625 2451.53125 1898.71875 C 2392.125 2057.46875 2321.53125 2182.9375 2232.4375 2286.25 L 2195.28125 2330.53125 C 2195.28125 2356.40625 2187.875 2389.59375 2158.15625 2393.25 C 2143.28125 2397 2113.59375 2385.9375 2091.3125 2408.0625 C 2080.15625 2422.78125 2117.25 2452.3125 2087.5625 2430.1875 C 2061.53125 2411.71875 2035.5625 2430.1875 2005.875 2437.59375 C 1983.59375 2444.9375 2020.6875 2467.0625 2028.15625 2481.875 C 2035.5625 2496.59375 2042.96875 2511.40625 2039.3125 2529.875 L 1998.40625 2485.53125 C 1950.15625 2511.40625 1920.46875 2559.3125 1879.53125 2596.25 C 1861 2611 1868.40625 2636.875 1868.40625 2659 C 1842.4375 2659 1812.75 2651.59375 1797.875 2666.40625 C 1786.71875 2681.125 1790.46875 2703.25 1790.46875 2725.46875 C 1753.28125 2721.71875 1749.53125 2666.40625 1716.09375 2677.46875 C 1682.75 2684.875 1645.5625 2688.53125 1615.875 2707 C 1638.15625 2751.25 1578.6875 2725.46875 1586.1875 2732.78125 C 1530.46875 2699.59375 1482.125 2673.8125 1422.75 2695.9375 C 1296.40625 2655.34375 1140.46875 2673.8125 1025.28125 2688.53125 C 1025.28125 2670.0625 1029 2651.59375 1021.59375 2647.9375 C 1014.1875 2666.40625 991.90625 2659 995.5625 2659 C 925.03125 2611 854.4375 2581.53125 780.15625 2540.9375 C 713.28125 2548.25 650.15625 2515.0625 631.59375 2496.59375 C 579.625 2448.65625 520.15625 2474.46875 471.90625 2463.40625 C 367.875 2437.59375 330.75 2330.53125 319.625 2256.71875 C 312.21875 2219.78125 282.4375 2205.0625 271.3125 2208.71875 C 223.0625 2053.71875 148.78125 1913.53125 89.3125 1769.5 C 74.5 1732.65625 78.15625 1695.71875 78.15625 1655.09375 C 96.71875 1662.5 115.34375 1658.84375 111.59375 1632.96875 C 93.0625 1511.1875 48.46875 1418.90625 0.15625 1330.375 C 26.1875 1204.84375 29.9375 1057.21875 89.3125 946.5 C 141.3125 846.90625 237.875 795.21875 304.71875 710.28125 C 327.03125 680.75 327.03125 640.15625 349.3125 614.375 C 423.59375 540.5625 497.875 463.03125 579.625 396.625 C 616.71875 367.09375 661.3125 396.625 717.03125 385.5625 C 735.5625 319.09375 809.84375 260 880.46875 278.5 C 910.15625 285.875 969.625 208.34375 988.15625 201.03125 C 1017.875 189.96875 1003.0625 230.5625 1003.0625 256.34375 C 1073.59375 201.03125 1170.15625 171.5 1259.3125 138.28125 "/>
</g>
<g clip-path="url(#clip2)" clip-rule="nonzero">
<path style=" stroke:none;fill-rule:nonzero;fill:rgb(83.529412%,47.45098%,100%);fill-opacity:1;" d="M 720.6875 1709.59375 L 720.6875 1897.5625 L 587.34375 1897.5625 L 587.34375 1416.78125 L 720.6875 1416.78125 L 720.6875 1645.875 C 761.84375 1614.5 800.3125 1579.625 836.09375 1541.40625 C 871.84375 1503.09375 902.53125 1461.5 928.3125 1416.53125 L 1019.375 1416.53125 C 995.65625 1456.84375 968.40625 1494.375 937.71875 1529.34375 C 907.03125 1564.21875 873.65625 1596.65625 837.625 1626.5625 L 1030.84375 1897.5625 L 891.6875 1897.5625 L 746.25 1693.28125 C 741.90625 1696.25 737.71875 1699 733.59375 1701.65625 C 729.46875 1704.25 725.125 1706.9375 720.6875 1709.59375 Z M 1217.875 1709.59375 L 1217.875 1897.5625 L 1084.5 1897.5625 L 1084.5 1416.78125 L 1217.875 1416.78125 L 1217.875 1645.875 C 1259.09375 1614.5 1297.5625 1579.625 1333.34375 1541.40625 C 1369 1503.09375 1399.78125 1461.5 1425.5625 1416.53125 L 1516.65625 1416.53125 C 1492.90625 1456.84375 1465.65625 1494.375 1434.875 1529.34375 C 1404.28125 1564.21875 1370.90625 1596.65625 1334.8125 1626.5625 L 1528.09375 1897.5625 L 1388.9375 1897.5625 L 1243.4375 1693.28125 C 1239.15625 1696.25 1234.96875 1699 1230.84375 1701.65625 C 1226.65625 1704.25 1222.375 1706.9375 1217.875 1709.59375 Z M 1964.71875 1750.75 C 1964.71875 1771.40625 1962.125 1789.65625 1956.875 1805.46875 C 1951.53125 1821.25 1944.1875 1835 1934.71875 1846.4375 C 1925.1875 1858.03125 1913.90625 1867.71875 1900.84375 1875.59375 C 1887.9375 1883.3125 1873.8125 1889.5625 1858.46875 1894.28125 C 1843.0625 1898.9375 1826.78125 1902.3125 1809.78125 1904.28125 C 1792.59375 1906.28125 1775.1875 1907.34375 1757.46875 1907.34375 C 1734.1875 1907.34375 1712.65625 1905.59375 1692.90625 1902.0625 C 1673.21875 1898.625 1654.65625 1893.15625 1637.34375 1885.65625 C 1620 1878.34375 1603.28125 1868.71875 1587.25 1856.8125 C 1571.3125 1845.0625 1555.34375 1830.71875 1539.3125 1813.78125 L 1607.875 1744.71875 C 1614.1875 1760.03125 1622.8125 1774.15625 1633.75 1787.21875 C 1644.71875 1800.28125 1656.78125 1811.40625 1669.9375 1820.71875 C 1683.0625 1830.09375 1696.71875 1837.5 1710.84375 1842.9375 C 1724.875 1848.1875 1738.15625 1850.875 1750.75 1850.875 C 1765.5 1850.875 1779.375 1849.78125 1792.4375 1847.65625 C 1805.34375 1845.59375 1816.65625 1842.09375 1826.25 1837.125 C 1835.875 1832.25 1843.5 1825.6875 1849 1817.59375 C 1854.5 1809.5 1857.25 1799.34375 1857.25 1787.125 C 1857.25 1777.6875 1855.125 1769.65625 1850.90625 1763.03125 C 1846.5625 1756.375 1841.0625 1750.65625 1834.28125 1745.78125 C 1827.40625 1741.03125 1819.625 1737 1810.84375 1733.625 C 1802.125 1730.34375 1793.28125 1727.53125 1784.1875 1725.15625 C 1775.125 1722.8125 1766.1875 1720.65625 1757.46875 1718.84375 C 1748.78125 1716.9375 1741 1715.03125 1734.1875 1712.96875 C 1721 1709.15625 1707.25 1705.09375 1692.90625 1700.8125 C 1678.625 1696.46875 1664.5 1691.4375 1650.6875 1685.9375 C 1636.71875 1680.375 1623.59375 1673.96875 1611.15625 1666.78125 C 1598.6875 1659.46875 1587.78125 1650.90625 1578.40625 1641.0625 C 1569 1631.15625 1561.4375 1619.625 1555.875 1606.5625 C 1550.21875 1593.53125 1547.46875 1578.625 1547.46875 1561.78125 C 1547.46875 1541.46875 1550 1523.53125 1555.03125 1507.90625 C 1560.0625 1492.15625 1567.1875 1478.59375 1576.34375 1467 C 1585.5625 1455.375 1596.40625 1445.625 1609 1437.6875 C 1621.4375 1429.75 1635.1875 1423.40625 1650.21875 1418.6875 C 1665.34375 1413.875 1681.3125 1410.4375 1698.15625 1408.28125 C 1715.03125 1406.25 1732.375 1405.15625 1750.0625 1405.15625 C 1774.28125 1405.15625 1796.25 1407.375 1816.09375 1411.875 C 1835.875 1416.3125 1854.1875 1422.65625 1871 1430.875 C 1887.78125 1439.0625 1903.21875 1448.90625 1917.25 1460.40625 C 1931.21875 1471.875 1944.34375 1484.6875 1956.71875 1498.71875 L 1888.25 1567.71875 C 1882.8125 1551.6875 1875.34375 1537.28125 1865.8125 1524.375 C 1856.25 1511.46875 1845.65625 1500.40625 1834.125 1491.1875 C 1822.4375 1481.875 1810.21875 1474.6875 1797.40625 1469.71875 C 1784.65625 1464.6875 1772.375 1462.1875 1760.53125 1462.1875 C 1744.96875 1462.1875 1730.75 1463.25 1717.875 1465.46875 C 1704.8125 1467.59375 1693.65625 1470.96875 1684.4375 1475.75 C 1675.125 1480.5625 1667.875 1487.0625 1662.65625 1495.15625 C 1657.46875 1503.25 1654.96875 1513.3125 1654.96875 1525.375 C 1654.96875 1534.90625 1656.875 1543.0625 1660.6875 1549.71875 C 1664.5 1556.34375 1669.53125 1562.0625 1676.03125 1566.8125 C 1682.375 1571.46875 1689.53125 1575.28125 1697.625 1578.25 C 1705.65625 1581.3125 1714.03125 1583.90625 1722.65625 1586.125 C 1731.3125 1588.34375 1739.84375 1590.3125 1748.25 1592 C 1756.5625 1593.59375 1764.28125 1595.4375 1771.21875 1597.40625 C 1784.65625 1601.21875 1798.78125 1605.28125 1813.59375 1609.46875 C 1828.40625 1613.65625 1842.90625 1618.625 1857.25 1624.34375 C 1871.53125 1630 1885.1875 1636.5625 1898.25 1643.875 C 1911.21875 1651.21875 1922.59375 1659.90625 1932.53125 1670.0625 C 1942.375 1680.15625 1950.15625 1691.90625 1956.03125 1705.1875 C 1961.84375 1718.375 1964.71875 1733.5625 1964.71875 1750.75 Z M 1964.71875 1750.75 "/>
</g>
<g clip-path="url(#clip3)" clip-rule="nonzero">
<path style=" stroke:none;fill-rule:nonzero;fill:rgb(83.529412%,47.45098%,100%);fill-opacity:1;" d="M 636.9375 2081.5 C 625.34375 2101.8125 617.34375 2116.21875 612.8125 2124.78125 C 608.3125 2133.25 600.90625 2137.5 590.625 2137.5 C 588.40625 2137.5 587.34375 2136.84375 587.34375 2135.59375 L 588.09375 2133.46875 C 592.65625 2126.53125 597.5625 2118.65625 602.59375 2109.875 C 607.625 2101.125 611.53125 2094.09375 614.34375 2088.75 L 618.40625 2080.75 C 622.4375 2072.875 625.96875 2059.90625 628.6875 2041.8125 C 631.53125 2023.71875 632.96875 2008.90625 632.96875 1997.5625 L 632.375 1991.21875 C 632.125 1990.75 632 1990.15625 632 1989.53125 C 632 1988.15625 632.65625 1987.03125 633.90625 1986.09375 C 637.34375 1983.8125 641.75 1982.65625 647.09375 1982.65625 C 649.15625 1982.65625 650.21875 1984.40625 650.21875 1987.78125 C 649.3125 2008.78125 646.09375 2033.40625 640.625 2061.71875 C 640.75 2062.71875 641.15625 2063.25 641.75 2063.25 C 642.125 2063.25 642.59375 2062.9375 643.125 2062.5 C 666.5 2030.4375 684.59375 2008.21875 697.34375 1995.78125 C 707.9375 1985.65625 718.625 1980.59375 729.375 1980.59375 C 731 1980.6875 731.84375 1981.21875 731.84375 1982.125 C 731.84375 1982.5 731.3125 1983.1875 730.3125 1984.28125 C 729.3125 1985.34375 727.71875 1986.78125 725.65625 1988.46875 C 723.5 1990.21875 721.53125 1991.8125 719.53125 1993.34375 C 717.625 1994.875 715.1875 1996.78125 712.21875 1999.15625 C 709.25 2001.53125 706.875 2003.28125 705.1875 2004.5625 C 704.03125 2005.5 702.59375 2006.71875 700.6875 2008.15625 C 698.84375 2009.6875 695.125 2013.125 689.46875 2018.375 C 683.90625 2023.65625 678.40625 2029.0625 673.125 2034.625 C 667.78125 2040.28125 661.75 2047.3125 654.96875 2055.84375 C 648.25 2064.46875 642.21875 2073.03125 636.9375 2081.5 Z M 721.6875 2064.40625 C 722.8125 2064.625 723.4375 2065 723.4375 2065.5625 C 723.4375 2066.3125 722.90625 2067.15625 721.90625 2068.15625 C 720.46875 2069.59375 718.40625 2071.4375 715.65625 2073.71875 C 712.90625 2076 711.3125 2077.375 710.75 2077.90625 L 708.09375 2081.5 C 705.40625 2088.96875 701.3125 2096.75 695.71875 2104.84375 C 690.15625 2112.875 683.34375 2119.96875 675.40625 2126.0625 C 667.40625 2132.1875 659.78125 2135.21875 652.53125 2135.21875 C 643.4375 2135.21875 638.9375 2129.65625 638.9375 2118.65625 C 638.9375 2108.90625 642.0625 2098.28125 648.46875 2086.90625 C 654.875 2075.53125 663.125 2065.84375 673.28125 2057.75 C 683.4375 2049.75 693.4375 2045.71875 703.28125 2045.71875 C 710.46875 2045.71875 714.03125 2048.53125 714.03125 2054.09375 C 714.03125 2057.15625 712.53125 2061.28125 709.375 2066.46875 C 709.3125 2066.625 709.25 2066.78125 709.25 2067.0625 C 709.25 2067.3125 709.375 2067.46875 709.625 2067.46875 C 714.34375 2065.5625 718.40625 2064.46875 721.6875 2064.40625 Z M 703.5 2068.90625 C 704.5 2064.46875 705.03125 2061.03125 705.03125 2058.6875 C 705.03125 2053.34375 703.21875 2050.65625 699.625 2050.65625 C 694.65625 2050.65625 688.46875 2055.25 681.0625 2064.40625 C 673.65625 2073.5 667.25 2083.78125 662 2095.25 C 656.65625 2106.6875 654.03125 2115.6875 654.03125 2122.25 C 654.03125 2127.0625 655.71875 2129.5 659.25 2129.5 C 664.59375 2129.5 671 2124.15625 678.46875 2113.46875 C 685.96875 2102.875 690.46875 2092.09375 692 2081.34375 C 691.84375 2081.03125 691.75 2080.65625 691.75 2080.1875 C 691.75 2076.46875 695.125 2073.1875 701.75 2070.28125 C 702.75 2069.90625 703.34375 2069.4375 703.5 2068.90625 Z M 744.5 2106.0625 L 747.9375 2099.59375 L 753.90625 2089.5 C 753.90625 2089.125 753.75 2088.90625 753.4375 2088.90625 C 753.21875 2088.90625 752.90625 2089.125 752.53125 2089.5 C 747.78125 2094.9375 742.90625 2100.28125 737.78125 2105.375 C 732.65625 2110.5625 728.78125 2114.3125 726.09375 2116.75 L 721.84375 2120.34375 C 711.90625 2129.71875 705.03125 2134.46875 701.15625 2134.46875 C 699.375 2134.46875 698.46875 2133.3125 698.46875 2131.03125 C 698.46875 2128.5 699.53125 2124.625 701.59375 2119.4375 C 703.75 2114.25 705.875 2109.59375 708.09375 2105.53125 L 711.15625 2099.59375 C 721.90625 2079.65625 729.78125 2066.3125 734.875 2059.59375 C 737.46875 2056.3125 740.625 2053.5625 744.28125 2051.28125 C 748 2049.0625 750.90625 2048 752.90625 2048 C 754.1875 2048 754.8125 2048.4375 754.8125 2049.28125 C 754.8125 2049.8125 754.59375 2050.5 754.03125 2051.4375 C 753.8125 2051.96875 751.21875 2056.15625 746.1875 2064.09375 C 741.21875 2072.03125 737.1875 2078.8125 734.125 2084.5625 C 725.71875 2099.875 721.53125 2108.75 721.53125 2111.03125 C 721.53125 2111.9375 721.90625 2112.34375 722.65625 2112.34375 C 723.8125 2112.34375 725.71875 2111.1875 728.5625 2108.90625 C 736.875 2101.8125 746.03125 2092.25 755.96875 2080.1875 C 761.4375 2074.3125 767.25 2066.6875 773.21875 2057.3125 C 777.34375 2051.125 782.75 2048 789.53125 2048 C 790.6875 2048 791.21875 2048.53125 791.21875 2049.53125 L 789.6875 2053.09375 C 787.9375 2056.3125 783.90625 2063.25 777.71875 2073.9375 C 771.53125 2084.71875 768 2090.8125 767.09375 2092.34375 C 761.84375 2101.5 759.25 2107.53125 759.25 2110.4375 C 759.25 2111.5625 759.625 2112.1875 760.375 2112.1875 C 761.6875 2112.1875 765.71875 2108.96875 772.59375 2102.625 C 778 2097.28125 785.125 2089.65625 793.96875 2079.59375 C 794.34375 2079.21875 794.65625 2079.0625 794.875 2079.0625 C 795.125 2079.0625 795.28125 2079.28125 795.28125 2079.8125 C 795.28125 2082.1875 794.34375 2084.5625 792.4375 2086.84375 C 782.96875 2097.21875 774.59375 2105.90625 767.34375 2112.9375 C 762.28125 2117.59375 756.71875 2122.3125 750.53125 2127.0625 C 744.34375 2131.71875 739.84375 2134.09375 737.03125 2134.09375 C 735.125 2134.09375 734.125 2132.71875 734.125 2130.03125 C 734.125 2128.59375 735.28125 2125.21875 737.5625 2120.1875 C 739.84375 2115.0625 742.125 2110.4375 744.5 2106.0625 Z M 823.8125 2091.96875 C 822.75 2091.96875 822.28125 2091.5625 822.28125 2090.8125 C 822.28125 2090.4375 822.4375 2089.96875 822.8125 2089.28125 C 830.375 2077.59375 834.125 2069.65625 834.125 2065.3125 C 834.125 2064.1875 833.65625 2063.625 832.8125 2063.625 C 829 2063.625 820 2072.25 805.8125 2089.5 C 801.59375 2094.84375 797.625 2100.34375 794.03125 2106.0625 C 790.375 2111.78125 787.875 2116.15625 786.40625 2119.1875 L 784.125 2123.625 C 782.59375 2126.6875 780.21875 2129.5 777.03125 2132.09375 C 773.8125 2134.6875 770.53125 2136 767.09375 2136 C 765.28125 2136 764.34375 2135.53125 764.34375 2134.625 C 764.34375 2133.84375 764.96875 2132.3125 766.03125 2129.875 C 767.09375 2127.4375 768.40625 2124.78125 769.9375 2121.875 C 771.4375 2118.96875 772.96875 2116.0625 774.59375 2113.3125 C 776.09375 2110.5 777.34375 2108.21875 778.40625 2106.3125 L 780.0625 2103.40625 L 800.21875 2068.53125 C 808 2053.9375 816.1875 2046.6875 824.71875 2046.6875 C 825.875 2046.6875 826.5 2047.09375 826.5 2048 C 826.5 2049.125 823.75 2053.875 818.15625 2062.1875 C 812.59375 2070.5 809.375 2075.78125 808.46875 2078.0625 C 808.25 2078.8125 808.09375 2079.28125 808.09375 2079.4375 C 808.09375 2079.65625 808.25 2079.8125 808.46875 2079.8125 C 808.6875 2079.8125 809.15625 2079.5 809.78125 2078.8125 C 819.375 2068.0625 829.53125 2058.4375 840.3125 2050.0625 C 840.90625 2049.4375 842.28125 2048.53125 844.5 2047.3125 C 846.65625 2046.09375 848.5625 2045.5625 850.21875 2045.5625 C 852.65625 2045.5625 853.90625 2047.625 853.90625 2051.8125 C 853.90625 2056.375 852.375 2061.8125 849.3125 2068.15625 C 846.1875 2074.5625 842.0625 2080.125 836.78125 2084.9375 L 836.03125 2085.6875 C 835.5625 2086.0625 835.03125 2086.46875 834.4375 2086.90625 C 833.90625 2087.375 833.125 2087.90625 832.21875 2088.53125 C 831.3125 2089.21875 830.46875 2089.75 829.53125 2090.125 C 828.625 2090.59375 827.71875 2091.03125 826.65625 2091.40625 C 825.65625 2091.8125 824.65625 2091.96875 823.8125 2091.96875 Z M 995.875 1988.78125 C 995.875 1991.65625 994.28125 1995.875 991.15625 2001.375 C 987.9375 2006.78125 983.0625 2013.5625 976.5625 2021.75 C 970 2029.84375 963.96875 2037.21875 958.3125 2043.875 C 952.75 2050.59375 945.40625 2059.125 936.34375 2069.53125 C 927.40625 2079.90625 920.75 2087.59375 916.5625 2092.5625 C 908.25 2102.34375 900.375 2110.96875 892.96875 2118.375 C 885.5625 2125.75 880.21875 2130.8125 876.875 2133.3125 L 872.0625 2137.125 C 870.90625 2138.125 869.78125 2138.65625 868.625 2138.65625 C 867.09375 2138.65625 866.34375 2137.4375 866.34375 2135 C 866.34375 2125.625 869.375 2109.0625 875.5625 2085.3125 C 879.375 2070.4375 883.96875 2055.6875 889.3125 2041.0625 C 894.71875 2026.40625 899.09375 2015.46875 902.59375 2008.375 L 907.71875 1997.5625 C 909.625 1993.71875 912.21875 1990.6875 915.5 1988.375 C 918.78125 1986.09375 921.53125 1984.96875 923.8125 1984.96875 C 925.65625 1984.96875 926.5 1985.5625 926.5 1986.875 C 926.5 1987.09375 926.40625 1987.625 926.09375 1988.375 C 924.125 1993.4375 921.4375 2000.21875 918.15625 2008.78125 C 914.875 2017.25 910.0625 2031.96875 903.5 2052.8125 C 897.03125 2073.71875 892.59375 2091.40625 890.3125 2105.90625 C 890.46875 2107.90625 891.0625 2108.90625 892.21875 2108.90625 C 892.8125 2108.90625 893.75 2108.375 894.875 2107.21875 C 905.5 2097.21875 917.875 2083.09375 931.90625 2064.9375 C 955.875 2033.71875 969.15625 2010.4375 971.75 1995.25 C 971.75 1991.65625 973.90625 1989 978.15625 1987.25 C 982.4375 1985.5 986.5 1984.5625 990.3125 1984.5625 C 994.03125 1984.5625 995.875 1985.9375 995.875 1988.78125 Z M 959.3125 2112.9375 C 944.34375 2126.90625 934.71875 2133.84375 930.53125 2133.84375 C 928.40625 2133.84375 927.25 2132.40625 927.25 2129.5 C 927.25 2126.59375 928.46875 2122.3125 930.75 2116.75 C 933.0625 2111.1875 935.34375 2106.3125 937.625 2102.09375 L 941.0625 2096 C 950.75 2079.125 958.15625 2067 963.125 2059.59375 C 965.28125 2056.46875 968.09375 2053.71875 971.4375 2051.5 C 974.8125 2049.28125 978 2048.15625 980.90625 2048.15625 C 982 2048.15625 982.53125 2048.59375 982.53125 2049.53125 C 982.53125 2050.125 982.0625 2051.34375 981.15625 2053.09375 C 979.625 2055.9375 975.8125 2062.5625 969.84375 2073.09375 C 963.8125 2083.625 960.21875 2090.03125 959.09375 2092.1875 C 953.90625 2101.34375 951.21875 2107.4375 951.21875 2110.4375 C 951.21875 2111.5625 951.59375 2112.1875 952.375 2112.1875 C 953.65625 2112.1875 957.78125 2108.96875 964.65625 2102.625 C 970 2097.28125 977.09375 2089.65625 985.96875 2079.59375 C 986.34375 2079.21875 986.65625 2079.0625 986.875 2079.0625 C 987.1875 2079.0625 987.25 2079.28125 987.25 2079.8125 C 987.25 2082.1875 986.34375 2084.5625 984.4375 2086.84375 C 974.96875 2097.21875 966.5625 2105.90625 959.3125 2112.9375 Z M 984.8125 2037.3125 C 981.59375 2037.3125 980 2035.40625 980 2031.59375 C 980 2028.0625 981.3125 2024.5 984.03125 2020.8125 C 986.71875 2017.25 989.625 2015.40625 992.8125 2015.40625 C 996.65625 2015.40625 998.5625 2017.625 998.5625 2021.90625 C 998.5625 2025.46875 997.09375 2028.90625 994.1875 2032.28125 C 991.21875 2035.625 988.09375 2037.3125 984.8125 2037.3125 Z M 1012.90625 2109.65625 C 1010.625 2115.90625 1006.9375 2121.1875 1002 2125.375 C 997.03125 2129.65625 992.375 2132.5625 988.09375 2134.09375 C 983.8125 2135.59375 979.9375 2136.375 976.5 2136.375 C 967.1875 2136.375 962.53125 2132.71875 962.53125 2125.53125 C 962.53125 2118.125 966.5625 2111.5 974.8125 2105.53125 C 978.625 2102.71875 982.75 2100.875 987.25 2099.96875 C 987.875 2099.96875 988.15625 2100.28125 988.15625 2100.71875 C 988.15625 2101.03125 988.09375 2101.25 987.78125 2101.5 C 984.59375 2103.9375 981.59375 2107.6875 978.6875 2112.71875 C 975.8125 2117.8125 974.4375 2122.25 974.4375 2126.0625 C 974.4375 2129.875 976.03125 2131.78125 979.15625 2131.78125 C 981.75 2131.78125 984.28125 2130.71875 986.78125 2128.65625 C 989.25 2126.53125 991.15625 2124.375 992.4375 2122.25 L 994.34375 2119.1875 C 996.875 2115.15625 999 2108.65625 1000.75 2099.8125 C 1002.4375 2090.875 1003.59375 2083.03125 1004.125 2076.15625 L 1004.65625 2065.9375 C 1004.65625 2064.875 1004.5 2064.40625 1004.125 2064.40625 L 1003.34375 2064.78125 L 984.34375 2086.84375 C 982.96875 2088.53125 982 2089.28125 981.4375 2089.28125 C 980.84375 2089.28125 980.53125 2088.90625 980.53125 2088 C 980.53125 2086.3125 981 2085.09375 981.84375 2084.15625 L 983.59375 2082.09375 C 998.15625 2065.84375 1006.5 2056 1008.46875 2052.5625 C 1010.46875 2049.6875 1013.21875 2047.09375 1016.9375 2044.9375 C 1020.53125 2042.875 1024.71875 2041.875 1029.625 2041.875 C 1030.84375 2041.875 1031.53125 2042.4375 1031.53125 2043.40625 C 1031.53125 2044.03125 1031 2044.625 1030 2045.15625 C 1029.625 2045.25 1029.09375 2045.5625 1028.5625 2046 C 1027.9375 2046.46875 1026.9375 2047.46875 1025.5 2049.125 C 1023.96875 2050.8125 1022.65625 2052.71875 1021.53125 2054.875 C 1020.375 2057 1019.375 2060.0625 1018.46875 2063.875 C 1017.5625 2067.75 1017.09375 2072.03125 1017.09375 2076.78125 C 1017.09375 2091.34375 1015.71875 2102.34375 1012.90625 2109.65625 Z M 1046.5 2112.9375 C 1031.53125 2126.90625 1021.90625 2133.84375 1017.71875 2133.84375 C 1015.5625 2133.84375 1014.4375 2132.40625 1014.4375 2129.5 C 1014.4375 2126.59375 1015.5625 2122.3125 1017.875 2116.75 C 1020.21875 2111.1875 1022.53125 2106.3125 1024.8125 2102.09375 L 1028.25 2096 C 1037.9375 2079.125 1045.34375 2067 1050.3125 2059.59375 C 1052.4375 2056.46875 1055.28125 2053.71875 1058.625 2051.5 C 1062 2049.28125 1065.1875 2048.15625 1068.09375 2048.15625 C 1069.15625 2048.15625 1069.625 2048.59375 1069.625 2049.53125 C 1069.625 2050.125 1069.15625 2051.34375 1068.3125 2053.09375 C 1066.78125 2055.9375 1062.96875 2062.5625 1057.03125 2073.09375 C 1051 2083.625 1047.40625 2090.03125 1046.25 2092.1875 C 1041 2101.34375 1038.40625 2107.4375 1038.40625 2110.4375 C 1038.40625 2111.5625 1038.78125 2112.1875 1039.53125 2112.1875 C 1040.84375 2112.1875 1044.875 2108.96875 1051.84375 2102.625 C 1057.1875 2097.28125 1064.28125 2089.65625 1073.125 2079.59375 C 1073.5 2079.21875 1073.8125 2079.0625 1074.03125 2079.0625 C 1074.28125 2079.0625 1074.4375 2079.28125 1074.4375 2079.8125 C 1074.4375 2082.1875 1073.5 2084.5625 1071.53125 2086.84375 C 1062.125 2097.21875 1053.75 2105.90625 1046.5 2112.9375 Z M 1071.90625 2037.3125 C 1068.78125 2037.3125 1067.1875 2035.40625 1067.1875 2031.59375 C 1067.1875 2028.0625 1068.46875 2024.5 1071.15625 2020.8125 C 1073.90625 2017.25 1076.78125 2015.40625 1080 2015.40625 C 1083.8125 2015.40625 1085.71875 2017.625 1085.71875 2021.90625 C 1085.71875 2025.46875 1084.28125 2028.90625 1081.3125 2032.28125 C 1078.40625 2035.625 1075.28125 2037.3125 1071.90625 2037.3125 Z M 1138.625 2064.40625 C 1139.78125 2064.625 1140.375 2065 1140.375 2065.5625 C 1140.375 2066.3125 1139.84375 2067.15625 1138.84375 2068.15625 C 1137.40625 2069.59375 1135.34375 2071.4375 1132.59375 2073.71875 C 1129.84375 2076 1128.25 2077.375 1127.71875 2077.90625 L 1125.03125 2081.5 C 1122.375 2088.96875 1118.25 2096.75 1112.65625 2104.84375 C 1107.09375 2112.875 1100.3125 2119.96875 1092.375 2126.0625 C 1084.34375 2132.1875 1076.71875 2135.21875 1069.46875 2135.21875 C 1060.375 2135.21875 1055.875 2129.65625 1055.875 2118.65625 C 1055.875 2108.90625 1059 2098.28125 1065.40625 2086.90625 C 1071.84375 2075.53125 1080.0625 2065.84375 1090.21875 2057.75 C 1100.375 2049.75 1110.375 2045.71875 1120.21875 2045.71875 C 1127.40625 2045.71875 1131 2048.53125 1131 2054.09375 C 1131 2057.15625 1129.46875 2061.28125 1126.34375 2066.46875 C 1126.25 2066.625 1126.1875 2066.78125 1126.1875 2067.0625 C 1126.1875 2067.3125 1126.34375 2067.46875 1126.5625 2067.46875 C 1131.3125 2065.5625 1135.34375 2064.46875 1138.625 2064.40625 Z M 1120.46875 2068.90625 C 1121.4375 2064.46875 1122 2061.03125 1122 2058.6875 C 1122 2053.34375 1120.15625 2050.65625 1116.5625 2050.65625 C 1111.59375 2050.65625 1105.40625 2055.25 1098 2064.40625 C 1090.625 2073.5 1084.1875 2083.78125 1078.9375 2095.25 C 1073.65625 2106.6875 1071 2115.6875 1071 2122.25 C 1071 2127.0625 1072.75 2129.5 1076.1875 2129.5 C 1081.53125 2129.5 1087.9375 2124.15625 1095.40625 2113.46875 C 1102.90625 2102.875 1107.40625 2092.09375 1108.9375 2081.34375 C 1108.78125 2081.03125 1108.78125 2080.65625 1108.78125 2080.1875 C 1108.78125 2076.46875 1112.0625 2073.1875 1118.6875 2070.28125 C 1119.6875 2069.90625 1120.3125 2069.4375 1120.46875 2068.90625 Z M 1185.8125 2112.9375 C 1170.84375 2126.90625 1161 2133.84375 1156.25 2133.84375 C 1154.125 2133.84375 1152.96875 2132.71875 1152.96875 2130.40625 C 1152.96875 2129.03125 1153.34375 2127.28125 1153.96875 2125.21875 C 1154.59375 2123.09375 1155.40625 2121.03125 1156.34375 2118.90625 C 1157.34375 2116.84375 1158.25 2114.9375 1159.15625 2113.09375 C 1160.0625 2111.34375 1160.90625 2109.65625 1161.84375 2108.21875 C 1162.75 2106.6875 1163.21875 2105.84375 1163.21875 2105.6875 C 1165.125 2102.25 1167.9375 2097.4375 1171.84375 2091.28125 C 1175.65625 2085.15625 1178.6875 2080.0625 1181 2076.09375 C 1183.28125 2072.125 1184.4375 2069.65625 1184.4375 2068.75 C 1184.4375 2068.15625 1184.125 2067.84375 1183.5 2067.84375 L 1180.75 2068.75 C 1174.96875 2072.9375 1167.875 2079.4375 1159.6875 2088.21875 C 1151.53125 2097.0625 1144.8125 2104.84375 1139.625 2111.5625 L 1131.75 2121.5 C 1130.0625 2123.9375 1128.625 2125.90625 1127.34375 2127.4375 C 1126.03125 2128.90625 1124.1875 2130.40625 1121.84375 2131.875 C 1119.46875 2133.3125 1117.09375 2134.09375 1114.65625 2134.09375 C 1112.90625 2134.09375 1112 2133.53125 1112 2132.5625 C 1112 2131.5625 1113.21875 2128.59375 1115.65625 2123.6875 C 1118.09375 2118.8125 1120.46875 2114.15625 1122.90625 2109.65625 L 1126.5625 2103.25 L 1145.34375 2070.4375 C 1147.25 2067.3125 1148.84375 2064.875 1150 2063.09375 C 1151.21875 2061.4375 1152.96875 2059.28125 1155.125 2056.625 C 1157.34375 2054.03125 1159.625 2052.125 1162.0625 2050.8125 C 1164.59375 2049.59375 1167.25 2048.84375 1170.0625 2048.53125 C 1171.0625 2048.53125 1171.59375 2049 1171.59375 2049.90625 C 1171.59375 2050.65625 1171.375 2051.28125 1171 2051.8125 C 1168.09375 2056.375 1163.59375 2063.9375 1157.46875 2074.46875 C 1151.4375 2085 1147.5625 2091.875 1145.96875 2095 C 1145.5625 2095.78125 1145.34375 2096.375 1145.34375 2096.75 C 1145.34375 2097 1145.5 2097.15625 1145.71875 2097.15625 C 1145.96875 2097.15625 1146.65625 2096.75 1147.625 2096 C 1150.0625 2093.1875 1153.21875 2089.65625 1157.09375 2085.53125 C 1161 2081.34375 1167.625 2075 1176.9375 2066.53125 C 1186.25 2058.15625 1193.96875 2052.40625 1200 2049.53125 C 1201.375 2048.90625 1202.75 2048.53125 1203.96875 2048.53125 C 1205.8125 2048.53125 1206.65625 2049.59375 1206.65625 2051.59375 C 1205.65625 2057.625 1200.75 2067.84375 1191.90625 2082.25 C 1182.21875 2098.125 1177.34375 2107.53125 1177.34375 2110.4375 C 1177.34375 2111.5 1177.78125 2111.9375 1178.6875 2111.9375 C 1179.3125 2111.9375 1180.0625 2111.71875 1180.90625 2111.25 C 1181.75 2110.875 1182.65625 2110.1875 1183.65625 2109.34375 C 1184.71875 2108.59375 1185.5625 2107.8125 1186.25 2107.21875 C 1186.9375 2106.59375 1187.875 2105.6875 1189 2104.625 C 1190.21875 2103.5625 1190.90625 2102.875 1191.15625 2102.625 C 1196.5 2097.28125 1203.59375 2089.65625 1212.4375 2079.59375 C 1212.8125 2079.21875 1213.125 2079.0625 1213.34375 2079.0625 C 1213.65625 2079.0625 1213.75 2079.28125 1213.75 2079.8125 C 1213.75 2082.1875 1212.8125 2084.5625 1210.90625 2086.84375 C 1201.4375 2097.21875 1193.0625 2105.90625 1185.8125 2112.9375 Z M 1190 2148.34375 C 1189.15625 2148.875 1188.46875 2149.125 1187.875 2149.125 C 1187.09375 2149.125 1186.71875 2148.8125 1186.71875 2148.1875 C 1186.71875 2147.4375 1187.03125 2146.53125 1187.625 2145.53125 C 1187.78125 2145.375 1188.46875 2144.21875 1189.78125 2142.09375 C 1191.0625 2139.875 1191.90625 2138.34375 1192.4375 2137.28125 C 1192.96875 2136.28125 1193.59375 2134.84375 1194.28125 2132.9375 C 1194.96875 2131.03125 1195.40625 2129.28125 1195.71875 2127.8125 C 1195.71875 2123.46875 1197.03125 2119.59375 1199.78125 2116.0625 C 1202.4375 2112.5625 1205.5 2110.8125 1208.9375 2110.8125 C 1213.0625 2110.8125 1215.03125 2112.71875 1215.03125 2116.375 C 1215.03125 2120.5625 1212.0625 2126.21875 1206.03125 2133.3125 C 1200.0625 2140.40625 1194.65625 2145.4375 1190 2148.34375 Z M 1363.4375 2004.5625 C 1360.6875 2004.5625 1357.03125 2006.46875 1352.28125 2010.28125 C 1347.5625 2014.09375 1343.75 2017.625 1340.75 2020.8125 C 1337.875 2024.09375 1336.09375 2026.09375 1335.65625 2026.84375 C 1334.1875 2028.75 1332.96875 2029.6875 1332 2029.6875 C 1331.0625 2029.6875 1330.625 2029 1330.625 2027.625 C 1330.625 2027.25 1330.75 2026.5625 1331 2025.5625 C 1333.96875 2016.78125 1340.0625 2007.9375 1349.46875 1999.15625 C 1358.9375 1990.3125 1367.78125 1985.9375 1376.03125 1985.9375 C 1383.4375 1985.9375 1387.1875 1991.59375 1387.1875 2002.875 C 1387.1875 2009.3125 1385.8125 2017.25 1382.96875 2026.5625 C 1380.15625 2035.875 1377.78125 2042.71875 1375.875 2047.15625 C 1373.96875 2051.5 1372.375 2054.9375 1371.0625 2057.53125 C 1367.625 2064.25 1363.8125 2070.96875 1359.53125 2077.59375 C 1355.34375 2084.25 1350.21875 2091.28125 1344.125 2098.65625 C 1338.09375 2106 1331.84375 2112.46875 1325.34375 2117.96875 C 1318.9375 2123.46875 1311.75 2128.0625 1303.8125 2131.71875 C 1295.875 2135.3125 1288.09375 2137.125 1280.46875 2137.125 C 1269.46875 2137.125 1263.96875 2129.4375 1263.96875 2114.09375 C 1263.96875 2101.5 1266.40625 2088.65625 1271.4375 2075.46875 C 1276.40625 2062.34375 1282.4375 2050.96875 1289.625 2041.1875 C 1296.78125 2031.5 1304.125 2023.28125 1311.75 2016.40625 C 1319.3125 2009.53125 1326.03125 2005.1875 1331.75 2003.4375 C 1332.4375 2003.1875 1333.28125 2003.03125 1334.28125 2003.03125 C 1335.28125 2003.03125 1335.8125 2003.34375 1335.8125 2004.03125 C 1335.8125 2004.8125 1335.28125 2005.71875 1334.28125 2006.84375 C 1330.53125 2010.4375 1326.1875 2015.46875 1321.15625 2022.1875 C 1316.09375 2028.84375 1310.625 2036.9375 1304.65625 2046.46875 C 1298.6875 2056 1293.75 2066.6875 1289.625 2078.4375 C 1285.5 2090.28125 1283.5 2101.40625 1283.5 2111.78125 C 1283.5 2122.71875 1287.09375 2128.21875 1294.4375 2128.21875 C 1309.84375 2128.21875 1326.78125 2112.34375 1345.1875 2080.59375 C 1360.3125 2054.78125 1367.78125 2031.4375 1367.78125 2010.4375 C 1367.78125 2006.5625 1366.34375 2004.5625 1363.4375 2004.5625 Z M 1395.03125 2106.0625 L 1398.46875 2099.59375 L 1404.4375 2089.5 C 1404.4375 2089.125 1404.28125 2088.90625 1404.03125 2088.90625 C 1403.8125 2088.90625 1403.4375 2089.125 1403.0625 2089.5 C 1398.3125 2094.9375 1393.4375 2100.28125 1388.3125 2105.375 C 1383.21875 2110.5625 1379.3125 2114.3125 1376.65625 2116.75 L 1372.4375 2120.34375 C 1362.4375 2129.71875 1355.5625 2134.46875 1351.6875 2134.46875 C 1349.9375 2134.46875 1349 2133.3125 1349 2131.03125 C 1349 2128.5 1350.0625 2124.625 1352.125 2119.4375 C 1354.28125 2114.25 1356.40625 2109.59375 1358.625 2105.53125 L 1361.6875 2099.59375 C 1372.4375 2079.65625 1380.3125 2066.3125 1385.40625 2059.59375 C 1388 2056.3125 1391.15625 2053.5625 1394.8125 2051.28125 C 1398.5625 2049.0625 1401.4375 2048 1403.4375 2048 C 1404.71875 2048 1405.34375 2048.4375 1405.34375 2049.28125 C 1405.34375 2049.8125 1405.125 2050.5 1404.59375 2051.4375 C 1404.34375 2051.96875 1401.75 2056.15625 1396.71875 2064.09375 C 1391.75 2072.03125 1387.71875 2078.8125 1384.65625 2084.5625 C 1376.25 2099.875 1372.0625 2108.75 1372.0625 2111.03125 C 1372.0625 2111.9375 1372.4375 2112.34375 1373.21875 2112.34375 C 1374.34375 2112.34375 1376.34375 2111.1875 1379.09375 2108.90625 C 1387.40625 2101.8125 1396.5625 2092.25 1406.5 2080.1875 C 1412 2074.3125 1417.78125 2066.6875 1423.75 2057.3125 C 1427.875 2051.125 1433.28125 2048 1440.0625 2048 C 1441.21875 2048 1441.75 2048.53125 1441.75 2049.53125 L 1440.21875 2053.09375 C 1438.46875 2056.3125 1434.5 2063.25 1428.25 2073.9375 C 1422.0625 2084.71875 1418.5625 2090.8125 1417.625 2092.34375 C 1412.375 2101.5 1409.78125 2107.53125 1409.78125 2110.4375 C 1409.78125 2111.5625 1410.15625 2112.1875 1410.90625 2112.1875 C 1412.21875 2112.1875 1416.34375 2108.96875 1423.21875 2102.625 C 1428.5625 2097.28125 1435.65625 2089.65625 1444.5 2079.59375 C 1444.875 2079.21875 1445.1875 2079.0625 1445.40625 2079.0625 C 1445.65625 2079.0625 1445.8125 2079.28125 1445.8125 2079.8125 C 1445.8125 2082.1875 1444.875 2084.5625 1442.96875 2086.84375 C 1433.5 2097.21875 1425.125 2105.90625 1417.875 2112.9375 C 1412.8125 2117.59375 1407.25 2122.3125 1401.0625 2127.0625 C 1394.875 2131.71875 1390.375 2134.09375 1387.5625 2134.09375 C 1385.65625 2134.09375 1384.65625 2132.71875 1384.65625 2130.03125 C 1384.65625 2128.59375 1385.8125 2125.21875 1388.09375 2120.1875 C 1390.46875 2115.0625 1392.75 2110.4375 1395.03125 2106.0625 Z M 1474.34375 2091.96875 C 1473.28125 2091.96875 1472.8125 2091.5625 1472.8125 2090.8125 C 1472.8125 2090.4375 1472.96875 2089.96875 1473.34375 2089.28125 C 1480.90625 2077.59375 1484.65625 2069.65625 1484.65625 2065.3125 C 1484.65625 2064.1875 1484.1875 2063.625 1483.34375 2063.625 C 1479.53125 2063.625 1470.53125 2072.25 1456.34375 2089.5 C 1452.125 2094.84375 1448.15625 2100.34375 1444.59375 2106.0625 C 1440.90625 2111.78125 1438.40625 2116.15625 1436.9375 2119.1875 L 1434.65625 2123.625 C 1433.125 2126.6875 1430.75 2129.5 1427.5625 2132.09375 C 1424.34375 2134.6875 1421.0625 2136 1417.625 2136 C 1415.8125 2136 1414.875 2135.53125 1414.875 2134.625 C 1414.875 2133.84375 1415.5 2132.3125 1416.5625 2129.875 C 1417.625 2127.4375 1418.9375 2124.78125 1420.46875 2121.875 C 1422 2118.96875 1423.5 2116.0625 1425.125 2113.3125 C 1426.65625 2110.5 1427.875 2108.21875 1428.9375 2106.3125 L 1430.625 2103.40625 L 1450.75 2068.53125 C 1458.5625 2053.9375 1466.71875 2046.6875 1475.28125 2046.6875 C 1476.40625 2046.6875 1477.03125 2047.09375 1477.03125 2048 C 1477.03125 2049.125 1474.28125 2053.875 1468.6875 2062.1875 C 1463.125 2070.5 1459.9375 2075.78125 1459 2078.0625 C 1458.78125 2078.8125 1458.625 2079.28125 1458.625 2079.4375 C 1458.625 2079.65625 1458.78125 2079.8125 1459 2079.8125 C 1459.25 2079.8125 1459.6875 2079.5 1460.3125 2078.8125 C 1469.9375 2068.0625 1480.0625 2058.4375 1490.84375 2050.0625 C 1491.4375 2049.4375 1492.8125 2048.53125 1495.03125 2047.3125 C 1497.1875 2046.09375 1499.09375 2045.5625 1500.75 2045.5625 C 1503.21875 2045.5625 1504.4375 2047.625 1504.4375 2051.8125 C 1504.4375 2056.375 1502.90625 2061.8125 1499.84375 2068.15625 C 1496.71875 2074.5625 1492.59375 2080.125 1487.34375 2084.9375 L 1486.5625 2085.6875 C 1486.09375 2086.0625 1485.5625 2086.46875 1484.96875 2086.90625 C 1484.4375 2087.375 1483.65625 2087.90625 1482.75 2088.53125 C 1481.84375 2089.21875 1481 2089.75 1480.0625 2090.125 C 1479.15625 2090.59375 1478.25 2091.03125 1477.1875 2091.40625 C 1476.1875 2091.8125 1475.1875 2091.96875 1474.34375 2091.96875 Z M 1682.28125 1990.0625 C 1675.65625 1999.59375 1668.25 2011.65625 1660.0625 2026.3125 C 1651.84375 2040.90625 1645.34375 2053.09375 1640.46875 2063.03125 L 1633.21875 2077.90625 C 1620.0625 2105.09375 1613.4375 2124.53125 1613.4375 2136.375 C 1613.4375 2136.59375 1613.5 2137.125 1613.5 2137.90625 C 1613.59375 2138.65625 1613.65625 2139.28125 1613.65625 2139.8125 C 1613.65625 2141.78125 1613.0625 2142.84375 1611.90625 2142.84375 C 1609.78125 2142.84375 1607.40625 2140.9375 1604.8125 2137.21875 C 1602.28125 2133.46875 1601 2128.5 1601 2122.25 C 1601 2116.53125 1602.375 2109.59375 1605.125 2101.34375 C 1607.875 2093.09375 1611.90625 2083.625 1617.34375 2073.03125 C 1622.65625 2062.40625 1627.1875 2053.875 1630.75 2047.46875 C 1634.4375 2040.96875 1639.3125 2032.5 1645.28125 2022.125 C 1645.65625 2021.34375 1645.875 2020.75 1645.875 2020.375 C 1645.5625 2019.75 1645.28125 2019.4375 1644.875 2019.4375 C 1644.125 2019.4375 1643.34375 2019.75 1642.59375 2020.375 C 1635.03125 2026.46875 1625.1875 2036.84375 1612.90625 2051.4375 C 1600.625 2066 1590.3125 2079.125 1581.84375 2090.65625 L 1569 2107.96875 C 1566.9375 2111.03125 1565.28125 2112.5625 1564.03125 2112.5625 C 1563.65625 2112.5625 1563.28125 2112.40625 1563.0625 2112.1875 C 1562.8125 2111.9375 1562.59375 2111.5625 1562.53125 2111.09375 C 1562.375 2110.65625 1562.28125 2110.28125 1562.21875 2109.875 C 1562.125 2109.5 1562.125 2109.1875 1562.125 2108.90625 L 1562.125 2108.5 C 1562.96875 2100.65625 1564.28125 2089.65625 1566.03125 2075.625 C 1567.78125 2061.5 1569.15625 2049.6875 1570.375 2039.96875 C 1571.53125 2030.375 1572.0625 2025.40625 1572.0625 2025.1875 C 1572.0625 2023.875 1571.84375 2023.28125 1571.3125 2023.28125 C 1571.0625 2023.28125 1570.6875 2023.40625 1570.21875 2023.8125 C 1569.78125 2024.1875 1569.46875 2024.5625 1569.15625 2024.9375 L 1568.78125 2025.5625 C 1563.28125 2033.65625 1557.46875 2044.1875 1551.15625 2057 C 1544.875 2069.90625 1539.84375 2081.34375 1536.03125 2091.1875 C 1533.21875 2098.375 1530.375 2104.84375 1527.40625 2110.71875 C 1524.5 2116.59375 1521.90625 2121.1875 1519.625 2124.46875 C 1517.40625 2127.65625 1515.34375 2130.40625 1513.5 2132.625 C 1511.6875 2134.84375 1510.21875 2136.375 1509.25 2137.125 L 1507.71875 2138.28125 C 1506.25 2139.4375 1505.1875 2139.96875 1504.4375 2139.96875 C 1503.65625 2139.96875 1503.28125 2139.34375 1503.28125 2138.0625 L 1503.4375 2136.375 C 1504.71875 2129.65625 1510.3125 2116.84375 1520.21875 2097.90625 C 1530.15625 2078.96875 1539.78125 2061.71875 1549.09375 2046.09375 L 1563.0625 2022.875 L 1573.59375 2004.8125 C 1578.84375 1989.90625 1582.90625 1982.5 1585.65625 1982.5 C 1587.625 1982.5 1588.5625 1985.71875 1588.5625 1992.21875 C 1584.59375 2039.4375 1582.59375 2066.375 1582.59375 2073.09375 C 1582.59375 2075 1582.96875 2076 1583.75 2076 C 1584.5 2076 1585.40625 2075.3125 1586.40625 2073.875 C 1588.09375 2071.71875 1590.375 2068.84375 1593.34375 2065.15625 C 1596.25 2061.4375 1601.90625 2054.875 1610.21875 2045.3125 C 1618.5625 2035.78125 1626.34375 2027.25 1633.65625 2019.59375 C 1641 2011.96875 1649.09375 2004.71875 1657.71875 1997.6875 C 1666.40625 1990.75 1673.59375 1986.46875 1679.25 1984.96875 C 1680.46875 1984.71875 1681.3125 1984.5625 1681.6875 1984.5625 C 1683.21875 1984.5625 1683.96875 1985.1875 1683.96875 1986.34375 C 1683.96875 1987.3125 1683.4375 1988.53125 1682.28125 1990.0625 Z M 1657.9375 2112.9375 C 1642.96875 2126.90625 1633.4375 2133.84375 1629.15625 2133.84375 C 1627.03125 2133.84375 1625.96875 2132.40625 1625.96875 2129.5 C 1625.96875 2126.59375 1627.09375 2122.3125 1629.375 2116.75 C 1631.6875 2111.1875 1633.96875 2106.3125 1636.25 2102.09375 L 1639.6875 2096 C 1649.46875 2079.125 1656.78125 2067 1661.75 2059.59375 C 1663.96875 2056.46875 1666.71875 2053.71875 1670.0625 2051.5 C 1673.5 2049.28125 1676.65625 2048.15625 1679.625 2048.15625 C 1680.625 2048.15625 1681.15625 2048.59375 1681.15625 2049.53125 C 1681.15625 2050.125 1680.6875 2051.34375 1679.78125 2053.09375 C 1678.25 2055.9375 1674.5 2062.5625 1668.46875 2073.09375 C 1662.4375 2083.625 1658.84375 2090.03125 1657.71875 2092.1875 C 1652.53125 2101.34375 1649.84375 2107.4375 1649.84375 2110.4375 C 1649.84375 2111.5625 1650.21875 2112.1875 1651.0625 2112.1875 C 1652.28125 2112.1875 1656.40625 2108.96875 1663.28125 2102.625 C 1668.625 2097.28125 1675.71875 2089.65625 1684.59375 2079.59375 C 1684.96875 2079.21875 1685.28125 2079.0625 1685.5 2079.0625 C 1685.8125 2079.0625 1685.875 2079.28125 1685.875 2079.8125 C 1685.875 2082.1875 1684.96875 2084.5625 1683.0625 2086.84375 C 1673.59375 2097.21875 1665.1875 2105.90625 1657.9375 2112.9375 Z M 1683.4375 2037.3125 C 1680.21875 2037.3125 1678.625 2035.40625 1678.625 2031.59375 C 1678.625 2028.0625 1680 2024.5 1682.65625 2020.8125 C 1685.34375 2017.25 1688.25 2015.40625 1691.4375 2015.40625 C 1695.28125 2015.40625 1697.25 2017.625 1697.25 2021.90625 C 1697.25 2025.46875 1695.71875 2028.90625 1692.8125 2032.28125 C 1689.84375 2035.625 1686.71875 2037.3125 1683.4375 2037.3125 Z M 1711.53125 2109.65625 C 1709.25 2115.90625 1705.65625 2121.1875 1700.625 2125.375 C 1695.65625 2129.65625 1691 2132.5625 1686.71875 2134.09375 C 1682.4375 2135.59375 1678.625 2136.375 1675.125 2136.375 C 1665.8125 2136.375 1661.15625 2132.71875 1661.15625 2125.53125 C 1661.15625 2118.125 1665.28125 2111.5 1673.4375 2105.53125 C 1677.25 2102.71875 1681.375 2100.875 1685.875 2099.96875 C 1686.5 2099.96875 1686.78125 2100.28125 1686.78125 2100.71875 C 1686.78125 2101.03125 1686.71875 2101.25 1686.40625 2101.5 C 1683.28125 2103.9375 1680.21875 2107.6875 1677.34375 2112.71875 C 1674.5 2117.8125 1673.0625 2122.25 1673.0625 2126.0625 C 1673.0625 2129.875 1674.65625 2131.78125 1677.875 2131.78125 C 1680.375 2131.78125 1682.90625 2130.71875 1685.40625 2128.65625 C 1687.875 2126.53125 1689.78125 2124.375 1691.0625 2122.25 L 1692.96875 2119.1875 C 1695.5 2115.15625 1697.625 2108.65625 1699.375 2099.8125 C 1701.15625 2090.875 1702.21875 2083.03125 1702.75 2076.15625 L 1703.28125 2065.9375 C 1703.28125 2064.875 1703.125 2064.40625 1702.75 2064.40625 L 1702 2064.78125 L 1682.96875 2086.84375 C 1681.59375 2088.53125 1680.625 2089.28125 1680.15625 2089.28125 C 1679.46875 2089.28125 1679.15625 2088.90625 1679.15625 2088 C 1679.15625 2086.3125 1679.625 2085.09375 1680.53125 2084.15625 L 1682.21875 2082.09375 C 1696.78125 2065.84375 1705.125 2056 1707.1875 2052.5625 C 1709.09375 2049.6875 1711.90625 2047.09375 1715.5625 2044.9375 C 1719.15625 2042.875 1723.34375 2041.875 1728.25 2041.875 C 1729.53125 2041.875 1730.15625 2042.4375 1730.15625 2043.40625 C 1730.15625 2044.03125 1729.625 2044.625 1728.625 2045.15625 C 1728.25 2045.25 1727.78125 2045.5625 1727.1875 2046 C 1726.65625 2046.46875 1725.5625 2047.46875 1724.125 2049.125 C 1722.65625 2050.8125 1721.3125 2052.71875 1720.15625 2054.875 C 1719 2057 1718 2060.0625 1717.09375 2063.875 C 1716.1875 2067.75 1715.8125 2072.03125 1715.8125 2076.78125 C 1715.8125 2091.34375 1714.34375 2102.34375 1711.53125 2109.65625 Z M 1763.90625 2109.65625 C 1761.59375 2115.90625 1757.9375 2121.1875 1752.96875 2125.375 C 1747.9375 2129.65625 1743.34375 2132.5625 1739.09375 2134.09375 C 1734.8125 2135.59375 1730.90625 2136.375 1727.46875 2136.375 C 1718.15625 2136.375 1713.4375 2132.71875 1713.4375 2125.53125 C 1713.4375 2118.125 1717.5625 2111.5 1725.71875 2105.53125 C 1729.53125 2102.71875 1733.75 2100.875 1738.15625 2099.96875 C 1738.84375 2099.96875 1739.15625 2100.28125 1739.15625 2100.71875 C 1739.15625 2101.03125 1739 2101.25 1738.78125 2101.5 C 1735.5625 2103.9375 1732.53125 2107.6875 1729.6875 2112.71875 C 1726.78125 2117.8125 1725.34375 2122.25 1725.34375 2126.0625 C 1725.34375 2129.875 1726.9375 2131.78125 1730.15625 2131.78125 C 1732.65625 2131.78125 1735.28125 2130.71875 1737.71875 2128.65625 C 1740.21875 2126.53125 1742.0625 2124.375 1743.34375 2122.25 L 1745.28125 2119.1875 C 1747.875 2115.15625 1750 2108.65625 1751.75 2099.8125 C 1753.4375 2090.875 1754.59375 2083.03125 1755.03125 2076.15625 L 1755.65625 2065.9375 C 1755.65625 2064.875 1755.40625 2064.40625 1755.03125 2064.40625 L 1754.28125 2064.78125 L 1735.34375 2086.84375 C 1733.90625 2088.53125 1732.96875 2089.28125 1732.4375 2089.28125 C 1731.84375 2089.28125 1731.4375 2088.90625 1731.4375 2088 C 1731.4375 2086.3125 1731.90625 2085.09375 1732.8125 2084.15625 L 1734.59375 2082.09375 C 1749.09375 2065.84375 1757.40625 2056 1759.46875 2052.5625 C 1761.375 2049.6875 1764.1875 2047.09375 1767.875 2044.9375 C 1771.4375 2042.875 1775.71875 2041.875 1780.53125 2041.875 C 1781.84375 2041.875 1782.4375 2042.4375 1782.4375 2043.40625 C 1782.4375 2044.03125 1782 2044.625 1780.90625 2045.15625 C 1780.53125 2045.25 1780.0625 2045.5625 1779.53125 2046 C 1778.9375 2046.46875 1777.9375 2047.46875 1776.40625 2049.125 C 1774.96875 2050.8125 1773.65625 2052.71875 1772.53125 2054.875 C 1771.375 2057 1770.3125 2060.0625 1769.46875 2063.875 C 1768.5625 2067.75 1768.09375 2072.03125 1768.09375 2076.78125 C 1768.09375 2091.34375 1766.71875 2102.34375 1763.90625 2109.65625 Z M 1797.40625 2112.9375 C 1782.4375 2126.90625 1772.90625 2133.84375 1768.6875 2133.84375 C 1766.5 2133.84375 1765.40625 2132.40625 1765.40625 2129.5 C 1765.40625 2126.59375 1766.5625 2122.3125 1768.84375 2116.75 C 1771.15625 2111.1875 1773.4375 2106.3125 1775.71875 2102.09375 L 1779.25 2096 C 1788.9375 2079.125 1796.25 2067 1801.21875 2059.59375 C 1803.4375 2056.46875 1806.1875 2053.71875 1809.53125 2051.5 C 1812.96875 2049.28125 1816.09375 2048.15625 1819.09375 2048.15625 C 1820.0625 2048.15625 1820.625 2048.59375 1820.625 2049.53125 C 1820.625 2050.125 1820.15625 2051.34375 1819.25 2053.09375 C 1817.71875 2055.9375 1813.96875 2062.5625 1807.9375 2073.09375 C 1802 2083.625 1798.40625 2090.03125 1797.25 2092.1875 C 1792 2101.34375 1789.375 2107.4375 1789.375 2110.4375 C 1789.375 2111.5625 1789.78125 2112.1875 1790.53125 2112.1875 C 1791.75 2112.1875 1795.875 2108.96875 1802.75 2102.625 C 1808.15625 2097.28125 1815.28125 2089.65625 1824.03125 2079.59375 C 1824.4375 2079.21875 1824.71875 2079.0625 1825.03125 2079.0625 C 1825.28125 2079.0625 1825.40625 2079.28125 1825.40625 2079.8125 C 1825.40625 2082.1875 1824.4375 2084.5625 1822.53125 2086.84375 C 1813.0625 2097.21875 1804.71875 2105.90625 1797.40625 2112.9375 Z M 1822.90625 2037.3125 C 1819.6875 2037.3125 1818.09375 2035.40625 1818.09375 2031.59375 C 1818.09375 2028.0625 1819.46875 2024.5 1822.125 2020.8125 C 1824.8125 2017.25 1827.78125 2015.40625 1830.90625 2015.40625 C 1834.8125 2015.40625 1836.71875 2017.625 1836.71875 2021.90625 C 1836.71875 2025.46875 1835.28125 2028.90625 1832.28125 2032.28125 C 1829.375 2035.625 1826.25 2037.3125 1822.90625 2037.3125 Z M 1889.625 2064.40625 C 1890.75 2064.625 1891.3125 2065 1891.3125 2065.5625 C 1891.3125 2066.3125 1890.84375 2067.15625 1889.78125 2068.15625 C 1888.40625 2069.59375 1886.34375 2071.4375 1883.5 2073.71875 C 1880.84375 2076 1879.15625 2077.375 1878.6875 2077.90625 L 1875.96875 2081.5 C 1873.28125 2088.96875 1869.15625 2096.75 1863.59375 2104.84375 C 1858.09375 2112.875 1851.3125 2119.96875 1843.28125 2126.0625 C 1835.34375 2132.1875 1827.71875 2135.21875 1820.375 2135.21875 C 1811.375 2135.21875 1806.78125 2129.65625 1806.78125 2118.65625 C 1806.78125 2108.90625 1810 2098.28125 1816.40625 2086.90625 C 1822.75 2075.53125 1831.0625 2065.84375 1841.21875 2057.75 C 1851.375 2049.75 1861.375 2045.71875 1871.21875 2045.71875 C 1878.3125 2045.71875 1881.90625 2048.53125 1881.90625 2054.09375 C 1881.90625 2057.15625 1880.375 2061.28125 1877.34375 2066.46875 C 1877.1875 2066.625 1877.1875 2066.78125 1877.1875 2067.0625 C 1877.1875 2067.3125 1877.25 2067.46875 1877.5625 2067.46875 C 1882.21875 2065.5625 1886.25 2064.46875 1889.625 2064.40625 Z M 1871.375 2068.90625 C 1872.4375 2064.46875 1872.90625 2061.03125 1872.90625 2058.6875 C 1872.90625 2053.34375 1871.15625 2050.65625 1867.5625 2050.65625 C 1862.59375 2050.65625 1856.40625 2055.25 1848.9375 2064.40625 C 1841.53125 2073.5 1835.1875 2083.78125 1829.84375 2095.25 C 1824.59375 2106.6875 1821.90625 2115.6875 1821.90625 2122.25 C 1821.90625 2127.0625 1823.65625 2129.5 1827.09375 2129.5 C 1832.53125 2129.5 1838.9375 2124.15625 1846.34375 2113.46875 C 1853.8125 2102.875 1858.3125 2092.09375 1859.9375 2081.34375 C 1859.78125 2081.03125 1859.6875 2080.65625 1859.6875 2080.1875 C 1859.6875 2076.46875 1863.0625 2073.1875 1869.6875 2070.28125 C 1870.6875 2069.90625 1871.3125 2069.4375 1871.375 2068.90625 Z M 1936.71875 2112.9375 C 1921.75 2126.90625 1911.90625 2133.84375 1907.1875 2133.84375 C 1905.03125 2133.84375 1903.96875 2132.71875 1903.96875 2130.40625 C 1903.96875 2129.03125 1904.28125 2127.28125 1904.875 2125.21875 C 1905.5 2123.09375 1906.34375 2121.03125 1907.34375 2118.90625 C 1908.25 2116.84375 1909.15625 2114.9375 1910.0625 2113.09375 C 1911 2111.34375 1911.84375 2109.65625 1912.75 2108.21875 C 1913.65625 2106.6875 1914.125 2105.84375 1914.125 2105.6875 C 1916.03125 2102.25 1918.84375 2097.4375 1922.75 2091.28125 C 1926.5625 2085.15625 1929.625 2080.0625 1931.90625 2076.09375 C 1934.1875 2072.125 1935.34375 2069.65625 1935.34375 2068.75 C 1935.34375 2068.15625 1935.03125 2067.84375 1934.4375 2067.84375 L 1931.75 2068.75 C 1925.875 2072.9375 1918.84375 2079.4375 1910.625 2088.21875 C 1902.4375 2097.0625 1895.71875 2104.84375 1890.53125 2111.5625 L 1882.65625 2121.5 C 1881 2123.9375 1879.53125 2125.90625 1878.25 2127.4375 C 1876.9375 2128.90625 1875.1875 2130.40625 1872.8125 2131.875 C 1870.46875 2133.3125 1868 2134.09375 1865.5625 2134.09375 C 1863.8125 2134.09375 1862.90625 2133.53125 1862.90625 2132.5625 C 1862.90625 2131.5625 1864.125 2128.59375 1866.5625 2123.6875 C 1869 2118.8125 1871.4375 2114.15625 1873.8125 2109.65625 L 1877.46875 2103.25 L 1896.25 2070.4375 C 1898.15625 2067.3125 1899.78125 2064.875 1901 2063.09375 C 1902.21875 2061.4375 1903.90625 2059.28125 1906.03125 2056.625 C 1908.25 2054.03125 1910.53125 2052.125 1913.0625 2050.8125 C 1915.5 2049.59375 1918.15625 2048.84375 1921 2048.53125 C 1922 2048.53125 1922.53125 2049 1922.53125 2049.90625 C 1922.53125 2050.65625 1922.375 2051.28125 1922 2051.8125 C 1919 2056.375 1914.5 2063.9375 1908.46875 2074.46875 C 1902.375 2085 1898.46875 2091.875 1896.875 2095 C 1896.5 2095.78125 1896.25 2096.375 1896.25 2096.75 C 1896.25 2097 1896.40625 2097.15625 1896.65625 2097.15625 C 1896.875 2097.15625 1897.5625 2096.75 1898.5625 2096 C 1901 2093.1875 1904.1875 2089.65625 1908.09375 2085.53125 C 1912 2081.34375 1918.5625 2075 1927.875 2066.53125 C 1937.25 2058.15625 1944.875 2052.40625 1950.90625 2049.53125 C 1952.28125 2048.90625 1953.65625 2048.53125 1954.875 2048.53125 C 1956.71875 2048.53125 1957.5625 2049.59375 1957.5625 2051.59375 C 1956.5625 2057.625 1951.6875 2067.84375 1942.8125 2082.25 C 1933.125 2098.125 1928.25 2107.53125 1928.25 2110.4375 C 1928.25 2111.5 1928.6875 2111.9375 1929.625 2111.9375 C 1930.21875 2111.9375 1931 2111.71875 1931.84375 2111.25 C 1932.65625 2110.875 1933.59375 2110.1875 1934.59375 2109.34375 C 1935.65625 2108.59375 1936.5 2107.8125 1937.1875 2107.21875 C 1937.875 2106.59375 1938.78125 2105.6875 1940 2104.625 C 1941.15625 2103.5625 1941.84375 2102.875 1942.0625 2102.625 C 1947.40625 2097.28125 1954.5 2089.65625 1963.34375 2079.59375 C 1963.75 2079.21875 1964.03125 2079.0625 1964.28125 2079.0625 C 1964.59375 2079.0625 1964.65625 2079.28125 1964.65625 2079.8125 C 1964.65625 2082.1875 1963.75 2084.5625 1961.84375 2086.84375 C 1952.375 2097.21875 1943.96875 2105.90625 1936.71875 2112.9375 Z M 1936.71875 2112.9375 "/>
</g>
<g clip-path="url(#clip4)" clip-rule="nonzero">
<path style=" stroke:none;fill-rule:nonzero;fill:rgb(100%,100%,100%);fill-opacity:1;" d="M 1581.4375 1319.90625 L 1458.9375 990.46875 C 1458 986.78125 1454.28125 984.03125 1450.53125 984.03125 C 1446.875 984.03125 1443.125 986.78125 1442.21875 989.53125 L 1387.40625 1133.46875 L 1273.21875 913.90625 L 1273.21875 884.375 L 1411.53125 884.375 C 1413.4375 884.375 1416.1875 883.46875 1417.09375 882.53125 L 1502.53125 810.5625 C 1504.4375 808.65625 1506.25 805.90625 1506.25 803.15625 C 1506.25 800.4375 1505.34375 797.59375 1502.53125 795.78125 L 1418 723.8125 C 1416.1875 723.8125 1414.34375 722.875 1412.4375 722.875 L 1263.90625 722.875 C 1258.3125 722.875 1254.59375 726.5625 1254.59375 732.125 L 1254.59375 913.90625 L 1173.8125 1068.90625 C 1171.0625 1073.5 1172.90625 1079.0625 1177.5625 1080.90625 C 1182.21875 1083.625 1187.78125 1081.8125 1189.625 1077.21875 L 1220.21875 1019.0625 C 1250 1032.875 1277.875 1031.96875 1305.65625 1018.15625 C 1401.3125 1200.875 1396.71875 1191.625 1459.84375 1313.4375 L 1051.21875 1313.4375 L 1067.9375 1287.5625 C 1070.75 1282.96875 1069.84375 1277.5 1065.1875 1274.65625 C 1060.53125 1271.90625 1054.96875 1272.84375 1052.21875 1277.5 L 1026.1875 1318 C 1022.4375 1323.59375 1027.09375 1331.90625 1033.59375 1331.90625 L 1573.125 1331.90625 C 1575.875 1331.90625 1578.6875 1330.0625 1580.53125 1328.15625 C 1582.4375 1325.40625 1583.34375 1322.65625 1581.4375 1319.90625 M 1450.53125 1020 L 1468.15625 1068 C 1456.09375 1076.3125 1444.03125 1077.21875 1432 1068.90625 Z M 1482.125 804.09375 L 1407.875 866.8125 L 1273.21875 866.8125 L 1273.21875 741.34375 L 1408.78125 741.34375 Z M 1229.53125 1002.4375 L 1263.90625 936.03125 L 1298.25 1001.53125 C 1275.03125 1013.59375 1252.75 1013.59375 1229.53125 1002.4375 M 1481.21875 1313.4375 L 1399.46875 1155.6875 L 1426.40625 1085.5625 C 1443.125 1094.78125 1458.9375 1094.78125 1475.65625 1084.625 L 1560.15625 1313.4375 Z M 1481.21875 1313.4375 "/>
</g>
<g clip-path="url(#clip5)" clip-rule="nonzero">
<path style=" stroke:none;fill-rule:nonzero;fill:rgb(100%,100%,100%);fill-opacity:1;" d="M 1096.71875 1259.03125 C 1110.6875 1259.03125 1122.75 1247.9375 1122.75 1233.15625 L 1122.75 1135.375 L 1149.6875 1135.375 C 1155.28125 1135.375 1158.9375 1131.65625 1158.9375 1126.15625 L 1158.9375 984.03125 C 1158.9375 951.6875 1135.71875 924.96875 1106.03125 924.96875 L 1022.4375 924.96875 C 993.65625 924.96875 969.53125 951.6875 969.53125 984.03125 L 969.53125 1126.15625 C 969.53125 1131.65625 973.28125 1135.375 978.78125 1135.375 L 1005.71875 1135.375 L 1005.71875 1233.15625 C 1005.71875 1247.03125 1016.875 1259.03125 1031.75 1259.03125 Z M 1024.34375 1233.15625 L 1024.34375 1046.78125 C 1024.34375 1041.21875 1020.625 1037.53125 1015.03125 1037.53125 C 1009.46875 1037.53125 1005.71875 1041.21875 1005.71875 1046.78125 L 1005.71875 1116.90625 L 988.09375 1116.90625 L 988.09375 984.03125 C 988.09375 961.84375 1002.96875 943.4375 1022.4375 943.4375 L 1106.03125 943.4375 C 1124.59375 943.4375 1140.375 961.84375 1140.375 984.03125 L 1140.375 1116.90625 L 1122.75 1116.90625 L 1122.75 1046.78125 C 1122.75 1041.21875 1119 1037.53125 1113.4375 1037.53125 C 1107.875 1037.53125 1104.1875 1041.21875 1104.1875 1046.78125 L 1104.1875 1233.15625 C 1104.1875 1236.875 1101.375 1240.5625 1096.71875 1240.5625 L 1073.5 1240.5625 L 1073.5 1130.71875 C 1073.5 1125.21875 1069.84375 1121.5 1064.28125 1121.5 C 1058.6875 1121.5 1054.96875 1125.21875 1054.96875 1130.71875 L 1054.96875 1240.5625 L 1030.84375 1240.5625 C 1027.09375 1240.5625 1024.34375 1236.875 1024.34375 1233.15625 "/>
</g>
<path style=" stroke:none;fill-rule:nonzero;fill:rgb(100%,100%,100%);fill-opacity:1;" d="M 1064.28125 920.3125 C 1096.71875 920.3125 1122.75 894.53125 1122.75 862.25 C 1122.75 829.96875 1096.71875 804.09375 1064.28125 804.09375 C 1031.75 804.09375 1005.71875 829.96875 1005.71875 862.25 C 1005.71875 893.59375 1031.75 920.3125 1064.28125 920.3125 M 1064.28125 821.625 C 1086.5625 821.625 1104.1875 839.125 1104.1875 861.3125 C 1104.1875 883.46875 1086.5625 901 1064.28125 901 C 1042 901 1024.34375 883.46875 1024.34375 861.3125 C 1024.34375 839.125 1042 821.625 1064.28125 821.625 "/>
<path style=" stroke:none;fill-rule:nonzero;fill:rgb(100%,100%,100%);fill-opacity:1;" d="M 1324.28125 839.125 C 1325.1875 841.03125 1327.9375 842.84375 1330.75 843.78125 C 1333.5 844.6875 1336.34375 843.78125 1338.15625 841.9375 L 1417.09375 781.03125 C 1420.84375 778.21875 1421.75 771.8125 1419 768.0625 C 1416.1875 764.40625 1409.6875 763.5 1405.96875 766.21875 L 1334.5 820.71875 L 1314.03125 789.34375 C 1311.21875 784.6875 1305.65625 783.78125 1301.0625 786.53125 C 1296.40625 789.34375 1295.5 794.84375 1298.25 799.5 Z M 1324.28125 839.125 "/>
<path style=" stroke:none;fill-rule:nonzero;fill:rgb(100%,100%,100%);fill-opacity:1;" d="M 1253.65625 1278.40625 C 1253.65625 1283.90625 1257.40625 1287.5625 1262.96875 1287.5625 L 1400.375 1287.5625 C 1403.21875 1287.5625 1406.875 1285.71875 1408.78125 1282.96875 C 1410.625 1280.25 1410.625 1276.5 1408.78125 1273.75 L 1344.65625 1148.28125 C 1341.90625 1143.625 1336.34375 1141.78125 1332.59375 1144.53125 C 1327.9375 1147.375 1326.09375 1152.875 1328.9375 1156.59375 L 1386.5 1268.25 L 1262.96875 1268.25 C 1258.3125 1269.15625 1253.65625 1272.84375 1253.65625 1278.40625 "/>
</g>
</svg>
